<svg width="75" height="76" viewBox="0 0 75 76" fill="none" xmlns="http://www.w3.org/2000/svg">
<path d="M48.6014 67.4647C48.6207 67.7586 48.5792 68.0532 48.4794 68.3302C48.3796 68.6073 48.2237 68.8607 48.0214 69.0747C47.7185 69.2669 47.378 69.3922 47.0228 69.4422C46.6675 69.4922 46.3057 69.4658 45.9614 69.3647C44.0019 69.0004 42.0145 68.8063 40.0214 68.7847C38.1814 68.8647 38.3714 69.4047 36.1314 69.5847C34.6354 69.6457 33.1371 69.5485 31.6614 69.2947C29.5167 69.133 27.3601 69.3325 25.2814 69.8847C20.1811 60.3495 16.2718 50.2236 13.6414 39.7347C12.5748 35.4776 11.7271 31.1686 11.1014 26.8247C26.1014 34.0147 30.3914 41.0947 31.3914 46.3547C31.7414 48.2047 31.5914 49.3547 32.1514 51.4347C34.3314 59.6647 42.2714 64.5347 48.6014 67.4647Z" fill="#FF8C64"/>
<path d="M20.9714 37.5847C19.8214 34.9247 17.5414 33.2247 15.2014 33.2747C14.171 33.3221 13.1769 33.6697 12.3414 34.2747C11.4196 31.9067 10.9974 29.3737 11.1014 26.8347C11.3992 22.3251 13.2225 18.0509 16.2714 14.7147C19.8489 10.5968 24.6922 7.783 30.0414 6.71474L25.0414 17.7147L20.9714 37.5847Z" fill="#FF8C64"/>
<path d="M28.4115 25.5347L25.7715 21.3947L30.4615 14.8847C31.7515 13.3647 33.5415 12.8847 34.6515 13.4647C35.7615 14.0447 35.9115 15.8647 35.9415 16.4647C35.9305 17.3259 35.748 18.1763 35.4046 18.9661C35.0612 19.7559 34.5638 20.4694 33.9415 21.0647L28.4115 25.5347Z" fill="#FF8C64"/>
<path d="M29.4815 29.3147L26.8415 25.2047C28.4115 23.0447 29.9715 20.8747 31.5415 18.7047C32.8315 17.1747 34.6115 16.7047 35.7315 17.2747C36.8515 17.8447 36.9915 19.6847 37.0115 20.2747C37.0051 21.1367 36.8246 21.9884 36.4809 22.7788C36.1372 23.5693 35.6374 24.2822 35.0115 24.8747L29.4815 29.3147Z" fill="#FF8C64"/>
<path d="M30.1715 32.9647L27.5215 28.8547C29.0915 26.6947 30.6515 24.5247 32.2215 22.3547C33.5115 20.8247 35.3015 20.3547 36.4115 20.9347C37.5215 21.5147 37.6715 23.3347 37.7015 23.9347C37.6928 24.7963 37.5113 25.6473 37.1677 26.4375C36.8242 27.2276 36.3256 27.9408 35.7015 28.5347L30.1715 32.9647Z" fill="#FF8C64"/>
<path d="M29.1015 25.5947C28.9992 25.5917 28.9022 25.5486 28.8315 25.4747C28.7624 25.4038 28.7238 25.3087 28.7238 25.2097C28.7238 25.1108 28.7624 25.0157 28.8315 24.9447L33.3615 20.6147C33.4331 20.5458 33.5291 20.5081 33.6285 20.51C33.7279 20.5118 33.8225 20.5531 33.8915 20.6247C33.9604 20.6963 33.9981 20.7924 33.9962 20.8918C33.9944 20.9912 33.9531 21.0858 33.8815 21.1547L29.3615 25.5347C29.2842 25.5839 29.1924 25.6051 29.1015 25.5947Z" fill="#EA522F"/>
<path d="M30.4915 29.2647C30.3906 29.2644 30.2939 29.2249 30.2215 29.1547C30.1861 29.1203 30.158 29.0791 30.1388 29.0335C30.1196 28.988 30.1097 28.9391 30.1097 28.8897C30.1097 28.8403 30.1196 28.7914 30.1388 28.7459C30.158 28.7004 30.1861 28.6592 30.2215 28.6247L35.4715 23.6247C35.5441 23.5551 35.6408 23.5162 35.7415 23.5162C35.8421 23.5162 35.9388 23.5551 36.0115 23.6247C36.0805 23.6957 36.1191 23.7908 36.1191 23.8897C36.1191 23.9887 36.0805 24.0838 36.0115 24.1547L30.7615 29.1547C30.6891 29.2249 30.5923 29.2644 30.4915 29.2647Z" fill="#EA522F"/>
<path d="M44.1415 72.3947C41.5851 72.514 39.0261 72.2237 36.5615 71.5347C36.0615 71.3747 35.5015 71.1147 34.4015 70.8147C33.0415 70.4547 32.4015 70.4447 32.3515 70.1547C32.3015 69.8647 32.6915 69.6047 34.3515 68.6947C35.6915 67.9347 36.3515 67.5447 36.8515 67.3147C38.7982 66.3988 40.8024 65.6105 42.8515 64.9547C47.7415 63.6047 55.3815 64.7647 55.7415 66.8047C56.1015 68.8447 49.4515 72.0847 44.1415 72.3947Z" fill="#E3E3FD"/>
<path d="M32.3514 70.4147C32.2993 70.4126 32.2488 70.3954 32.2063 70.3653C32.1637 70.3351 32.1307 70.2932 32.1114 70.2447C32.0889 70.1824 32.0921 70.1137 32.1202 70.0537C32.1483 69.9937 32.1991 69.9473 32.2614 69.9247C39.7669 67.1868 47.758 66.0325 55.7314 66.5347C55.7643 66.5373 55.7963 66.5463 55.8257 66.5612C55.8551 66.5762 55.8812 66.5968 55.9026 66.6219C55.924 66.647 55.9402 66.6761 55.9503 66.7074C55.9604 66.7388 55.9642 66.7719 55.9614 66.8047C55.9602 66.8372 55.9524 66.869 55.9385 66.8983C55.9246 66.9276 55.9049 66.9538 55.8806 66.9753C55.8563 66.9968 55.8279 67.0132 55.7971 67.0234C55.7663 67.0336 55.7338 67.0375 55.7014 67.0347C47.7979 66.5217 39.8739 67.6557 32.4314 70.3647L32.3514 70.4147Z" fill="#BBBBF9"/>
<path d="M46.7715 31.4347C45.5015 30.6247 43.4415 31.5247 41.8615 33.4347C40.2715 31.5347 38.2715 30.6247 36.9515 31.4347C35.5015 32.3547 35.6315 35.1747 37.2515 37.7247C38.5515 39.7847 40.4215 41.0247 41.8615 40.9447C43.3015 41.0247 45.1715 39.7847 46.4715 37.7247C48.0915 35.1747 48.2715 32.3547 46.7715 31.4347Z" fill="#FFC5D2"/>
<path d="M62.2715 8.53474C61.5115 7.86474 60.0515 8.26474 58.8015 9.39474C57.9515 7.94474 56.6715 7.14474 55.7415 7.55474C54.8115 7.96474 54.4915 9.91474 55.3115 11.7747C55.5196 12.4014 55.8797 12.9669 56.3595 13.4205C56.8394 13.8742 57.4241 14.202 58.0615 14.3747C58.7206 14.3918 59.3739 14.2477 59.9647 13.9549C60.5555 13.6622 61.0658 13.2296 61.4515 12.6947C62.8115 11.1647 63.1815 9.30474 62.2715 8.53474Z" fill="#FFC5D2"/>
<path d="M46.4215 0.0147395C45.5015 -0.135261 44.5615 0.87474 44.1315 2.35474C42.7715 1.64474 41.3915 1.63474 40.8715 2.40474C40.3515 3.17474 41.0315 4.84474 42.5715 5.89474C43.0367 6.27881 43.5892 6.54261 44.1803 6.66293C44.7715 6.78325 45.3832 6.7564 45.9615 6.58474C46.4819 6.28061 46.9199 5.85363 47.2372 5.34111C47.5544 4.8286 47.7413 4.24617 47.7815 3.64474C48.0815 1.80474 47.4615 0.18474 46.4215 0.0147395Z" fill="#FFC5D2"/>
<path d="M29.5015 59.9447C30.2784 62.3495 30.6435 64.8683 30.5815 67.3947C30.5815 67.9147 30.4215 68.5247 30.4015 69.6547C30.4015 71.0447 30.5215 71.6547 30.2415 71.7847C29.9615 71.9147 29.5915 71.6147 28.2415 70.3247C27.1115 69.2647 26.5515 68.7347 26.1815 68.3247C24.7302 66.7347 23.3936 65.0438 22.1815 63.2647C19.5715 58.9847 18.7915 51.3947 20.7915 50.5347C22.7915 49.6747 27.8115 54.9847 29.5015 59.9447Z" fill="#E3E3FD"/>
<path d="M30.2715 72.0347C30.2326 72.0347 30.1944 72.0257 30.1597 72.0084C30.1249 71.991 30.0947 71.9658 30.0715 71.9347C25.3419 65.6006 22.0892 58.2888 20.5515 50.5347C20.5442 50.5025 20.5437 50.469 20.5501 50.4366C20.5564 50.4041 20.5693 50.3733 20.5881 50.346C20.6069 50.3188 20.6311 50.2958 20.6592 50.2783C20.6873 50.2609 20.7187 50.2495 20.7515 50.2447C20.815 50.2328 20.8807 50.2459 20.9347 50.2813C20.9888 50.3167 21.0271 50.3717 21.0415 50.4347C22.5618 58.1117 25.7729 65.3537 30.4415 71.6347C30.4794 71.6902 30.4953 71.7578 30.4861 71.8244C30.4769 71.891 30.4431 71.9517 30.3915 71.9947C30.3554 72.0178 30.3141 72.0315 30.2715 72.0347Z" fill="#BBBBF9"/>
<path d="M19.1915 58.8047C22.2922 60.9989 24.9974 63.7041 27.1915 66.8047C27.6015 67.4647 28.0015 68.2947 28.9815 69.6847C30.2015 71.3847 30.9215 71.9647 30.7115 72.3947C30.5015 72.8247 29.7715 72.7547 26.9915 72.3947C24.6815 72.1247 23.5315 71.9847 22.7215 71.8147C19.5621 71.1932 16.4509 70.3478 13.4115 69.2847C6.37149 66.5347 -1.34851 58.0947 0.271489 55.1947C1.89149 52.2947 12.7115 54.3347 19.1915 58.8047Z" fill="#5B98E8"/>
<path d="M30.6815 72.6547H30.6115C25.5517 71.1522 20.6568 69.142 16.0015 66.6547C10.2474 63.5687 4.89686 59.7834 0.0714626 55.3847C0.0256559 55.338 0 55.2752 0 55.2097C0 55.1443 0.0256559 55.0815 0.0714626 55.0347C0.119876 54.9883 0.184371 54.9624 0.251463 54.9624C0.318555 54.9624 0.38305 54.9883 0.431463 55.0347C5.2369 59.378 10.5566 63.1158 16.2715 66.1647C20.9001 68.6422 25.7641 70.6522 30.7915 72.1647C30.823 72.1739 30.8524 72.1892 30.878 72.2098C30.9036 72.2304 30.9249 72.2557 30.9407 72.2845C30.9565 72.3133 30.9664 72.3449 30.97 72.3776C30.9736 72.4102 30.9707 72.4432 30.9615 72.4747C30.945 72.5339 30.9074 72.5849 30.8558 72.6181C30.8041 72.6513 30.7421 72.6643 30.6815 72.6547Z" fill="#BBBBF9"/>
<path d="M37.4914 55.8547C34.8207 58.5467 32.6292 61.675 31.0114 65.1047C30.6386 66.1726 30.2114 67.2206 29.7314 68.2447C28.8214 70.1347 28.2214 70.8347 28.5014 71.2447C28.7814 71.6547 29.5014 71.4447 32.1714 70.6447C34.3914 69.9747 35.5114 69.6447 36.2714 69.3447C39.2782 68.1906 42.1989 66.8238 45.0114 65.2547C51.4514 61.2547 57.6114 51.6647 55.5514 49.0847C53.4914 46.5047 43.1114 50.3447 37.4914 55.8547Z" fill="#5B98E8"/>
<path d="M28.5014 71.4647C28.4537 71.4658 28.4067 71.4532 28.366 71.4283C28.3252 71.4035 28.2924 71.3676 28.2714 71.3247C28.2429 71.2647 28.2383 71.1961 28.2588 71.1328C28.2792 71.0696 28.3231 71.0166 28.3814 70.9847C33.0786 68.6395 37.5306 65.8323 41.6714 62.6047C46.7724 58.6122 51.3664 54.0115 55.3514 48.9047C55.3739 48.8808 55.401 48.8618 55.4311 48.8487C55.4612 48.8357 55.4936 48.829 55.5264 48.829C55.5592 48.829 55.5917 48.8357 55.6218 48.8487C55.6519 48.8618 55.679 48.8808 55.7014 48.9047C55.7473 48.9515 55.7729 49.0143 55.7729 49.0797C55.7729 49.1452 55.7473 49.208 55.7014 49.2547C51.7008 54.3763 47.0901 58.9904 41.9714 62.9947C37.8091 66.2443 33.3337 69.0716 28.6114 71.4347L28.5014 71.4647Z" fill="#BBBBF9"/>
<path d="M38.8914 69.2447C39.0256 69.129 39.134 68.9865 39.2098 68.8263C39.2856 68.6661 39.327 68.4919 39.3314 68.3147C39.3036 67.9857 39.168 67.6751 38.9456 67.431C38.7232 67.1869 38.4265 67.023 38.1014 66.9647C38.2008 66.8422 38.2602 66.6921 38.2714 66.5347C38.2714 66.1647 37.9714 65.8247 37.4814 65.5347C37.4581 65.0883 37.3086 64.6578 37.0501 64.2931C36.7916 63.9284 36.4349 63.6446 36.0214 63.4747C35.953 63.1652 35.7809 62.8884 35.5335 62.6901C35.2861 62.4918 34.9784 62.3841 34.6614 62.3847C34.3923 62.384 34.1286 62.4604 33.9014 62.6047C33.5914 61.7447 33.1014 61.1847 32.5514 61.1847C32.0014 61.1847 31.6414 61.6047 31.3314 62.2747C31.0855 62.1662 30.8202 62.1084 30.5514 62.1047C30.1684 62.1058 29.7949 62.2245 29.4814 62.4447C29.3145 62.404 29.1432 62.3838 28.9714 62.3847C28.0914 62.3847 27.3814 62.8747 27.3814 63.4747C27.386 63.5707 27.4063 63.6653 27.4414 63.7547C26.8835 63.9791 26.4034 64.3619 26.0604 64.8559C25.7174 65.3499 25.5266 65.9335 25.5114 66.5347C25.5154 66.7575 25.5457 66.979 25.6014 67.1947C25.2744 67.3769 25.0292 67.677 24.9158 68.0338C24.8025 68.3906 24.8295 68.7772 24.9914 69.1147C24.9914 69.1147 24.9914 69.1147 25.0414 69.1747C24.9486 69.2508 24.8724 69.345 24.8174 69.4517C24.7623 69.5583 24.7297 69.675 24.7214 69.7947C24.7214 70.1547 25.0314 70.4847 25.5414 70.7347C25.5365 70.8247 25.5365 70.9148 25.5414 71.0047C25.5414 71.506 25.7406 71.9867 26.095 72.3412C26.4494 72.6956 26.9302 72.8947 27.4314 72.8947C27.5314 72.8947 27.6314 72.8947 27.7314 72.8947C27.8114 74.4247 28.5814 75.6247 29.5314 75.6247C29.7523 75.6114 29.9671 75.5476 30.1595 75.4384C30.3519 75.3292 30.5167 75.1775 30.6414 74.9947C31.0248 75.0846 31.4267 75.0532 31.7914 74.9047C32.2854 75.3723 32.9413 75.6304 33.6214 75.6247C33.9281 75.6451 34.2357 75.6049 34.5268 75.5063C34.8179 75.4078 35.0867 75.2529 35.318 75.0505C35.5492 74.848 35.7383 74.602 35.8744 74.3265C36.0106 74.051 36.0911 73.7514 36.1114 73.4447C36.1156 73.3715 36.1156 73.298 36.1114 73.2247C36.4595 73.3715 36.8337 73.4464 37.2114 73.4447C38.4214 73.4447 39.3914 72.7547 39.3914 71.8947C39.3909 71.6798 39.3322 71.469 39.2214 71.2847C39.3331 71.0434 39.3911 70.7807 39.3914 70.5147C39.3917 70.0433 39.213 69.5894 38.8914 69.2447Z" fill="#FFC5D2"/>
<path d="M30.4215 67.9147C30.7528 67.9147 31.0215 67.6461 31.0215 67.3147C31.0215 66.9834 30.7528 66.7147 30.4215 66.7147C30.0901 66.7147 29.8215 66.9834 29.8215 67.3147C29.8215 67.6461 30.0901 67.9147 30.4215 67.9147Z" fill="#122275"/>
<path d="M29.5314 70.3447C29.3337 70.3447 29.1403 70.2861 28.9759 70.1762C28.8114 70.0663 28.6832 69.9101 28.6076 69.7274C28.5319 69.5447 28.5121 69.3436 28.5506 69.1496C28.5892 68.9557 28.6845 68.7775 28.8243 68.6376C28.9642 68.4978 29.1424 68.4025 29.3363 68.3639C29.5303 68.3254 29.7314 68.3452 29.9141 68.4209C30.0968 68.4965 30.253 68.6247 30.3629 68.7892C30.4728 68.9536 30.5314 69.1469 30.5314 69.3447C30.5314 69.6099 30.4261 69.8643 30.2385 70.0518C30.051 70.2394 29.7966 70.3447 29.5314 70.3447Z" fill="#122275"/>
<path d="M33.2114 71.6347C34.0343 71.6347 34.7014 70.9676 34.7014 70.1447C34.7014 69.3218 34.0343 68.6547 33.2114 68.6547C32.3885 68.6547 31.7214 69.3218 31.7214 70.1447C31.7214 70.9676 32.3885 71.6347 33.2114 71.6347Z" fill="#122275"/>
<path d="M33.2115 66.9047C33.2225 66.9893 33.2153 67.0753 33.1904 67.1569C33.1655 67.2386 33.1236 67.3139 33.0672 67.378C33.0109 67.4421 32.9416 67.4935 32.8639 67.5287C32.7861 67.5638 32.7018 67.582 32.6165 67.582C32.5312 67.582 32.4468 67.5638 32.3691 67.5287C32.2914 67.4935 32.222 67.4421 32.1657 67.378C32.1094 67.3139 32.0674 67.2386 32.0425 67.1569C32.0177 67.0753 32.0105 66.9893 32.0215 66.9047C32.0403 66.7602 32.111 66.6275 32.2205 66.5313C32.33 66.4351 32.4707 66.382 32.6165 66.382C32.7622 66.382 32.903 66.4351 33.0125 66.5313C33.122 66.6275 33.1927 66.7602 33.2115 66.9047Z" fill="#122275"/>
<path d="M35.8315 66.1947C35.8315 66.4538 35.7547 66.7071 35.6107 66.9225C35.4668 67.138 35.2622 67.3059 35.0228 67.405C34.7834 67.5042 34.52 67.5301 34.2659 67.4796C34.0118 67.429 33.7784 67.3043 33.5952 67.121C33.412 66.9378 33.2872 66.7044 33.2367 66.4503C33.1861 66.1962 33.2121 65.9328 33.3112 65.6934C33.4104 65.454 33.5783 65.2495 33.7937 65.1055C34.0091 64.9616 34.2624 64.8847 34.5215 64.8847C34.8689 64.8847 35.2021 65.0228 35.4478 65.2684C35.6935 65.5141 35.8315 65.8473 35.8315 66.1947Z" fill="#122275"/>
<path d="M31.6814 68.2147C31.6814 68.3037 31.655 68.3907 31.6056 68.4647C31.5561 68.5387 31.4859 68.5964 31.4036 68.6305C31.3214 68.6645 31.2309 68.6735 31.1436 68.6561C31.0563 68.6387 30.9762 68.5959 30.9132 68.5329C30.8503 68.47 30.8074 68.3898 30.7901 68.3025C30.7727 68.2152 30.7816 68.1248 30.8157 68.0425C30.8497 67.9603 30.9074 67.89 30.9814 67.8406C31.0554 67.7911 31.1424 67.7647 31.2314 67.7647C31.3508 67.7647 31.4652 67.8121 31.5496 67.8965C31.634 67.9809 31.6814 68.0954 31.6814 68.2147Z" fill="#122275"/>
<path d="M34.1515 68.3747C34.1515 68.4677 34.1239 68.5586 34.0723 68.6359C34.0206 68.7131 33.9472 68.7734 33.8613 68.809C33.7755 68.8445 33.681 68.8538 33.5898 68.8357C33.4986 68.8176 33.4149 68.7728 33.3491 68.7071C33.2834 68.6413 33.2387 68.5576 33.2205 68.4664C33.2024 68.3753 33.2117 68.2808 33.2473 68.1949C33.2828 68.109 33.3431 68.0356 33.4204 67.9839C33.4977 67.9323 33.5885 67.9047 33.6815 67.9047C33.8061 67.9047 33.9257 67.9543 34.0138 68.0424C34.102 68.1305 34.1515 68.2501 34.1515 68.3747Z" fill="#122275"/>
<path d="M32.2114 65.6347C32.2114 65.8127 32.1587 65.9867 32.0598 66.1348C31.9609 66.2828 31.8203 66.3981 31.6559 66.4662C31.4914 66.5343 31.3104 66.5522 31.1359 66.5174C30.9613 66.4827 30.8009 66.397 30.675 66.2711C30.5492 66.1453 30.4635 65.9849 30.4287 65.8103C30.394 65.6357 30.4118 65.4548 30.4799 65.2903C30.5481 65.1259 30.6634 64.9853 30.8114 64.8864C30.9594 64.7875 31.1334 64.7347 31.3114 64.7347C31.5501 64.7347 31.7791 64.8296 31.9478 64.9983C32.1166 65.1671 32.2114 65.396 32.2114 65.6347Z" fill="#122275"/>
<path d="M19.1815 14.1947C20.6515 17.0247 26.2415 15.0647 35.3915 17.8647C36.9771 18.3487 38.5302 18.9332 40.0415 19.6147L51.6215 21.9947L55.0615 22.5047L73.2715 25.1847C73.608 25.071 73.9184 24.8912 74.1845 24.656C74.4507 24.4207 74.6672 24.1347 74.8215 23.8147C75.0228 23.2809 75.055 22.698 74.9137 22.1452C74.7723 21.5924 74.4643 21.0965 74.0315 20.7247L56.4515 16.0647L53.0615 15.1547L41.8315 12.6047C40.0137 12.6277 38.1964 12.5308 36.3915 12.3147C35.0952 12.1977 33.8108 11.9736 32.5515 11.6447C30.3015 11.0147 29.8815 10.4447 27.8915 9.69474C25.6815 8.85474 22.5915 7.69474 20.7015 9.00474C19.2715 9.99474 18.3215 12.5347 19.1815 14.1947Z" fill="#3F469A"/>
<path d="M19.1815 14.1947C20.6515 17.0247 26.2415 15.0647 35.3915 17.8647C36.9771 18.3487 38.5302 18.9332 40.0415 19.6147L51.6215 21.9947L55.0615 22.5047C55.5215 20.3547 55.9915 18.2047 56.4515 16.0647L53.0615 15.1547L41.8315 12.6047C40.0137 12.6277 38.1964 12.5308 36.3915 12.3147C35.0952 12.1977 33.8108 11.9736 32.5515 11.6447C30.3015 11.0147 29.8815 10.4447 27.8915 9.69474C25.6815 8.85474 22.5915 7.69474 20.7015 9.00474C19.2715 9.99474 18.3215 12.5347 19.1815 14.1947Z" fill="#E3E3FD"/>
<path d="M54.0846 22.9628L55.9221 23.3601L57.6423 15.4039L55.8048 15.0066L54.0846 22.9628Z" fill="#3F469A"/>
<path d="M41.7006 18.1863L49.29 19.8981L50.1766 15.9668L42.5873 14.2551L41.7006 18.1863Z" fill="white"/>
<path d="M42.2021 18.0534L48.8843 19.5605L49.6631 16.1073L42.981 14.6002L42.2021 18.0534Z" fill="#E3E3FD"/>
<path d="M46.8397 18.5986L47.3177 18.7064L47.8787 16.2188L47.4007 16.111L46.8397 18.5986Z" fill="#3F469A"/>
<path d="M43.9766 17.9519L44.4546 18.0597L45.0156 15.5722L44.5376 15.4644L43.9766 17.9519Z" fill="#3F469A"/>
<path d="M31.0715 47.6047L17.9615 40.1747L17.1815 24.7247C20.4662 21.299 23.3236 17.4879 25.6915 13.3747C28.1815 9.02475 30.1815 4.16475 31.3615 4.47475C31.7815 4.58475 31.9615 5.30474 32.0515 5.94474C32.55 7.02981 32.8869 8.18204 33.0515 9.36475C33.8515 15.7447 29.0515 20.7047 28.0515 21.6847C29.5192 25.0675 30.567 28.6172 31.1715 32.2547C32.012 37.3398 31.9782 42.5311 31.0715 47.6047Z" fill="#FF8C64"/>
<path d="M21.6115 37.8347C21.529 37.8313 21.4502 37.7996 21.3883 37.745C21.3264 37.6904 21.2851 37.6161 21.2715 37.5347C20.8315 35.8947 20.4615 34.2047 20.1615 32.5347C19.3415 27.9447 18.9315 25.6347 19.6015 22.9647C20.2857 20.4629 21.674 18.2103 23.6015 16.4747C23.6353 16.4313 23.6782 16.3957 23.7271 16.3704C23.7761 16.3452 23.8299 16.3308 23.8849 16.3285C23.94 16.3261 23.9949 16.3357 24.0458 16.3566C24.0968 16.3776 24.1425 16.4093 24.18 16.4497C24.2175 16.4901 24.2457 16.5382 24.2627 16.5905C24.2798 16.6429 24.2852 16.6984 24.2787 16.7531C24.2722 16.8078 24.2538 16.8604 24.225 16.9073C24.1961 16.9542 24.1574 16.9943 24.1115 17.0247C22.2668 18.6507 20.933 20.7765 20.2715 23.1447C19.6415 25.6647 20.0415 27.9147 20.8415 32.4047C21.1415 34.0747 21.5015 35.7447 21.9315 37.4047C21.9563 37.5002 21.943 37.6015 21.8945 37.6873C21.846 37.7732 21.766 37.8368 21.6715 37.8647L21.6115 37.8347Z" fill="#EA522F"/>
<path d="M31.1715 32.4547C31.0905 32.4539 31.012 32.4273 30.9472 32.3788C30.8824 32.3302 30.8349 32.2622 30.8115 32.1847L27.7515 22.0447C27.7233 21.9493 27.7337 21.8465 27.7804 21.7586C27.8272 21.6708 27.9065 21.6047 28.0015 21.5747C28.0487 21.5594 28.0986 21.5537 28.1481 21.5581C28.1976 21.5624 28.2457 21.5766 28.2895 21.6C28.3334 21.6233 28.3721 21.6552 28.4034 21.6939C28.4346 21.7325 28.4578 21.777 28.4715 21.8247L31.5315 31.9647C31.5597 32.0602 31.5493 32.1629 31.5025 32.2508C31.4558 32.3387 31.3764 32.4048 31.2815 32.4347L31.1715 32.4547Z" fill="#EA522F"/>
<path d="M31.2715 9.98474L28.4615 9.12474L30.4615 4.40474C30.5815 4.22474 31.1015 3.48474 31.5815 3.57474C32.0615 3.66474 32.4615 4.64474 32.3815 6.02474C32.0215 7.34474 31.6415 8.66474 31.2715 9.98474Z" fill="#FFC5D2"/>
<path d="M28.1115 22.3047C28.0235 22.3034 27.9386 22.2716 27.8715 22.2147C27.8361 22.1803 27.808 22.1391 27.7888 22.0935C27.7696 22.048 27.7597 21.9991 27.7597 21.9497C27.7597 21.9003 27.7696 21.8514 27.7888 21.8059C27.808 21.7604 27.8361 21.7192 27.8715 21.6847L29.6915 19.5947C29.7206 19.5485 29.7593 19.5091 29.8051 19.4792C29.8508 19.4492 29.9025 19.4295 29.9565 19.4214C30.0105 19.4133 30.0657 19.4169 30.1182 19.432C30.1707 19.4471 30.2194 19.4734 30.2608 19.509C30.3022 19.5446 30.3355 19.5888 30.3583 19.6384C30.3812 19.6881 30.393 19.7421 30.3931 19.7967C30.3931 19.8514 30.3814 19.9054 30.3587 19.9551C30.336 20.0048 30.3028 20.049 30.2615 20.0847L28.4415 22.1747C28.4018 22.2223 28.3507 22.2591 28.2931 22.2819C28.2354 22.3046 28.173 22.3124 28.1115 22.3047Z" fill="#EA522F"/>
</svg>
