<svg width="91" height="83" viewBox="0 0 91 83" fill="none" xmlns="http://www.w3.org/2000/svg">
<path d="M63.38 80.21H73.32C73.4833 79.7131 73.4833 79.1769 73.32 78.68C73.256 78.5188 73.1756 78.3647 73.08 78.22C72.6695 77.4872 72.4174 76.6764 72.34 75.84L70.54 75.64C68.26 78.7 66.98 79.31 66.21 79.27C65.68 79.27 65.16 79.53 64.62 79.54C64.27 79.54 63.85 79.54 63.62 79.79C63.4952 79.8992 63.4107 80.0471 63.38 80.21Z" fill="#FF8C64"/>
<path d="M79.21 80.21H89.15C89.2557 79.8763 89.2844 79.5231 89.2342 79.1768C89.184 78.8304 89.0561 78.4999 88.86 78.21C88.4495 77.4772 88.1974 76.6664 88.12 75.83L86.32 75.63C84.04 78.69 82.76 79.3 81.99 79.26C81.45 79.26 80.94 79.52 80.4 79.53C80.05 79.53 79.63 79.53 79.4 79.78C79.2916 79.8989 79.2249 80.0498 79.21 80.21Z" fill="#FF8C64"/>
<path d="M61.08 9.8L62.77 11.34L65.48 13.85L69.24 9.91L62.97 5.34C62.7108 6.27221 62.3763 7.18187 61.97 8.06C61.7085 8.65731 61.4113 9.23835 61.08 9.8Z" fill="#FF8C64"/>
<path d="M61.08 9.8L62.77 11.34C63.46 10.58 63.12 9.12 62.01 8.06C61.67 8.64 61.38 9.22 61.08 9.8Z" fill="#122275"/>
<path d="M79.12 31.34L72.07 38.61C70.15 34.93 68.2334 31.23 66.32 27.51C65.28 25.51 64.25 23.51 63.23 21.51C62.7226 21.0298 62.303 20.4646 61.99 19.84C61.8589 18.9362 61.8054 18.0229 61.83 17.11C61.8489 15.666 62.0199 14.2281 62.34 12.82C62.51 12.46 62.68 12.14 62.83 11.82C63.0341 11.4431 63.2612 11.079 63.51 10.73L65.79 9.08999L66.93 8.26999C67.5262 8.51868 68.0957 8.82691 68.63 9.18999C69.5026 9.84813 70.2948 10.6067 70.99 11.45C72.5985 13.7997 73.8269 16.3881 74.63 19.12C76.13 23.1933 77.6267 27.2667 79.12 31.34Z" fill="#FF8C64"/>
<path d="M75.32 42.36C78.0041 42.36 80.18 39.7274 80.18 36.48C80.18 33.2326 78.0041 30.6 75.32 30.6C72.6359 30.6 70.46 33.2326 70.46 36.48C70.46 39.7274 72.6359 42.36 75.32 42.36Z" fill="#FF8C64"/>
<path d="M71.47 53.96C71.34 57.1 71.95 59.61 72.96 59.84C73.97 60.07 75.89 57.75 77.1 53.93L79.8 37.83L70.67 35.24C70.173 37.2634 69.8683 39.3293 69.76 41.41C69.5413 45.6634 70.1213 49.9202 71.47 53.96Z" fill="#FF8C64"/>
<path d="M73.17 37.72C73.71 40.92 76.29 43.16 78.94 42.72C81.59 42.28 83.29 39.32 82.75 36.12C82.21 32.92 79.63 30.69 76.98 31.12C74.33 31.55 72.67 34.52 73.17 37.72Z" fill="#FF8C64"/>
<path d="M78.91 55.08C79.81 58.08 81.2 60.27 82.24 60.15C83.28 60.03 84.32 57.22 84.24 53.21C83.34 47.8767 82.4367 42.51 81.53 37.11L72.07 37.65C72.6625 43.9918 75.0412 50.0356 78.93 55.08H78.91Z" fill="#FF8C64"/>
<path d="M69.84 76.67L72.32 77.13C73.5242 74.8562 74.6057 72.5195 75.56 70.13C77.96 64.13 77.72 62.24 77.56 61.41C77.329 60.5142 77.1487 59.6061 77.02 58.69C76.8375 57.2535 76.8174 55.801 76.96 54.36L72.14 58.96C72.14 60.02 72.14 61.12 72.14 62.24C71.9721 67.1265 71.1995 71.9734 69.84 76.67Z" fill="#FF8C64"/>
<path d="M85.51 76.73L87.99 76.26C88.2987 73.7178 88.469 71.1607 88.5 68.6C88.57 62.12 87.68 60.46 87.22 59.75C86.682 58.9991 86.1879 58.2178 85.74 57.41C85.0529 56.1411 84.5096 54.7994 84.12 53.41L81.28 59.41C81.69 60.41 82.08 61.41 82.45 62.48C84.0472 67.0875 85.0748 71.873 85.51 76.73Z" fill="#FF8C64"/>
<path d="M61.84 9.79001C62.7943 8.30512 63.24 6.55029 63.11 4.79001C63.075 4.07271 62.87 3.37402 62.5118 2.75157C62.1536 2.12911 61.6526 1.60074 61.05 1.21002C60.4928 0.890994 59.8711 0.701113 59.2307 0.654383C58.5903 0.607653 57.9476 0.705262 57.35 0.940012C55.21 1.77001 54.15 4.27002 54.55 5.53002C54.6133 5.71548 54.6971 5.89325 54.8 6.06001C55.59 7.23001 55.95 7.76001 55.96 7.79001C55.9697 7.82574 55.9908 7.85735 56.02 7.88001C56.0465 7.88431 56.0735 7.88431 56.1 7.88001L56.6 8.15001C57.43 9.02001 57.77 9.40002 57.86 9.53002C58 9.74002 58.08 9.85002 58.19 9.89002C58.3 9.93002 58.25 9.89001 58.26 9.95001C58.27 10.01 58.21 10.05 58.26 10.1C58.31 10.15 58.46 10.2 58.49 10.2C58.52 10.2 58.79 10.2 58.89 10.07C58.902 10.0275 58.902 9.98252 58.89 9.94001C58.89 9.94001 58.75 10.26 58.84 10.35C58.8859 10.3623 58.9342 10.3623 58.98 10.35C59.0194 10.3598 59.0606 10.3598 59.1 10.35C59.25 10.35 59.6 11.06 59.9 11.2C60.2 11.34 61.24 10.68 61.84 9.79001Z" fill="#FF8C64"/>
<path d="M57.04 9.84C57.1102 9.88563 57.1895 9.91551 57.2723 9.9276C57.3552 9.93968 57.4397 9.93368 57.52 9.91C57.702 9.88009 57.868 9.78824 57.99 9.65C58.0111 9.5428 57.9896 9.4316 57.93 9.34C57.87 9.26 57.78 9.26 57.68 9.19C57.576 9.11225 57.4991 9.00382 57.46 8.88L56.53 8.07001L56.73 8.7C56.89 9.18 56.9 9.19001 56.93 9.32001C56.99 9.63001 56.94 9.74 57.04 9.84Z" fill="#FF8C64"/>
<path d="M56.81 7.75L56.42 7.63C56.4037 7.62556 56.3885 7.61773 56.3755 7.60703C56.3624 7.59632 56.3518 7.58299 56.3442 7.56789C56.3367 7.55279 56.3324 7.53626 56.3317 7.51939C56.3309 7.50253 56.3338 7.48569 56.34 7.46999C56.3514 7.43871 56.3743 7.41299 56.404 7.3981C56.4338 7.38322 56.4681 7.38032 56.5 7.39L56.77 7.48C56.9075 7.32408 57.058 7.18022 57.22 7.05C57.4642 6.84988 57.7331 6.68184 58.02 6.55C58.0345 6.54343 58.05 6.53978 58.0659 6.53924C58.0818 6.5387 58.0976 6.54129 58.1124 6.54686C58.1273 6.55243 58.1409 6.56088 58.1525 6.57171C58.1641 6.58254 58.1734 6.59555 58.18 6.60999C58.1866 6.62444 58.1902 6.64004 58.1908 6.6559C58.1913 6.67176 58.1887 6.68757 58.1831 6.70242C58.1776 6.71728 58.1691 6.7309 58.1583 6.74249C58.1475 6.75409 58.1345 6.76343 58.12 6.77C57.8583 6.9017 57.6104 7.05914 57.38 7.24C57.2112 7.38047 57.0541 7.5343 56.91 7.7C56.8977 7.71475 56.8824 7.72681 56.8652 7.73541C56.848 7.74402 56.8292 7.74898 56.81 7.75Z" fill="#122275"/>
<path d="M57.01 7.89C57.0455 7.92721 57.0882 7.95683 57.1354 7.97707C57.1827 7.99731 57.2336 8.00774 57.285 8.00774C57.3364 8.00774 57.3873 7.99731 57.4346 7.97707C57.4819 7.95683 57.5245 7.92721 57.56 7.89C57.6333 7.81523 57.6743 7.71469 57.6743 7.60999C57.6743 7.50529 57.6333 7.40477 57.56 7.32999C57.487 7.25733 57.3881 7.21654 57.285 7.21654C57.1819 7.21654 57.0831 7.25733 57.01 7.32999C56.9725 7.36635 56.9427 7.40987 56.9223 7.45797C56.902 7.50607 56.8915 7.55776 56.8915 7.60999C56.8915 7.66222 56.902 7.71393 56.9223 7.76202C56.9427 7.81012 56.9725 7.85364 57.01 7.89Z" fill="#122275"/>
<path d="M57.74 5.93C57.6173 5.95711 57.4969 5.99389 57.38 6.04C56.879 6.34423 56.4157 6.70676 56 7.12001C55.8607 7.05395 55.7429 6.94998 55.66 6.82001C55.5971 6.69888 55.5597 6.56615 55.55 6.43C55.9181 6.25554 56.2695 6.04802 56.6 5.81001C56.8099 5.65365 57.0474 5.53829 57.3 5.47C57.4017 5.44375 57.5083 5.44375 57.61 5.47C57.8504 5.51723 58.0624 5.65738 58.2 5.86C58.0456 5.87523 57.892 5.89859 57.74 5.93Z" fill="#122275"/>
<path d="M58.89 10.27C58.8643 10.27 58.8392 10.2624 58.8179 10.2482C58.7965 10.2339 58.7799 10.2137 58.77 10.19C58.7638 10.1743 58.761 10.1575 58.7617 10.1406C58.7624 10.1237 58.7667 10.1072 58.7742 10.0921C58.7818 10.077 58.7924 10.0637 58.8055 10.053C58.8186 10.0423 58.8337 10.0344 58.85 10.03C59.0017 9.96659 59.1331 9.86283 59.23 9.73C59.3388 9.56859 59.385 9.37304 59.36 9.18C59.3572 9.16346 59.3578 9.14652 59.362 9.13025C59.3661 9.11399 59.3736 9.09877 59.3839 9.08557C59.3943 9.07238 59.4073 9.06151 59.4221 9.05366C59.437 9.04581 59.4533 9.04115 59.47 9.04C59.4865 9.03716 59.5035 9.03782 59.5198 9.04194C59.536 9.04606 59.5512 9.05355 59.5644 9.06391C59.5776 9.07428 59.5885 9.08729 59.5963 9.10212C59.6042 9.11695 59.6088 9.13326 59.61 9.15C59.6446 9.4042 59.5801 9.66197 59.43 9.87C59.3101 10.0508 59.1346 10.1877 58.93 10.26L58.89 10.27Z" fill="#EA522F"/>
<path d="M53.61 33.55C53.43 36.45 53.22 36.14 53.3 37C53.57 39.83 55.55 40.41 55.42 42.64C55.3693 43.2274 55.1963 43.7978 54.9121 44.3144C54.628 44.831 54.2389 45.2826 53.77 45.64C51.77 47.12 48.33 46.05 46.41 44.55C41.71 40.86 43.5 32.55 43.9 30.64C44.79 26.51 47.4 20.21 50.39 20.35C52.3 20.44 54.3 23.12 54.48 25.44C54.54 26.36 54.26 26.44 53.77 29.75C53.56 31.19 53.75 31.44 53.61 33.55Z" fill="#3F469A"/>
<path d="M35.85 49.94H34.66C33.8293 46.5325 33.6025 43.0058 33.99 39.52C34.1131 38.3685 34.3102 37.2262 34.58 36.1L37.58 37.1C37.6316 37.8358 37.6316 38.5742 37.58 39.31C37.33 43.05 35.9 44.66 35.79 48.31C35.7789 48.854 35.799 49.3983 35.85 49.94Z" fill="#FF8C64"/>
<path d="M45.33 50.8C44.9829 50.5762 44.649 50.3324 44.33 50.07C44.0856 49.8526 43.8793 49.5957 43.72 49.31C43.6823 49.257 43.6558 49.1968 43.642 49.1332C43.6283 49.0696 43.6276 49.0039 43.64 48.94C43.7 48.76 43.85 48.54 43.85 48.47C43.85 48.4 43.85 48.32 43.96 48.31C44.07 48.3 44.32 48.04 44.39 48.03C44.7496 48.0066 45.0863 47.8454 45.33 47.58L45.48 47.4L45.57 47.31C45.7526 47.1496 45.9674 47.0303 46.2 46.96C46.4932 46.8644 46.803 46.8303 47.11 46.86C47.4973 46.8887 47.8701 47.0198 48.19 47.24C48.6105 47.5234 48.925 47.9383 49.0843 48.4197C49.2436 48.9011 49.2385 49.4218 49.07 49.9C48.8304 50.3023 48.4677 50.6168 48.0354 50.797C47.6032 50.9771 47.1244 51.0132 46.67 50.9C46.4345 50.8043 46.1841 50.7502 45.93 50.74C45.7281 50.7296 45.5258 50.7498 45.33 50.8Z" fill="#FF8C64"/>
<path d="M44.72 48.26C44.7295 48.2104 44.7295 48.1596 44.72 48.11C44.72 48.04 44.72 48.03 44.67 47.97C44.6586 47.924 44.6586 47.876 44.67 47.83C44.67 47.83 44.67 47.76 44.78 47.74C44.8482 47.7178 44.9218 47.7178 44.99 47.74C45.1595 47.7918 45.3405 47.7918 45.51 47.74L45.16 48.07L44.72 48.26Z" fill="#FF8C64"/>
<path d="M52.42 51.7C52.259 52.4398 51.9152 53.1274 51.42 53.7C49.58 55.7 44.86 54.46 40.64 54.02C31.84 53.08 26.73 55.67 26.12 54.09C25.7 53 27.89 51.04 29.64 50.02C32.64 48.28 34.44 49.24 40.37 48.85C47.06 48.4 50.37 46.79 51.8 48.61C52.4019 49.5197 52.6244 50.6286 52.42 51.7Z" fill="#FFC5D2"/>
<path d="M43.92 51.79C44.11 52.44 43.98 52.99 43.68 53.15C43.38 53.31 42.84 52.96 42.59 52.72C42.3433 52.4429 42.147 52.1248 42.01 51.78L41.54 50.83C41.67 49.83 41.79 48.83 41.91 47.83H43.2C43.7323 48.3163 44.1082 48.9498 44.28 49.65C44.28 49.73 44.45 50.41 44.28 50.49C44.11 50.57 43.73 50.06 43.42 49.59L43.92 51.79Z" fill="#FF8C64"/>
<path d="M38.51 25.66C38.27 28.4933 38.0267 31.3267 37.78 34.16C37.7 35.16 37.61 36.09 37.53 37.06L34.58 36.06C34.53 35.64 34.48 35.21 34.45 34.77C34.42 34.33 34.45 34.13 34.39 33.77C34.2894 31.9865 34.3262 30.1979 34.5 28.42C34.61 27.25 34.77 26.16 34.97 25.14C35.2714 24.8514 35.6448 24.649 36.0511 24.554C36.4575 24.459 36.8819 24.4749 37.28 24.6C37.8076 24.7879 38.2462 25.1659 38.51 25.66Z" fill="#FF8C64"/>
<path d="M37.77 34.16C36.66 34.36 35.55 34.55 34.45 34.76C34.45 34.44 34.45 34.12 34.39 33.76C35.52 33.9 36.67 34.03 37.77 34.16Z" fill="#122275"/>
<path d="M37.78 34.15L33.18 33.97C33.44 31.28 33.69 28.59 33.95 25.9C34.0961 25.3416 34.4232 24.8474 34.8801 24.4947C35.3369 24.142 35.8978 23.9507 36.475 23.9507C37.0522 23.9507 37.6131 24.142 38.07 24.4947C38.5268 24.8474 38.8539 25.3416 39 25.9C38.59 28.65 38.19 31.4 37.78 34.15Z" fill="#FFC5D2"/>
<path d="M16.67 81.64H26.12C26.2146 81.6028 26.2996 81.5448 26.3688 81.4704C26.4381 81.396 26.4897 81.307 26.52 81.21C26.5472 81.0569 26.5227 80.8991 26.4503 80.7614C26.3778 80.6238 26.2616 80.5142 26.12 80.45C25.361 80.3811 24.6106 80.237 23.88 80.02C22.8665 79.777 21.9114 79.3351 21.07 78.72C20.4172 78.2161 19.8672 77.5914 19.45 76.88L17.21 76.74C17.277 77.8564 17.0274 78.9691 16.49 79.95C16.35 80.17 15.98 80.72 16.17 81.18C16.2779 81.387 16.4548 81.5497 16.67 81.64Z" fill="#FF8C64"/>
<path d="M5.01001 78.51L13.73 82.13C13.8306 82.1317 13.9303 82.111 14.022 82.0695C14.1136 82.028 14.1949 81.9667 14.26 81.89C14.3461 81.7594 14.3859 81.6038 14.3733 81.4479C14.3606 81.2921 14.2961 81.1449 14.19 81.03C13.518 80.6753 12.8817 80.2567 12.29 79.78C11.447 79.1653 10.7334 78.3906 10.19 77.5C9.78435 76.7827 9.51644 75.9958 9.40002 75.18L7.40002 74.18C7.03517 75.2362 6.37591 76.1661 5.5 76.86C5.29 77.02 4.73001 77.38 4.73001 77.86C4.7309 77.9816 4.75614 78.1017 4.80423 78.2133C4.85232 78.325 4.92229 78.4258 5.01001 78.51Z" fill="#FF8C64"/>
<path d="M43.47 48.43L42.31 48.65C40.66 45.5385 39.6021 42.1477 39.19 38.65C39.0417 37.4258 38.9782 36.1929 39 34.96L42.12 35.48C42.3457 36.1803 42.5228 36.8953 42.65 37.62C43.29 41.32 42.28 43.21 43.03 46.76C43.1453 47.3245 43.2922 47.882 43.47 48.43Z" fill="#FF8C64"/>
<path d="M62.99 53.28H0.790009V65.85H62.99V53.28Z" fill="#5B98E8"/>
<path d="M63.04 61.07H0V70.58H63.04V61.07Z" fill="#E3E3FD"/>
<path d="M0.800018 78.16C0.70332 78.1627 0.607048 78.1461 0.516815 78.1112C0.426583 78.0763 0.344198 78.0239 0.274414 77.9569C0.20463 77.8899 0.148842 77.8097 0.110321 77.721C0.0718003 77.6322 0.0513069 77.5367 0.0500183 77.44V31.9C0.0710687 31.7198 0.15756 31.5537 0.29306 31.4331C0.42856 31.3125 0.603614 31.2459 0.785004 31.2459C0.966393 31.2459 1.14148 31.3125 1.27698 31.4331C1.41248 31.5537 1.49897 31.7198 1.52002 31.9V77.44C1.52002 77.631 1.44417 77.8141 1.30914 77.9491C1.17412 78.0841 0.990974 78.16 0.800018 78.16Z" fill="#E3E3FD"/>
<path d="M62.27 78.16C62.173 78.1641 62.0761 78.1484 61.9853 78.114C61.8944 78.0797 61.8115 78.0273 61.7414 77.96C61.6713 77.8928 61.6156 77.812 61.5775 77.7226C61.5395 77.6333 61.5199 77.5371 61.52 77.44V31.9C61.52 31.709 61.5959 31.5259 61.7309 31.3909C61.8659 31.2559 62.0491 31.18 62.24 31.18C62.3367 31.1773 62.433 31.1939 62.5232 31.2288C62.6134 31.2637 62.6958 31.3161 62.7656 31.3831C62.8354 31.4501 62.8912 31.5303 62.9297 31.619C62.9682 31.7078 62.9887 31.8033 62.99 31.9V77.44C62.99 77.5346 62.9714 77.6282 62.9352 77.7155C62.899 77.8029 62.846 77.8823 62.7791 77.9491C62.7123 78.016 62.6329 78.069 62.5455 78.1052C62.4582 78.1414 62.3646 78.16 62.27 78.16Z" fill="#E3E3FD"/>
<path d="M6.32001 63.1C6.23479 63.1041 6.14963 63.0908 6.0697 63.0609C5.98977 63.0311 5.91673 62.9853 5.85501 62.9264C5.7933 62.8675 5.74418 62.7967 5.71066 62.7182C5.67714 62.6398 5.65991 62.5553 5.66 62.47V37.7C5.65998 37.532 5.72603 37.3707 5.8439 37.2509C5.96177 37.1312 6.12201 37.0626 6.29001 37.06C6.37537 37.0587 6.46015 37.0742 6.53952 37.1056C6.61889 37.1371 6.69131 37.1839 6.75259 37.2433C6.81388 37.3027 6.86285 37.3736 6.89673 37.452C6.9306 37.5304 6.94871 37.6146 6.95001 37.7V62.47C6.95001 62.6371 6.88365 62.7973 6.7655 62.9155C6.64736 63.0336 6.48709 63.1 6.32001 63.1Z" fill="#E3E3FD"/>
<path d="M12.67 63.1C12.5851 63.1027 12.5006 63.0884 12.4213 63.0581C12.342 63.0277 12.2695 62.9819 12.208 62.9233C12.1466 62.8646 12.0975 62.7944 12.0635 62.7165C12.0295 62.6387 12.0113 62.5549 12.01 62.47V37.7C12.0296 37.5428 12.106 37.3981 12.2248 37.2932C12.3436 37.1883 12.4965 37.1305 12.655 37.1305C12.8135 37.1305 12.9665 37.1883 13.0852 37.2932C13.204 37.3981 13.2804 37.5428 13.3 37.7V62.47C13.3 62.6371 13.2336 62.7973 13.1155 62.9155C12.9973 63.0336 12.8371 63.1 12.67 63.1Z" fill="#E3E3FD"/>
<path d="M18.77 63.1C18.6848 63.1041 18.5996 63.0908 18.5197 63.0609C18.4398 63.0311 18.3667 62.9853 18.305 62.9264C18.2433 62.8675 18.1942 62.7967 18.1607 62.7182C18.1272 62.6398 18.1099 62.5553 18.11 62.47V37.7C18.11 37.532 18.176 37.3707 18.2939 37.251C18.4118 37.1312 18.572 37.0626 18.74 37.06C18.8257 37.0573 18.9111 37.0719 18.9911 37.1029C19.0711 37.1338 19.144 37.1805 19.2055 37.2402C19.2671 37.2999 19.3161 37.3714 19.3495 37.4504C19.3829 37.5294 19.4001 37.6142 19.4 37.7V62.47C19.4 62.6371 19.3336 62.7973 19.2155 62.9155C19.0973 63.0336 18.9371 63.1 18.77 63.1Z" fill="#E3E3FD"/>
<path d="M25.11 63.1C25.0251 63.1027 24.9406 63.0884 24.8613 63.0581C24.782 63.0277 24.7095 62.9819 24.648 62.9233C24.5866 62.8646 24.5375 62.7944 24.5035 62.7165C24.4695 62.6387 24.4513 62.5549 24.45 62.47V37.7C24.4696 37.5428 24.546 37.3981 24.6648 37.2932C24.7836 37.1883 24.9365 37.1305 25.095 37.1305C25.2535 37.1305 25.4065 37.1883 25.5252 37.2932C25.644 37.3981 25.7204 37.5428 25.74 37.7V62.47C25.74 62.6371 25.6736 62.7973 25.5555 62.9155C25.4373 63.0336 25.2771 63.1 25.11 63.1Z" fill="#E3E3FD"/>
<path d="M31.61 63.1C31.5251 63.1027 31.4406 63.0884 31.3613 63.0581C31.282 63.0277 31.2095 62.9819 31.148 62.9233C31.0866 62.8646 31.0375 62.7944 31.0035 62.7165C30.9695 62.6387 30.9513 62.5549 30.95 62.47V37.7C30.95 37.5276 31.0185 37.3623 31.1404 37.2404C31.2623 37.1185 31.4276 37.05 31.6 37.05C31.7724 37.05 31.9377 37.1185 32.0596 37.2404C32.1815 37.3623 32.25 37.5276 32.25 37.7V62.47C32.2474 62.638 32.1788 62.7982 32.0591 62.9161C31.9393 63.034 31.778 63.1 31.61 63.1Z" fill="#E3E3FD"/>
<path d="M37.95 63.1C37.8656 63.1027 37.7815 63.0884 37.7028 63.0579C37.624 63.0275 37.5522 62.9815 37.4915 62.9227C37.4309 62.8639 37.3827 62.7936 37.3498 62.7158C37.3169 62.638 37.3 62.5544 37.3 62.47V37.7C37.3 37.532 37.366 37.3707 37.4839 37.2509C37.6018 37.1312 37.762 37.0626 37.93 37.06C38.0154 37.0587 38.1002 37.0742 38.1795 37.1056C38.2589 37.1371 38.3313 37.1839 38.3926 37.2433C38.4539 37.3027 38.5029 37.3736 38.5367 37.452C38.5706 37.5304 38.5887 37.6146 38.59 37.7V62.47C38.5874 62.638 38.5188 62.7982 38.399 62.9161C38.2793 63.034 38.118 63.1 37.95 63.1Z" fill="#E3E3FD"/>
<path d="M44.06 63.1C43.9751 63.1027 43.8906 63.0884 43.8112 63.0581C43.7319 63.0277 43.6595 62.9819 43.598 62.9233C43.5366 62.8646 43.4875 62.7944 43.4535 62.7165C43.4195 62.6387 43.4013 62.5549 43.4 62.47V37.7C43.4 37.5276 43.4685 37.3623 43.5904 37.2404C43.7123 37.1185 43.8776 37.05 44.05 37.05C44.2224 37.05 44.3877 37.1185 44.5096 37.2404C44.6315 37.3623 44.7 37.5276 44.7 37.7V62.47C44.6974 62.638 44.6288 62.7982 44.5091 62.9161C44.3893 63.034 44.228 63.1 44.06 63.1Z" fill="#E3E3FD"/>
<path d="M50.41 63.1C50.3248 63.1041 50.2396 63.0908 50.1597 63.0609C50.0798 63.0311 50.0067 62.9853 49.945 62.9264C49.8833 62.8675 49.8342 62.7967 49.8007 62.7182C49.7671 62.6398 49.7499 62.5553 49.75 62.47V37.7C49.75 37.532 49.8161 37.3707 49.9339 37.251C50.0518 37.1312 50.212 37.0626 50.38 37.06C50.4657 37.0573 50.5511 37.0719 50.6311 37.1029C50.711 37.1338 50.784 37.1805 50.8456 37.2402C50.9071 37.2999 50.956 37.3714 50.9894 37.4504C51.0228 37.5294 51.0401 37.6142 51.04 37.7V62.47C51.04 62.6371 50.9736 62.7973 50.8555 62.9155C50.7374 63.0336 50.5771 63.1 50.41 63.1Z" fill="#E3E3FD"/>
<path d="M56.75 63.1C56.6651 63.1027 56.5806 63.0884 56.5013 63.0581C56.4219 63.0277 56.3495 62.9819 56.288 62.9233C56.2266 62.8646 56.1775 62.7944 56.1435 62.7165C56.1095 62.6387 56.0913 62.5549 56.09 62.47V37.7C56.1096 37.5428 56.186 37.3981 56.3048 37.2932C56.4236 37.1883 56.5766 37.1305 56.735 37.1305C56.8935 37.1305 57.0465 37.1883 57.1653 37.2932C57.284 37.3981 57.3604 37.5428 57.38 37.7V62.47C57.38 62.6371 57.3136 62.7973 57.1955 62.9155C57.0773 63.0336 56.9171 63.1 56.75 63.1Z" fill="#E3E3FD"/>
<path d="M61.61 37.89H1.43002C1.26028 37.89 1.0975 37.8226 0.977478 37.7025C0.857455 37.5825 0.790009 37.4197 0.790009 37.25C0.790009 37.0803 0.857455 36.9175 0.977478 36.7975C1.0975 36.6774 1.26028 36.61 1.43002 36.61H61.61C61.7798 36.61 61.9425 36.6774 62.0626 36.7975C62.1826 36.9175 62.25 37.0803 62.25 37.25C62.25 37.4197 62.1826 37.5825 62.0626 37.7025C61.9425 37.8226 61.7798 37.89 61.61 37.89Z" fill="#E3E3FD"/>
<path d="M41.24 69.79H21.8C21.7655 69.79 21.7325 69.7763 21.7081 69.7519C21.6837 69.7275 21.67 69.6945 21.67 69.66V62.04C21.67 62.0055 21.6837 61.9725 21.7081 61.9481C21.7325 61.9237 21.7655 61.91 21.8 61.91H41.24C41.2745 61.91 41.3076 61.9237 41.3319 61.9481C41.3563 61.9725 41.37 62.0055 41.37 62.04V69.66C41.37 69.6945 41.3563 69.7275 41.3319 69.7519C41.3076 69.7763 41.2745 69.79 41.24 69.79ZM21.92 69.54H41.12V62.16H21.92V69.54Z" fill="#BBBBF9"/>
<path d="M32.33 65.85C32.334 66.011 32.2899 66.1695 32.2033 66.3053C32.1168 66.4411 31.9917 66.5481 31.8441 66.6124C31.6965 66.6768 31.533 66.6958 31.3746 66.6668C31.2162 66.6378 31.07 66.5623 30.9547 66.4499C30.8394 66.3374 30.7603 66.1932 30.7274 66.0355C30.6944 65.8779 30.7093 65.714 30.77 65.5648C30.8306 65.4156 30.9344 65.2879 31.068 65.198C31.2016 65.1081 31.359 65.06 31.52 65.06C31.6251 65.0587 31.7294 65.0781 31.8269 65.1171C31.9245 65.156 32.0134 65.2139 32.0887 65.2872C32.1639 65.3606 32.2239 65.448 32.2653 65.5446C32.3067 65.6412 32.3287 65.7449 32.33 65.85Z" fill="#BBBBF9"/>
<path d="M20.67 69.79H1.23C1.21336 69.7901 1.19691 69.7866 1.18166 69.78C1.16641 69.7734 1.15269 69.7636 1.14141 69.7514C1.13012 69.7392 1.12152 69.7247 1.11611 69.709C1.1107 69.6933 1.10862 69.6766 1.11001 69.66V62.04C1.10862 62.0234 1.1107 62.0067 1.11611 61.991C1.12152 61.9753 1.13012 61.9608 1.14141 61.9486C1.15269 61.9364 1.16641 61.9266 1.18166 61.92C1.19691 61.9133 1.21336 61.9099 1.23 61.91H20.67C20.7045 61.91 20.7375 61.9237 20.7619 61.9481C20.7863 61.9725 20.8 62.0055 20.8 62.04V69.66C20.8 69.6945 20.7863 69.7275 20.7619 69.7519C20.7375 69.7763 20.7045 69.79 20.67 69.79ZM1.35 69.54H20.55V62.16H1.35V69.54Z" fill="#BBBBF9"/>
<path d="M11.77 65.85C11.774 66.011 11.7299 66.1695 11.6433 66.3053C11.5568 66.4411 11.4317 66.5481 11.2841 66.6124C11.1365 66.6768 10.973 66.6958 10.8146 66.6668C10.6562 66.6378 10.51 66.5623 10.3947 66.4499C10.2794 66.3374 10.2003 66.1932 10.1674 66.0355C10.1345 65.8779 10.1493 65.714 10.21 65.5648C10.2706 65.4156 10.3744 65.2879 10.508 65.198C10.6416 65.1081 10.799 65.06 10.96 65.06C11.0651 65.0587 11.1694 65.0781 11.2669 65.1171C11.3645 65.156 11.4534 65.2139 11.5287 65.2872C11.6039 65.3606 11.6639 65.448 11.7053 65.5446C11.7467 65.6412 11.7687 65.7449 11.77 65.85Z" fill="#BBBBF9"/>
<path d="M61.81 69.79H42.36C42.3434 69.7901 42.3269 69.7866 42.3116 69.78C42.2964 69.7734 42.2827 69.7636 42.2714 69.7514C42.2601 69.7392 42.2515 69.7247 42.2461 69.709C42.2407 69.6933 42.2386 69.6766 42.24 69.66V62.04C42.2386 62.0234 42.2407 62.0067 42.2461 61.991C42.2515 61.9753 42.2601 61.9608 42.2714 61.9486C42.2827 61.9364 42.2964 61.9266 42.3116 61.92C42.3269 61.9133 42.3434 61.9099 42.36 61.91H61.81C61.8267 61.9099 61.8431 61.9133 61.8584 61.92C61.8736 61.9266 61.8873 61.9364 61.8986 61.9486C61.9099 61.9608 61.9185 61.9753 61.9239 61.991C61.9293 62.0067 61.9314 62.0234 61.93 62.04V69.66C61.9314 69.6766 61.9293 69.6933 61.9239 69.709C61.9185 69.7247 61.9099 69.7392 61.8986 69.7514C61.8873 69.7636 61.8736 69.7734 61.8584 69.78C61.8431 69.7866 61.8267 69.7901 61.81 69.79ZM42.49 69.54H61.67V62.16H42.49V69.54Z" fill="#BBBBF9"/>
<path d="M52.89 65.85C52.894 66.011 52.8499 66.1695 52.7633 66.3053C52.6768 66.4411 52.5517 66.5481 52.4041 66.6124C52.2565 66.6768 52.093 66.6958 51.9346 66.6668C51.7762 66.6378 51.63 66.5623 51.5147 66.4499C51.3994 66.3374 51.3203 66.1932 51.2874 66.0355C51.2544 65.8779 51.2693 65.714 51.33 65.5648C51.3906 65.4156 51.4944 65.2879 51.628 65.198C51.7616 65.1081 51.919 65.06 52.08 65.06C52.1851 65.0587 52.2894 65.0781 52.3869 65.1171C52.4845 65.156 52.5734 65.2139 52.6487 65.2872C52.7239 65.3606 52.7839 65.448 52.8253 65.5446C52.8667 65.6412 52.8887 65.7449 52.89 65.85Z" fill="#BBBBF9"/>
<path d="M11.67 34.43C11.5576 35.4257 11.7363 36.4326 12.1846 37.3287C12.6329 38.2249 13.3315 38.9717 14.1957 39.4789C15.0599 39.986 16.0526 40.2316 17.0535 40.1859C18.0545 40.1402 19.0207 39.8052 19.8351 39.2214C20.6495 38.6376 21.2771 37.8302 21.6419 36.897C22.0066 35.9637 22.0929 34.9447 21.8902 33.9634C21.6875 32.9821 21.2046 32.0807 20.4999 31.3683C19.7952 30.656 18.8991 30.1633 17.92 29.95C16.498 29.7214 15.0432 30.064 13.8726 30.9031C12.7019 31.7422 11.9103 33.0099 11.67 34.43Z" fill="#FF8C64"/>
<path d="M22.77 38.66C22.2911 42.6786 21.2823 46.6161 19.77 50.37C19.5 51.05 19.22 51.7 18.94 52.37C18.9177 52.3927 18.9007 52.42 18.89 52.45C18.19 53.95 17.47 55.33 16.75 56.55C15.15 56.17 13.56 55.8 11.96 55.44C11.96 54.87 11.96 54.1 11.96 53.17C11.96 52.9 11.96 52.64 11.96 52.38C11.96 51.43 11.96 50.61 11.96 49.91C11.919 48.5189 11.959 47.1265 12.08 45.74C12.08 45.68 12.08 45.61 12.15 45.21C12.59 42.42 12.98 40.21 13.26 38.73L22.77 38.66Z" fill="#FF8C64"/>
<path d="M6.95001 75.71L9.10001 76.33C10.7605 69.4148 13.3225 62.7477 16.72 56.5L11.95 55.39C11.1193 56.3847 10.3702 57.4448 9.71002 58.56C8.75443 60.0507 8.01696 61.6705 7.52002 63.37C6.67002 66.63 7.75 67.91 7.25 73.31C7.16 74.34 7.04001 75.16 6.95001 75.71Z" fill="#FF8C64"/>
<path d="M19.13 52.4H18.87H18.43L11.91 52.31C11.91 51.36 11.91 50.54 11.91 49.84L18.91 52.3L19.13 52.4Z" fill="#122275"/>
<path d="M18.43 52.43L9.90002 49.7L11.9 38.39C11.3592 37.0319 11.2816 35.5332 11.6794 34.1266C12.0772 32.7199 12.928 31.4838 14.1 30.61C15.1461 29.8564 16.3941 29.4336 17.6828 29.3962C18.9715 29.3588 20.2419 29.7084 21.33 30.4C22.7046 31.3982 23.6626 32.8685 24.0205 34.5291C24.3785 36.1898 24.1113 37.9241 23.27 39.4C21.67 43.7267 20.0567 48.07 18.43 52.43Z" fill="#5B98E8"/>
<path d="M16.3 36.82C16.3368 37.822 16.6636 38.7917 17.2407 39.6116C17.8179 40.4315 18.6205 41.0662 19.5514 41.4389C20.4822 41.8115 21.5011 41.906 22.4846 41.7109C23.4681 41.5157 24.3738 41.0394 25.0918 40.3396C25.8099 39.6398 26.3094 38.7467 26.5298 37.7686C26.7502 36.7905 26.682 35.7695 26.3335 34.8293C25.985 33.8892 25.3711 33.0705 24.5664 32.4724C23.7617 31.8743 22.8007 31.5226 21.8 31.46C20.3614 31.4466 18.9758 32.0026 17.9455 33.0067C16.9152 34.0108 16.3237 35.3815 16.3 36.82Z" fill="#FF8C64"/>
<path d="M17.26 77.02L19.48 77.31C19.8196 73.236 20.4715 69.1941 21.43 65.22C22.1291 62.2856 22.9972 59.3942 24.03 56.56L19.14 56.18C18.4716 57.2902 17.8899 58.4503 17.4 59.65C16.6811 61.2656 16.1994 62.9766 15.97 64.73C15.61 68.08 16.87 69.19 17.19 74.6C17.25 75.62 17.26 76.47 17.26 77.02Z" fill="#FF8C64"/>
<path d="M26.1 50.04C26.1 50.18 26.03 50.32 26.03 50.32C25.5096 52.4441 24.8413 54.5292 24.03 56.56L19.13 56.19C19.05 55.63 18.92 54.87 18.77 53.96C18.62 53.05 18.52 52.48 18.42 51.86C18.3 51.05 18.18 50.36 18.1 49.78C17.8703 48.5531 17.7499 47.3082 17.74 46.06C17.7794 44.5314 18.0215 43.0149 18.46 41.55C19.84 40.95 21.32 40.35 22.88 39.78C24.44 39.21 25.82 38.78 27.21 38.32C27.155 42.2501 26.7838 46.1694 26.1 50.04Z" fill="#FF8C64"/>
<path d="M26.03 50.34L18.42 51.88C18.3 51.07 18.18 50.38 18.1 49.8L26.03 50.34Z" fill="#122275"/>
<path d="M26.83 50.26L17.51 51.02C16.9633 47.02 16.41 43.02 15.85 39.02C13.58 36.56 13.36 33.1 15.02 31.02C16.68 28.94 19.6 28.83 21.43 29.32C22.8548 29.7558 24.1202 30.6003 25.0695 31.7486C26.0187 32.897 26.61 34.2987 26.77 35.78C27.0533 37.1706 27.2569 38.5762 27.38 39.99C27.664 43.4224 27.479 46.8775 26.83 50.26Z" fill="#5B98E8"/>
<path d="M17.51 51.14C17.4814 51.1404 17.4535 51.1305 17.4315 51.1122C17.4095 51.0939 17.3948 51.0682 17.39 51.04L15.39 39.64C14.3507 38.9402 13.576 37.912 13.19 36.72C12.9099 35.6747 12.9241 34.5724 13.2312 33.5347C13.5382 32.4971 14.1262 31.5645 14.93 30.84C14.9412 30.8288 14.9544 30.8199 14.969 30.8139C14.9836 30.8078 14.9992 30.8047 15.015 30.8047C15.0308 30.8047 15.0465 30.8078 15.061 30.8139C15.0756 30.8199 15.0889 30.8288 15.1 30.84C15.1232 30.8642 15.1362 30.8964 15.1362 30.93C15.1362 30.9635 15.1232 30.9958 15.1 31.02C14.3305 31.7139 13.7675 32.6067 13.4728 33.6C13.1782 34.5934 13.1634 35.6488 13.43 36.65C13.8044 37.8049 14.5632 38.7967 15.58 39.46C15.6023 39.4827 15.6193 39.51 15.63 39.54L17.63 51C17.6345 51.0159 17.6355 51.0326 17.6326 51.0489C17.6298 51.0652 17.6234 51.0806 17.6137 51.0941C17.6041 51.1075 17.5916 51.1187 17.5771 51.1266C17.5626 51.1346 17.5465 51.1391 17.53 51.14H17.51Z" fill="#BBBBF9"/>
<path d="M47.39 23.47C47.3 24.03 47.2 24.59 47.11 25.16C47.05 25.52 47 25.89 46.93 26.26C46.5877 26.126 46.2268 26.045 45.86 26.02C45.4858 25.9822 45.108 26.0024 44.74 26.08C44.6523 26.0953 44.5655 26.1153 44.48 26.14L44.21 26.22C43.4709 26.4729 42.8189 26.9307 42.33 27.54L42.22 27.67C42.148 27.7698 42.0812 27.8732 42.02 27.98L41.74 28.25L37.24 32.59C35.7556 32.3712 34.2598 32.2376 32.76 32.19C30.9403 32.0871 29.115 32.2216 27.33 32.59C25.87 32.92 24.39 33.09 22.91 33.35C21.8972 33.5798 20.8562 33.6607 19.82 33.59L16.6 30.9C16.6972 30.0706 16.981 29.274 17.43 28.57C18.89 26.28 34.9 21.8 37.5 21.51C38.7426 21.3873 39.997 21.5305 41.18 21.93L43.11 22.41L47.39 23.47Z" fill="#FF8C64"/>
<path d="M34.8 28.63C34.2976 28.6908 33.8246 28.8992 33.4406 29.2288C33.0565 29.5584 32.7788 29.9944 32.6425 30.4817C32.5061 30.969 32.5173 31.4858 32.6745 31.9668C32.8318 32.4478 33.128 32.8715 33.5259 33.1842C33.9237 33.4969 34.4054 33.6846 34.9099 33.7238C35.4144 33.7629 35.9192 33.6516 36.3606 33.404C36.8019 33.1563 37.1599 32.7835 37.3894 32.3324C37.6189 31.8814 37.7096 31.3725 37.65 30.87C37.6104 30.5356 37.5051 30.2123 37.3404 29.9187C37.1756 29.625 36.9545 29.3668 36.6898 29.1587C36.425 28.9506 36.1218 28.7968 35.7975 28.7061C35.4733 28.6154 35.1343 28.5895 34.8 28.63Z" fill="#FF8C64"/>
<path d="M43.16 22.04C42.88 23.74 42.6 25.44 42.33 27.15L42.27 27.22L42.22 27.28C42.22 27.36 42.32 27.53 42.33 27.54C42.67 27.98 37.72 32.67 37.72 32.67C36.31 34 36.16 34.32 35.43 34.58C34.7079 34.7769 33.9532 34.8244 33.2121 34.7195C32.471 34.6146 31.7591 34.3596 31.12 33.97C30.2049 34.3884 29.3856 34.9904 28.713 35.7387C28.0404 36.487 27.5288 37.3656 27.21 38.32C24.1822 38.2214 21.2476 37.249 18.76 35.52C17.56 34.64 15.58 33.2 15.47 31.05C15.4535 30.5963 15.5144 30.1432 15.65 29.71C17.5576 27.599 19.8612 25.8832 22.43 24.66C24.63 23.66 24.43 24.19 30.62 22.51C38.32 20.41 39.96 20.63 41.37 21.13C42.0059 21.3491 42.6083 21.6553 43.16 22.04Z" fill="#FFC5D2"/>
<path d="M42.95 24.83C42.72 27.66 42.47 30.49 42.23 33.32L41.98 36.23L38.98 35.23C38.98 34.82 38.89 34.39 38.85 33.94C38.81 33.49 38.85 33.31 38.8 32.94C38.6996 31.1532 38.7364 29.3612 38.91 27.58C39.02 26.41 39.18 25.32 39.38 24.3C39.6825 24.0132 40.056 23.812 40.4619 23.7171C40.8678 23.6222 41.2917 23.637 41.69 23.76C42.2301 23.9448 42.6802 24.327 42.95 24.83Z" fill="#FF8C64"/>
<path d="M42.22 33.34L38.89 33.94C38.89 33.63 38.89 33.31 38.84 32.94L42.22 33.34Z" fill="#122275"/>
<path d="M42.23 33.34L37.63 33.16C37.88 30.46 38.14 27.77 38.39 25.08C38.5513 24.5423 38.8816 24.0709 39.3319 23.7358C39.7823 23.4007 40.3287 23.2197 40.89 23.2197C41.4514 23.2197 41.9977 23.4007 42.4481 23.7358C42.8984 24.0709 43.2288 24.5423 43.39 25.08C43.04 27.81 42.67 30.57 42.23 33.34Z" fill="#FFC5D2"/>
<path d="M37.94 33.18C37.9229 33.1819 37.9056 33.1797 37.8895 33.1737C37.8734 33.1676 37.8589 33.1579 37.8472 33.1453C37.8356 33.1326 37.827 33.1174 37.8223 33.1009C37.8176 33.0843 37.8168 33.0669 37.82 33.05L38.26 26.97C38.26 26.9 38.32 26.86 38.39 26.85C38.4219 26.8545 38.4513 26.87 38.4731 26.8936C38.495 26.9173 38.508 26.9478 38.51 26.98L38.07 33.06C38.0675 33.0927 38.0527 33.1233 38.0286 33.1455C38.0045 33.1678 37.9728 33.1801 37.94 33.18Z" fill="#BBBBF9"/>
<path d="M36.42 34.06C36.3905 34.0676 36.3595 34.0676 36.33 34.06C36.3068 34.0358 36.2938 34.0035 36.2938 33.97C36.2938 33.9365 36.3068 33.9042 36.33 33.88L37.62 32.62C37.645 32.6036 37.6749 32.5963 37.7046 32.5994C37.7343 32.6024 37.7621 32.6156 37.7832 32.6368C37.8044 32.6579 37.8176 32.6857 37.8206 32.7154C37.8237 32.7451 37.8164 32.775 37.8 32.8L36.5 34.06C36.4737 34.066 36.4463 34.066 36.42 34.06Z" fill="#BBBBF9"/>
<path d="M31.12 34.1C31.0874 34.1094 31.0527 34.1094 31.02 34.1L30.46 33.44C30.4368 33.4158 30.4238 33.3835 30.4238 33.35C30.4238 33.3164 30.4368 33.2842 30.46 33.26C30.4712 33.2488 30.4844 33.2399 30.499 33.2339C30.5136 33.2278 30.5292 33.2247 30.545 33.2247C30.5608 33.2247 30.5764 33.2278 30.591 33.2339C30.6056 33.2399 30.6189 33.2488 30.63 33.26L31.2 33.91C31.2212 33.9352 31.2328 33.9671 31.2328 34C31.2328 34.0329 31.2212 34.0648 31.2 34.09L31.12 34.1Z" fill="#BBBBF9"/>
<path d="M45.86 26.02C45.4858 25.9822 45.108 26.0024 44.74 26.08C44.6523 26.0952 44.5655 26.1153 44.48 26.14C44.4922 25.9192 44.5537 25.7039 44.66 25.51C44.94 24.96 45.42 24.64 45.75 24.81C46.08 24.98 46.1 25.5 45.86 26.02Z" fill="#122275"/>
<path d="M45.39 22.97C45.211 23.741 45.0807 24.5226 45 25.31C44.9454 25.9385 45.0029 26.5717 45.17 27.18C45.191 27.3038 45.2374 27.4218 45.3062 27.5268C45.3751 27.6318 45.4649 27.7214 45.57 27.79C45.6783 27.8395 45.796 27.8651 45.915 27.8651C46.0341 27.8651 46.1517 27.8395 46.26 27.79C46.2855 27.7885 46.3111 27.7921 46.3351 27.8007C46.3592 27.8093 46.3813 27.8227 46.4 27.84C46.47 27.93 46.4 28.05 46.51 28.15C46.5568 28.1985 46.617 28.232 46.6829 28.2462C46.7488 28.2605 46.8174 28.2548 46.88 28.23C46.9333 28.1946 46.9723 28.1415 46.99 28.08C47.0292 28.1496 47.0838 28.2093 47.1497 28.2543C47.2156 28.2994 47.291 28.3287 47.37 28.34C47.4119 28.3448 47.4544 28.3402 47.4942 28.3263C47.534 28.3125 47.5702 28.2898 47.6 28.26C47.6831 28.1695 47.7734 28.0859 47.87 28.01C48.4125 27.5571 49.1039 27.3219 49.81 27.35C49.86 27.35 50.03 27.35 50.27 27.4H50.52C50.9984 27.3716 51.4654 27.2421 51.89 27.02C52.4914 26.706 53.0185 26.2669 53.4359 25.7322C53.8534 25.1975 54.1514 24.5796 54.31 23.92C54.64 22.22 53.85 19.75 51.9 19.08C51.0095 18.8622 50.073 18.9294 49.2226 19.2721C48.3722 19.6147 47.6508 20.2156 47.16 20.99C46.792 21.8243 46.1734 22.5233 45.39 22.99V22.97Z" fill="#FF8C64"/>
<path d="M47.95 27.76C48.0335 27.816 48.1022 27.8915 48.15 27.98C48.22 28.09 48.15 28.15 48.27 28.24C48.3283 28.3069 48.4047 28.3555 48.49 28.38C48.5838 28.4136 48.6862 28.4136 48.78 28.38C48.8967 28.3065 48.9821 28.1926 49.02 28.06C49.1828 27.7497 49.4241 27.4877 49.72 27.3H48.78L47.95 27.76Z" fill="#FF8C64"/>
<path d="M50.24 27.13C50.2157 27.1294 50.1922 27.1214 50.1726 27.1071C50.1529 27.0928 50.1381 27.0729 50.13 27.05C50.0406 26.8496 49.937 26.6557 49.82 26.47C49.6865 26.256 49.5288 26.058 49.35 25.88C49.3388 25.8688 49.3299 25.8556 49.3239 25.841C49.3178 25.8264 49.3147 25.8108 49.3147 25.795C49.3147 25.7792 49.3178 25.7636 49.3239 25.749C49.3299 25.7344 49.3388 25.7211 49.35 25.71C49.3603 25.6974 49.3733 25.6873 49.388 25.6804C49.4027 25.6734 49.4188 25.6698 49.435 25.6698C49.4513 25.6698 49.4673 25.6734 49.482 25.6804C49.4967 25.6873 49.5097 25.6974 49.52 25.71C49.7112 25.8993 49.879 26.1108 50.02 26.34C50.1494 26.5322 50.2599 26.7365 50.35 26.95C50.3608 26.982 50.3597 27.0169 50.3468 27.0481C50.334 27.0793 50.3102 27.1049 50.28 27.12L50.24 27.13Z" fill="#122275"/>
<path d="M49.76 26.42C49.52 26.42 49.35 26.65 49.39 26.81C49.43 26.97 49.65 27.07 49.89 27.02C50.13 26.97 50.3 26.79 50.27 26.62C50.24 26.45 50 26.34 49.76 26.42Z" fill="#122275"/>
<path d="M46.98 27.96C46.9605 27.9604 46.9412 27.9561 46.9238 27.9474C46.9064 27.9386 46.8914 27.9258 46.88 27.91C46.832 27.8484 46.7974 27.7774 46.7785 27.7016C46.7595 27.6259 46.7566 27.547 46.77 27.47C46.7892 27.3782 46.8304 27.2924 46.89 27.22C46.9142 27.1968 46.9465 27.1838 46.98 27.1838C47.0135 27.1838 47.0458 27.1968 47.07 27.22C47.0812 27.2311 47.0901 27.2444 47.0961 27.259C47.1022 27.2736 47.1053 27.2892 47.1053 27.305C47.1053 27.3208 47.1022 27.3364 47.0961 27.351C47.0901 27.3656 47.0812 27.3789 47.07 27.39C47.0369 27.4311 47.0131 27.4789 47 27.53C46.992 27.616 47.017 27.7018 47.07 27.77C47.0812 27.7811 47.0901 27.7944 47.0961 27.809C47.1022 27.8236 47.1053 27.8392 47.1053 27.855C47.1053 27.8708 47.1022 27.8864 47.0961 27.901C47.0901 27.9156 47.0812 27.9289 47.07 27.94C47.0573 27.9496 47.0428 27.9564 47.0272 27.9599C47.0117 27.9633 46.9956 27.9634 46.98 27.96Z" fill="#EA522F"/>
<path d="M47.37 27.89C47.1893 27.7382 47.019 27.5745 46.86 27.4C46.834 27.5162 46.8321 27.6365 46.8545 27.7535C46.8768 27.8704 46.923 27.9816 46.99 28.08C46.99 28.08 47.21 28.37 47.44 28.34C47.67 28.31 47.65 28.28 47.66 28.2C47.67 28.12 47.54 28.02 47.37 27.89Z" fill="#EA522F"/>
<path d="M51.53 26.58C51.5418 26.6391 51.5408 26.7 51.527 26.7587C51.5132 26.8174 51.487 26.8724 51.45 26.92C51.4169 26.959 51.3755 26.9901 51.3287 27.0109C51.282 27.0316 51.2312 27.0416 51.18 27.04L51.53 26.58Z" fill="#122275"/>
<path d="M51.52 26.53L51.34 26.74C51.22 26.89 51.22 26.93 51.18 26.93C51.14 26.93 51.05 26.36 50.83 25.81C50.6982 25.4905 50.5121 25.1962 50.28 24.94C50.363 24.9512 50.444 24.9748 50.52 25.01C51.24 25.34 51.48 26.34 51.52 26.53Z" fill="#122275"/>
<path d="M46.43 27.94C46.3972 27.9401 46.3656 27.9278 46.3415 27.9055C46.3173 27.8833 46.3025 27.8527 46.3 27.82V27.52C46.2986 27.5034 46.3007 27.4867 46.3061 27.471C46.3115 27.4553 46.3201 27.4408 46.3314 27.4286C46.3427 27.4164 46.3564 27.4066 46.3717 27.4C46.3869 27.3934 46.4034 27.3899 46.42 27.39C46.4366 27.3886 46.4533 27.3907 46.469 27.3961C46.4847 27.4015 46.4992 27.4101 46.5114 27.4214C46.5236 27.4327 46.5334 27.4464 46.54 27.4616C46.5466 27.4769 46.5501 27.4934 46.55 27.51V27.81C46.5514 27.8266 46.5493 27.8433 46.5439 27.859C46.5385 27.8747 46.5299 27.8892 46.5186 27.9014C46.5073 27.9136 46.4936 27.9234 46.4784 27.93C46.4631 27.9367 46.4466 27.9401 46.43 27.94Z" fill="#EA522F"/>
<path d="M54.16 21.65C54.94 23.85 54.08 26.38 53.42 26.43C53.05 26.43 53.08 25.7 52.28 25.1C51.1 24.2 49.94 25.04 48.05 24.43C47.64 24.3 45.97 23.76 45.75 22.73C45.41 21.1 48.66 17.98 51.42 18.73C52.0665 18.98 52.6485 19.3723 53.1228 19.8777C53.5971 20.3832 53.9516 20.9889 54.16 21.65Z" fill="#3F469A"/>
<path d="M26.19 81.64H16.39C16.3356 81.6489 16.28 81.6459 16.2269 81.6311C16.1738 81.6164 16.1245 81.5903 16.0826 81.5546C16.0406 81.5189 16.0068 81.4746 15.9837 81.4245C15.9606 81.3745 15.9486 81.3201 15.9486 81.265C15.9486 81.2099 15.9606 81.1555 15.9837 81.1055C16.0068 81.0554 16.0406 81.0111 16.0826 80.9754C16.1245 80.9397 16.1738 80.9136 16.2269 80.8988C16.28 80.8841 16.3356 80.8811 16.39 80.89H26.19C26.2444 80.8811 26.3001 80.8841 26.3531 80.8988C26.4062 80.9136 26.4555 80.9397 26.4975 80.9754C26.5395 81.0111 26.5732 81.0554 26.5963 81.1055C26.6195 81.1555 26.6314 81.2099 26.6314 81.265C26.6314 81.3201 26.6195 81.3745 26.5963 81.4245C26.5732 81.4746 26.5395 81.5189 26.4975 81.5546C26.4555 81.5903 26.4062 81.6164 26.3531 81.6311C26.3001 81.6459 26.2444 81.6489 26.19 81.64Z" fill="#5B98E8"/>
<path d="M26.57 81.47H20.85L21.27 78.39L23.61 78.51C24.3918 78.5204 25.1387 78.8355 25.6916 79.3884C26.2445 79.9413 26.5597 80.6882 26.57 81.47Z" fill="#5B98E8"/>
<path d="M14.3 82.55L4.81004 80.08C4.71288 80.052 4.6304 79.9873 4.58003 79.8996C4.52966 79.8119 4.51531 79.7081 4.54002 79.61C4.56588 79.5136 4.62863 79.4312 4.7147 79.3807C4.80078 79.3302 4.90324 79.3156 5.00001 79.34L14.49 81.82C14.5434 81.8271 14.5946 81.8454 14.6403 81.8738C14.6861 81.9022 14.7252 81.94 14.7553 81.9847C14.7853 82.0293 14.8055 82.0798 14.8145 82.1329C14.8235 82.1859 14.8212 82.2403 14.8077 82.2924C14.7941 82.3445 14.7696 82.3931 14.7359 82.435C14.7021 82.4769 14.6599 82.5112 14.6119 82.5355C14.5639 82.5599 14.5113 82.5738 14.4575 82.5763C14.4037 82.5788 14.3501 82.5698 14.3 82.55Z" fill="#5B98E8"/>
<path d="M14.67 82.48L9.13 81.04L10.32 78.16L12.55 78.86C13.3064 79.0667 13.9517 79.5613 14.348 80.2378C14.7442 80.9144 14.8598 81.7192 14.67 82.48Z" fill="#5B98E8"/>
<path d="M21.06 15.71C20.7879 14.4798 20.7809 13.2057 21.0396 11.9726C21.2983 10.7395 21.8167 9.5756 22.5603 8.5585C23.304 7.54141 24.2558 6.69442 25.3524 6.07394C26.449 5.45345 27.6652 5.07371 28.92 4.95999L28.97 5.44999C27.7625 5.58151 26.5958 5.96445 25.5452 6.57414C24.4946 7.18384 23.5833 8.00678 22.87 8.98999C22.2154 9.94762 21.7611 11.0276 21.5342 12.1652C21.3074 13.3028 21.3128 14.4745 21.55 15.61L21.06 15.71Z" fill="#5B98E8"/>
<path d="M29.55 13.13H29.05V11.02C29.05 7.02 29.05 5.37 29.05 2.21V0H29.55V2.21C29.55 5.38 29.55 7.06 29.55 11.02V13.13Z" fill="#5B98E8"/>
<path d="M37.12 16.66L36.63 16.54C37.1896 14.2755 36.8641 11.8828 35.72 9.84999C34.9878 8.65465 33.9968 7.6388 32.82 6.8773C31.6431 6.1158 30.3104 5.62806 28.92 5.44999L28.97 4.95999C30.4381 5.1457 31.8456 5.65914 33.0884 6.4623C34.3313 7.26547 35.3776 8.33781 36.15 9.59999C37.3613 11.7437 37.7083 14.269 37.12 16.66Z" fill="#5B98E8"/>
<path d="M21.82 13.34L22.57 14.86C22.6168 14.9549 22.6858 15.0371 22.7711 15.0998C22.8564 15.1624 22.9555 15.2037 23.06 15.22L24.73 15.46C24.8503 15.4773 24.9633 15.528 25.0562 15.6062C25.1492 15.6845 25.2183 15.7873 25.2558 15.9028C25.2933 16.0184 25.2976 16.1422 25.2683 16.2601C25.239 16.3781 25.1772 16.4854 25.09 16.57L23.88 17.75C23.806 17.8256 23.7503 17.9173 23.7174 18.0178C23.6845 18.1184 23.6751 18.2252 23.69 18.33L23.98 19.99C23.9986 20.1099 23.9837 20.2326 23.9371 20.3447C23.8905 20.4567 23.8138 20.5537 23.7156 20.625C23.6174 20.6963 23.5015 20.7392 23.3805 20.7489C23.2596 20.7586 23.1383 20.7347 23.03 20.68L21.54 19.89C21.4458 19.8409 21.3412 19.8153 21.235 19.8153C21.1288 19.8153 21.0242 19.8409 20.93 19.89L19.44 20.68C19.3317 20.7347 19.2104 20.7586 19.0895 20.7489C18.9685 20.7392 18.8526 20.6963 18.7544 20.625C18.6562 20.5537 18.5796 20.4567 18.5329 20.3447C18.4863 20.2326 18.4714 20.1099 18.49 19.99L18.78 18.33C18.7949 18.2252 18.7856 18.1184 18.7526 18.0178C18.7197 17.9173 18.664 17.8256 18.59 17.75L17.38 16.57C17.2928 16.4854 17.231 16.3781 17.2017 16.2601C17.1724 16.1422 17.1767 16.0184 17.2142 15.9028C17.2517 15.7873 17.3208 15.6845 17.4138 15.6062C17.5067 15.528 17.6197 15.4773 17.74 15.46L19.41 15.22C19.514 15.2021 19.6124 15.1603 19.6975 15.0978C19.7825 15.0353 19.8519 14.9539 19.9 14.86L20.67 13.34C20.7275 13.238 20.811 13.1532 20.912 13.0942C21.013 13.0351 21.128 13.004 21.245 13.004C21.362 13.004 21.477 13.0351 21.578 13.0942C21.679 13.1532 21.7626 13.238 21.82 13.34Z" fill="#E3E3FD"/>
<path d="M29.73 10.48L30.27 11.56C30.3004 11.6293 30.349 11.6892 30.4106 11.7332C30.4722 11.7772 30.5446 11.8037 30.62 11.81L31.81 11.99C31.8957 12.0023 31.9761 12.0386 32.0421 12.0946C32.1081 12.1505 32.1569 12.224 32.183 12.3065C32.2091 12.389 32.2114 12.4772 32.1897 12.561C32.1679 12.6447 32.123 12.7206 32.06 12.78L31.2 13.62C31.1458 13.6721 31.1056 13.7368 31.0829 13.8085C31.0602 13.8801 31.0557 13.9562 31.07 14.03L31.27 15.22C31.286 15.3053 31.2776 15.3934 31.2456 15.4742C31.2137 15.5549 31.1595 15.6249 31.0895 15.6762C31.0194 15.7274 30.9362 15.7578 30.8496 15.7638C30.763 15.7698 30.6765 15.7511 30.6 15.71L29.53 15.15C29.4635 15.1158 29.3898 15.0979 29.315 15.0979C29.2402 15.0979 29.1665 15.1158 29.1 15.15L28.04 15.71C27.9629 15.7498 27.8763 15.7675 27.7897 15.7611C27.7032 15.7547 27.6201 15.7244 27.5497 15.6737C27.4792 15.6229 27.4242 15.5537 27.3908 15.4736C27.3573 15.3935 27.3467 15.3058 27.36 15.22L27.56 14.03C27.5743 13.9562 27.5699 13.8801 27.5472 13.8085C27.5245 13.7368 27.4842 13.6721 27.43 13.62L26.57 12.78C26.5068 12.72 26.462 12.6433 26.4407 12.5588C26.4195 12.4742 26.4226 12.3854 26.4499 12.3027C26.4771 12.2199 26.5273 12.1466 26.5946 12.0912C26.6619 12.0359 26.7435 12.0008 26.83 11.99L28.02 11.81C28.0946 11.8009 28.1657 11.7732 28.2268 11.7295C28.2879 11.6859 28.3372 11.6276 28.37 11.56L28.9 10.48C28.9401 10.4047 28.9998 10.3417 29.0729 10.2978C29.146 10.2538 29.2297 10.2306 29.315 10.2306C29.4003 10.2306 29.484 10.2538 29.5571 10.2978C29.6302 10.3417 29.69 10.4047 29.73 10.48Z" fill="#E3E3FD"/>
<path d="M37.19 14.84L37.68 15.84C37.7097 15.9021 37.7546 15.9558 37.8106 15.996C37.8665 16.0362 37.9316 16.0616 38 16.07L39.08 16.23C39.1589 16.2396 39.2335 16.2714 39.295 16.3217C39.3565 16.372 39.4026 16.4387 39.4277 16.5141C39.4528 16.5895 39.456 16.6705 39.437 16.7477C39.4179 16.8248 39.3773 16.895 39.32 16.95L38.53 17.72C38.4809 17.7669 38.4443 17.8253 38.4233 17.8899C38.4024 17.9544 38.3978 18.0232 38.41 18.09L38.6 19.17C38.6123 19.2483 38.6028 19.3285 38.5724 19.4017C38.542 19.4749 38.492 19.5383 38.4278 19.5849C38.3637 19.6314 38.2879 19.6594 38.2088 19.6656C38.1298 19.6718 38.0506 19.656 37.98 19.62L36.98 19.11C36.9207 19.0758 36.8534 19.0577 36.785 19.0577C36.7165 19.0577 36.6493 19.0758 36.59 19.11L35.59 19.62C35.5194 19.656 35.4402 19.6718 35.3611 19.6656C35.2821 19.6594 35.2063 19.6314 35.1422 19.5849C35.078 19.5383 35.028 19.4749 34.9976 19.4017C34.9672 19.3285 34.9577 19.2483 34.97 19.17L35.16 18.09C35.1722 18.0232 35.1676 17.9544 35.1467 17.8899C35.1257 17.8253 35.0891 17.7669 35.04 17.72L34.25 16.95C34.1926 16.895 34.1521 16.8248 34.133 16.7477C34.1139 16.6705 34.1172 16.5895 34.1423 16.5141C34.1675 16.4387 34.2135 16.372 34.275 16.3217C34.3366 16.2714 34.4111 16.2396 34.49 16.23L35.57 16.07C35.6384 16.0616 35.7035 16.0362 35.7594 15.996C35.8154 15.9558 35.8603 15.9021 35.89 15.84L36.38 14.84C36.3952 14.7435 36.4444 14.6556 36.5186 14.5922C36.5928 14.5287 36.6873 14.4938 36.785 14.4938C36.8827 14.4938 36.9771 14.5287 37.0514 14.5922C37.1256 14.6556 37.1748 14.7435 37.19 14.84Z" fill="#E3E3FD"/>
<path d="M30.03 4.56H28.33V5.76H30.03V4.56Z" fill="#5B98E8"/>
<path d="M63.37 80.82H74.67C74.7708 80.82 74.8675 80.78 74.9387 80.7087C75.01 80.6374 75.05 80.5408 75.05 80.44C75.05 80.3392 75.01 80.2426 74.9387 80.1713C74.8675 80.1 74.7708 80.06 74.67 80.06H63.37C63.2692 80.06 63.1726 80.1 63.1013 80.1713C63.0301 80.2426 62.99 80.3392 62.99 80.44C62.99 80.5408 63.0301 80.6374 63.1013 80.7087C63.1726 80.78 63.2692 80.82 63.37 80.82Z" fill="#3F469A"/>
<path d="M62.99 80.65H69.5L69.02 77.56L66.36 77.68C65.5202 77.6306 64.6948 77.915 64.0636 78.4713C63.4325 79.0275 63.0466 79.8106 62.99 80.65Z" fill="#3F469A"/>
<path d="M79.26 80.82H90.52C90.6208 80.82 90.7175 80.78 90.7887 80.7087C90.86 80.6374 90.9 80.5408 90.9 80.44C90.9 80.3392 90.86 80.2426 90.7887 80.1713C90.7175 80.1 90.6208 80.06 90.52 80.06H79.26C79.1592 80.06 79.0626 80.1 78.9913 80.1713C78.92 80.2426 78.88 80.3392 78.88 80.44C78.88 80.5408 78.92 80.6374 78.9913 80.7087C79.0626 80.78 79.1592 80.82 79.26 80.82Z" fill="#3F469A"/>
<path d="M78.88 80.65H85.4L84.92 77.56L82.26 77.68C81.4191 77.6305 80.5927 77.9146 79.9599 78.4706C79.3271 79.0267 78.9391 79.8097 78.88 80.65Z" fill="#3F469A"/>
<path d="M76.04 74.63C74.9337 75.0304 73.7919 75.3251 72.63 75.51C71.5422 75.6839 70.4415 75.7642 69.34 75.75C70.4759 71.1188 70.9904 66.357 70.87 61.59C70.68 54.59 69.13 50.43 69.74 42.2C69.9109 39.8492 70.2282 37.5113 70.69 35.2L78.95 30.83C80.0442 31.9272 80.7469 33.3539 80.95 34.89C81.105 36.0842 80.9429 37.2983 80.48 38.41L76.91 58.02C77.6811 59.9752 78.1335 62.0415 78.25 64.14C78.452 67.7704 77.6895 71.3896 76.04 74.63Z" fill="#3F469A"/>
<path d="M85.15 56.22C86.1803 57.7344 87.0674 59.3413 87.8 61.02C89.6523 65.322 90.4905 69.9923 90.25 74.67L83.52 75.67L80.86 60.08C80.0478 58.8834 79.3161 57.6339 78.67 56.34C77.6772 54.3381 76.8898 52.2407 76.32 50.08C77.4936 46.2005 78.2807 42.2144 78.67 38.18C78.9083 35.751 79.0052 33.3102 78.96 30.87C79.8578 31.3353 80.6504 31.9802 81.2886 32.7646C81.9268 33.5491 82.397 34.4563 82.67 35.43C83.039 36.937 82.9091 38.523 82.3 39.95C83.2134 45.3833 84.1634 50.8067 85.15 56.22Z" fill="#3F469A"/>
<path d="M77.67 53.85C77.58 53.85 77.53 53.76 77.55 53.7L80.07 40.48C80.0816 40.4522 80.1024 40.4294 80.1289 40.4152C80.1554 40.4011 80.1861 40.3966 80.2155 40.4025C80.245 40.4084 80.2715 40.4243 80.2906 40.4476C80.3096 40.4708 80.32 40.4999 80.32 40.53L77.77 53.74C77.7666 53.7663 77.7552 53.791 77.7373 53.8107C77.7194 53.8304 77.6959 53.8441 77.67 53.85Z" fill="#BBBBF9"/>
<path d="M79.61 31.59C78.8024 34.362 77.0286 36.7531 74.61 38.33C72.6407 39.5633 70.3531 40.1926 68.03 40.14C67.2253 36.6679 66.2407 33.2399 65.08 29.87C63.65 25.73 62.42 23.01 62.01 19.8C61.8789 18.8962 61.8253 17.9829 61.85 17.07C61.8689 15.6261 62.0398 14.1881 62.36 12.78L62.52 12.13C62.64 12.03 62.74 11.93 62.85 11.82C63.85 10.92 64.85 10.01 65.85 9.09L66.97 8.09C68.546 8.6392 69.9901 9.5111 71.21 10.65C74.13 13.43 74.39 16.75 76.1 22.34C77.054 25.501 78.2269 28.5918 79.61 31.59Z" fill="#5B98E8"/>
<path d="M62.03 2.01999C62.56 2.67999 62.47 3.01998 63.18 4.14998C63.324 4.37176 63.4225 4.61988 63.47 4.87999C63.5587 5.15637 63.5587 5.4536 63.47 5.72999C63.2952 6.03291 63.0162 6.26186 62.6849 6.37411C62.3537 6.48636 61.9929 6.47423 61.67 6.33999C60.98 6.00999 61.01 4.97999 60.55 4.95999C60.27 4.95999 60.25 5.33999 59.85 5.48999C59.17 5.74999 58.69 4.82999 57.57 4.77999C57.0471 4.77905 56.5345 4.92455 56.09 5.19999C55.22 5.67999 55.15 6.19999 54.56 6.33999C54.2827 6.37022 54.0025 6.32035 53.7526 6.19629C53.5027 6.07224 53.2936 5.87919 53.15 5.63999C52.57 4.44999 54.51 1.92999 56.79 0.909986C57.4737 0.564934 58.2351 0.403 59 0.439985C60.1775 0.550902 61.265 1.11796 62.03 2.01999Z" fill="#3F469A"/>
<path d="M62.03 1.92001C62.56 2.57001 62.47 2.92001 63.18 4.04001C63.3218 4.26651 63.4202 4.51747 63.47 4.78001C63.5587 5.05639 63.5587 5.35363 63.47 5.63001C63.2888 5.91485 63.0133 6.12698 62.6916 6.22934C62.3699 6.33169 62.0225 6.31777 61.71 6.19001C61.02 5.85001 61.05 4.83001 60.59 4.81001C60.31 4.81001 60.29 5.18001 59.89 5.34001C59.21 5.59001 58.73 4.68001 57.61 4.63001C57.0882 4.62713 56.5759 4.76905 56.13 5.04001C55.26 5.52001 55.19 6.04001 54.6 6.19001C54.3215 6.22053 54.0401 6.16972 53.7899 6.04371C53.5397 5.91771 53.3313 5.72192 53.19 5.48001C52.61 4.30001 54.55 1.78001 56.83 0.750013C57.5137 0.404961 58.2751 0.243027 59.04 0.280012C60.2122 0.416336 61.285 1.00474 62.03 1.92001Z" fill="#3F469A"/>
<path d="M61.53 4.82999C61.6471 5.0805 61.6636 5.36637 61.5762 5.62869C61.4887 5.89101 61.304 6.10981 61.06 6.23999C60.59 6.38999 60.06 5.99999 59.85 5.36999C59.7304 5.11986 59.7126 4.83309 59.8003 4.57007C59.8879 4.30705 60.0743 4.08834 60.32 3.95999C60.78 3.80999 61.32 4.19999 61.53 4.82999Z" fill="#FF8C64"/>
<path d="M60.85 6.4C60.7703 6.40964 60.6897 6.40964 60.61 6.4C60.579 6.39068 60.5527 6.37014 60.536 6.34241C60.5194 6.31467 60.5137 6.28173 60.52 6.25001C60.5314 6.21825 60.5538 6.19165 60.5832 6.17512C60.6126 6.15858 60.647 6.15322 60.68 6.16C60.7913 6.19017 60.9087 6.19017 61.02 6.16C61.1452 6.10585 61.2533 6.01857 61.3326 5.90755C61.4119 5.79654 61.4594 5.66601 61.47 5.53001C61.47 5.49818 61.4827 5.46766 61.5052 5.44515C61.5277 5.42265 61.5582 5.41 61.59 5.41C61.6219 5.41 61.6524 5.42265 61.6749 5.44515C61.6974 5.46766 61.71 5.49818 61.71 5.53001C61.6932 5.71068 61.6276 5.88337 61.5201 6.02959C61.4127 6.1758 61.2674 6.29001 61.1 6.36C61.0185 6.383 60.9346 6.39642 60.85 6.4Z" fill="#EA522F"/>
<path d="M61.6 5.46999C61.5834 5.47004 61.5669 5.46665 61.5517 5.46C61.5364 5.45335 61.5227 5.44361 61.5114 5.43138C61.5001 5.41916 61.4915 5.40472 61.4861 5.38899C61.4807 5.37325 61.4786 5.35657 61.48 5.33999C61.4825 5.20825 61.4656 5.07685 61.43 4.94999C61.4237 4.91827 61.4294 4.88533 61.446 4.85759C61.4627 4.82985 61.489 4.80931 61.52 4.79999C61.5358 4.79552 61.5523 4.79433 61.5685 4.79649C61.5848 4.79865 61.6004 4.80411 61.6145 4.81254C61.6285 4.82097 61.6407 4.83219 61.6503 4.84551C61.6598 4.85883 61.6665 4.87397 61.67 4.88999C61.7096 5.04014 61.7297 5.19473 61.73 5.34999C61.7301 5.36663 61.7267 5.3831 61.72 5.39835C61.7134 5.4136 61.7036 5.4273 61.6914 5.43858C61.6792 5.44987 61.6647 5.45848 61.649 5.46389C61.6333 5.4693 61.6166 5.47137 61.6 5.46999Z" fill="#EA522F"/>
<path d="M61.48 4.82999C61.4557 4.82936 61.4322 4.82137 61.4126 4.80708C61.393 4.7928 61.3781 4.7729 61.37 4.75C61.16 4.26 60.72 3.95999 60.37 4.07999C60.2894 4.10966 60.2149 4.15372 60.15 4.21C60.1397 4.22256 60.1267 4.23268 60.112 4.23962C60.0973 4.24657 60.0813 4.25017 60.065 4.25017C60.0487 4.25017 60.0327 4.24657 60.018 4.23962C60.0033 4.23268 59.9903 4.22256 59.98 4.21C59.9568 4.18579 59.9438 4.15354 59.9438 4.11999C59.9438 4.08645 59.9568 4.0542 59.98 4.03C60.0667 3.94283 60.173 3.87767 60.29 3.84C60.572 3.79364 60.8613 3.85123 61.1041 4.00204C61.3468 4.15285 61.5266 4.38664 61.61 4.66C61.6203 4.6906 61.6188 4.72393 61.6059 4.7535C61.593 4.78308 61.5695 4.80678 61.54 4.82L61.48 4.82999Z" fill="#EA522F"/>
<path d="M60.67 5.83C60.6529 5.82874 60.6363 5.82412 60.621 5.81638C60.6057 5.80865 60.592 5.79797 60.5809 5.78496C60.5697 5.77195 60.5613 5.75686 60.556 5.74056C60.5507 5.72427 60.5486 5.70709 60.55 5.69L60.63 4.51C60.6348 4.4791 60.6506 4.45096 60.6745 4.43076C60.6984 4.41055 60.7287 4.39963 60.76 4.4C60.7766 4.39995 60.7931 4.40335 60.8084 4.41C60.8236 4.41664 60.8373 4.42638 60.8486 4.43861C60.8599 4.45083 60.8685 4.46527 60.8739 4.481C60.8793 4.49674 60.8814 4.51343 60.88 4.53001L60.8 5.71001C60.7975 5.74272 60.7827 5.77328 60.7586 5.79553C60.7345 5.81779 60.7028 5.8301 60.67 5.83Z" fill="#EA522F"/>
<path d="M60.67 5.14999C60.6443 5.16003 60.6157 5.16003 60.59 5.14999L60.28 4.87999C60.2675 4.86949 60.2573 4.85662 60.2498 4.84214C60.2422 4.82766 60.2377 4.81185 60.2363 4.7956C60.2335 4.76278 60.2438 4.73019 60.265 4.70499C60.2862 4.6798 60.3166 4.66406 60.3494 4.66125C60.3822 4.65844 60.4148 4.66877 60.44 4.68999L60.75 4.96C60.7612 4.97114 60.7701 4.98439 60.7761 4.99897C60.7822 5.01356 60.7853 5.0292 60.7853 5.04499C60.7853 5.06079 60.7822 5.07642 60.7761 5.09101C60.7701 5.10559 60.7612 5.11885 60.75 5.12999C60.7259 5.14454 60.6981 5.15151 60.67 5.14999Z" fill="#EA522F"/>
<path d="M62.67 29.8L66.52 29.58C66.7 27.4933 66.8733 25.4 67.04 23.3C67.04 22.89 67.11 22.48 67.15 22.07C67.19 21.66 67.22 21.15 67.25 20.69C67.28 20.23 67.31 20.05 67.34 19.69L64.4 11.69C64.1676 11.7816 63.9462 11.899 63.74 12.04C62.48 12.89 61.74 14.8 62.02 21.82C62.02 21.98 62.02 22.15 62.02 22.33V22.76V23.19C62.23 24.93 62.4 27.17 62.67 29.8Z" fill="#FF8C64"/>
<path d="M62.08 22.34L67.08 23.34C67.08 22.93 67.15 22.52 67.19 22.11C67.23 21.7 67.26 21.19 67.29 20.73C65.55 21.25 63.81 21.78 62.08 22.34Z" fill="#122275"/>
<path d="M68.73 21.99L61.59 22.36C61.76 19.57 61.94 16.77 62.11 13.98C62.1662 13.1595 62.5341 12.3915 63.1384 11.8337C63.7428 11.2759 64.5376 10.9704 65.36 10.98C66.0632 11.0306 66.7297 11.3134 67.2546 11.7841C67.7796 12.2547 68.1332 12.8864 68.26 13.58C68.42 16.39 68.57 19.19 68.73 21.99Z" fill="#5B98E8"/>
<path d="M51.82 36.34L53.32 38.45C54.87 37.76 56.17 37.28 57.09 36.97C60.43 35.82 62.04 35.54 63.81 34.04C64.3615 33.5672 64.8579 33.0338 65.29 32.45C66.79 31.12 66.81 29.28 66.11 28.66C65.41 28.04 64.23 28.26 63.11 29.09C62.1974 29.474 61.3178 29.9322 60.48 30.46C57.42 32.39 56.56 34.24 53.48 35.68C52.9434 35.94 52.3886 36.1606 51.82 36.34Z" fill="#FF8C64"/>
<path d="M53.54 37.34C53.6255 37.5361 53.6503 37.7534 53.6111 37.9637C53.5718 38.1741 53.4705 38.3678 53.32 38.52C52.91 38.86 52.32 38.52 50.63 37.94C48.21 37.06 47.44 36.94 47.46 36.66C47.48 36.38 48.71 36.04 49.46 35.99C50.2698 35.9746 51.0748 36.1173 51.83 36.41C52.84 36.67 53.36 36.83 53.54 37.34Z" fill="#FF8C64"/>
</svg>
