<svg width="66" height="72" viewBox="0 0 66 72" fill="none" xmlns="http://www.w3.org/2000/svg">
<path d="M17.62 18.5663C17.09 18.1163 16.09 18.3863 15.24 19.1563C14.64 18.1563 13.77 17.6163 13.13 17.8963C12.49 18.1763 12.27 19.5163 12.83 20.7963C12.9758 21.2259 13.2241 21.6134 13.5534 21.9253C13.8828 22.2372 14.2832 22.4641 14.72 22.5863C15.174 22.6004 15.6243 22.5019 16.0309 22.2995C16.4375 22.097 16.7876 21.7971 17.05 21.4263C17.97 20.3763 18.24 19.0863 17.62 18.5663Z" fill="#FFC5D2"/>
<path d="M19.05 10.0364C18.57 9.91635 18.05 10.4164 17.75 11.1864C17.06 10.7564 16.32 10.6964 16.02 11.0864C15.72 11.4764 16.02 12.3864 16.78 12.9964C16.9871 13.2555 17.2696 13.4439 17.5885 13.5355C17.9073 13.627 18.2467 13.6172 18.5597 13.5074C18.8728 13.3975 19.1439 13.1931 19.3356 12.9224C19.5274 12.6517 19.6303 12.3281 19.63 11.9964C19.86 11.0464 19.6 10.1664 19.05 10.0364Z" fill="#FFC5D2"/>
<path d="M43.42 9.75634C43.83 11.0063 46.14 17.9963 41.94 21.4363C39.11 23.7663 34.18 23.8263 32.51 21.6963C30.68 19.3363 34.32 16.2263 33.62 9.75634C33.12 5.04634 29.84 2.45634 30.99 1.11634C31.86 0.116341 34.26 0.846341 35.13 1.11634C37.0864 1.81641 38.8535 2.9612 40.292 4.46051C41.7306 5.95983 42.8014 7.77272 43.42 9.75634Z" fill="#3F469A"/>
<path d="M35.34 18.5063C36.34 21.8763 39.82 32.8763 33.7 41.1163C28.7 47.8263 19.7 49.5463 18.7 48.1863C18.41 47.7963 18.34 46.6263 17.35 46.0663C16.95 45.8363 16.83 45.9563 16.52 45.7063C15.8 45.1263 16.23 44.2563 15.58 43.3563C15.15 42.7563 14.84 42.9663 14.29 42.3563C13.7222 41.6809 13.4263 40.8181 13.46 39.9363C13.52 38.2963 15.03 37.8063 16.05 36.2863C18.19 33.1163 15.05 30.2863 17.05 26.8563C18.47 24.3763 20.57 25.2563 21.52 22.8563C22.59 20.1663 20.52 17.7363 22.11 15.6063C22.65 14.9063 22.99 15.0163 23.76 14.3663C26.98 11.6463 25.12 6.00634 26.41 5.47634C27.7 4.94634 32.86 10.5363 35.34 18.5063Z" fill="#3F469A"/>
<path d="M18.98 48.7663C18.5688 48.7892 18.1634 48.6612 17.84 48.4063C17.4886 48.0408 17.2133 47.6091 17.03 47.1363C16.9218 46.8262 16.7478 46.543 16.52 46.3063C16.4063 46.2448 16.2854 46.1977 16.16 46.1663C15.98 46.1317 15.8116 46.0526 15.67 45.9363C15.4883 45.7749 15.3414 45.5781 15.2383 45.3581C15.1351 45.138 15.0778 44.8993 15.07 44.6563C15.0344 44.2534 14.9005 43.8654 14.68 43.5263C14.5485 43.3372 14.3641 43.1911 14.15 43.1063C13.8642 42.9731 13.609 42.7824 13.4 42.5463C12.7891 41.8251 12.4715 40.9007 12.51 39.9563C12.5629 39.4704 12.7176 39.0012 12.964 38.579C13.2104 38.1569 13.5429 37.7914 13.94 37.5063C14.3898 37.1106 14.7924 36.6643 15.14 36.1763C16.14 34.6463 15.92 33.1763 15.64 31.6463C15.1529 30.0237 15.3105 28.2757 16.08 26.7663C16.6396 25.7966 17.515 25.0483 18.56 24.6463C19.0096 24.5025 19.422 24.2612 19.7677 23.9397C20.1134 23.6182 20.3839 23.2244 20.56 22.7863C20.9145 21.6686 20.9526 20.4744 20.67 19.3363C20.46 18.0463 20.25 16.7063 21.18 15.4863C21.3052 15.32 21.4495 15.169 21.61 15.0363C22.0142 14.6982 22.4574 14.4095 22.93 14.1763C23.26 14.0163 24.13 12.9063 26.24 7.17635L26.71 7.34634C24.47 13.4163 23.6 14.4063 23.13 14.6163C22.6997 14.8399 22.2942 15.108 21.92 15.4163C21.7896 15.519 21.675 15.6403 21.58 15.7763C20.78 16.8263 20.96 17.9463 21.16 19.2463C21.4668 20.4746 21.4182 21.7647 21.02 22.9663C20.8227 23.4594 20.5214 23.904 20.1365 24.2699C19.7516 24.6357 19.2923 24.9142 18.79 25.0863C17.8388 25.4484 17.041 26.1262 16.53 27.0063C15.62 28.5863 15.88 30.0063 16.15 31.5463C16.42 33.0863 16.72 34.7463 15.58 36.4463C15.1906 36.9766 14.7409 37.4599 14.24 37.8863C13.891 38.1282 13.5974 38.4413 13.3785 38.805C13.1596 39.1688 13.0203 39.5748 12.97 39.9963C12.9434 40.8104 13.2135 41.6065 13.73 42.2363C13.8959 42.4246 14.1006 42.5747 14.33 42.6763C14.6164 42.7992 14.8624 43.0002 15.04 43.2563C15.314 43.6536 15.4794 44.1155 15.52 44.5963C15.5205 44.7825 15.5579 44.9667 15.63 45.1383C15.7021 45.31 15.8074 45.4656 15.94 45.5963C16.0269 45.667 16.13 45.7151 16.24 45.7363C16.4114 45.7764 16.5763 45.8404 16.73 45.9263C17.0669 46.1989 17.3171 46.5638 17.45 46.9763C17.6009 47.3847 17.8321 47.7588 18.13 48.0763C18.53 48.4163 19.28 48.4063 20.38 48.0763L20.54 48.5463C20.0352 48.7033 19.5084 48.7776 18.98 48.7663Z" fill="#3F469A"/>
<path d="M47.94 44.0664L52.77 42.4164C53.2476 38.2888 53.2878 34.1224 52.89 29.9864C52.7033 28.073 52.4467 26.2864 52.12 24.6264C51.33 21.6264 48.99 20.2364 47.75 20.6264C46.51 21.0164 45.85 23.0464 46.35 25.3964L47.94 44.0664Z" fill="#FF8C64"/>
<path d="M48.49 53.9763C49.82 56.5263 46.59 62.0563 45.65 63.5963C43.1293 64.9096 40.322 65.5763 37.48 65.5364C30.04 65.3964 25.33 60.2463 24.48 59.2363C25.0993 58.6295 25.6221 57.9314 26.03 57.1663C27.12 55.0463 27.86 51.2863 28.13 50.6763L28.52 49.8363C29.75 47.0363 29.02 44.3363 28.52 40.5563C28.36 39.2863 28.23 37.9363 28.11 36.5563C27.86 33.6463 27.67 30.7063 27.3 28.3663V28.2164C27.2108 27.6073 27.0907 27.0032 26.94 26.4063C26.89 26.1463 26.85 25.8963 26.82 25.6463C26.79 25.3963 26.82 25.4263 26.82 25.3163C26.7252 24.5132 26.7556 23.7002 26.91 22.9063C26.9975 22.7313 27.1049 22.5669 27.23 22.4163C28.45 20.8663 30.74 21.0163 32.66 19.6963L32.97 19.4763L33.05 19.4063C34.3234 19.2767 35.6066 19.2767 36.88 19.4063C41.35 19.7463 41.33 21.2063 44.42 20.8163C46.24 20.5963 47.3 20.4264 48.48 21.1264C48.87 21.3464 50.1 22.0164 50.65 24.6263C50.6451 24.6528 50.6451 24.6799 50.65 24.7063C49.41 28.0863 48.48 30.9463 47.83 33.0763C47.49 34.183 47.19 35.213 46.93 36.1663C46.23 38.5963 45.77 40.5663 45.48 42.1663C44.63 46.6763 45.1 48.2463 45.6 49.3163C46.0918 50.277 46.6997 51.1738 47.41 51.9863C47.8138 52.6249 48.1746 53.2897 48.49 53.9763Z" fill="#FF8C64"/>
<path d="M33.24 32.3364C33.2394 33.2462 32.9548 34.1331 32.426 34.8735C31.8972 35.6139 31.1504 36.1707 30.29 36.4664C29.8328 36.6229 29.3532 36.704 28.87 36.7064C28.6014 36.7055 28.3335 36.6787 28.07 36.6264C27.1549 36.4566 26.3179 35.9991 25.681 35.3205C25.044 34.6419 24.6403 33.7776 24.5287 32.8537C24.4171 31.9297 24.6035 30.9942 25.0606 30.1835C25.5176 29.3727 26.2216 28.7291 27.07 28.3464L27.22 28.2864C27.8828 28.0199 28.6009 27.92 29.3113 27.9954C30.0217 28.0708 30.7028 28.3192 31.2949 28.7189C31.887 29.1186 32.3721 29.6573 32.7077 30.288C33.0434 30.9186 33.2193 31.622 33.22 32.3364H33.24Z" fill="#FF8C64"/>
<path d="M36.79 30.5464C36.79 31.2383 36.9958 31.9146 37.3811 32.4894C37.7663 33.0641 38.3138 33.5114 38.9538 33.7743C39.5939 34.0373 40.2977 34.104 40.9757 33.9661C41.6538 33.8281 42.2755 33.4918 42.762 32.9997C43.2484 32.5076 43.5776 31.882 43.7077 31.2024C43.8379 30.5228 43.763 29.8198 43.4927 29.1828C43.2224 28.5459 42.7689 28.0036 42.1897 27.625C41.6105 27.2463 40.9319 27.0484 40.24 27.0564C39.3205 27.0643 38.4416 27.4358 37.7951 28.0897C37.1487 28.7436 36.7873 29.6268 36.79 30.5464Z" fill="#FF8C64"/>
<path d="M50.55 24.6663C39.94 25.0663 35.83 23.8463 28.48 25.3263C28.19 25.3863 27.57 25.5163 26.76 25.7163C26.4485 25.0221 26.385 24.2419 26.58 23.5063C26.6298 23.3208 26.7037 23.1426 26.8 22.9763C26.8873 22.8034 26.9911 22.6393 27.11 22.4863C28.34 20.9363 30.63 21.0863 32.54 19.7663L32.85 19.5463L32.94 19.4763C33.2203 19.2326 33.4512 18.9372 33.62 18.6063C34.1816 17.3744 34.2425 15.9724 33.79 14.6963C33.5749 14.105 33.2567 13.5565 32.85 13.0763L35.33 11.5763L37.98 9.45634C38.34 10.4063 38.87 11.7463 39.57 13.3463C41.05 16.7263 41.84 18.4063 42.77 19.1363C45.45 21.2363 48.65 19.5563 50.11 21.5963C50.6571 22.5211 50.8154 23.6251 50.55 24.6663Z" fill="#FF8C64"/>
<path d="M37.18 20.6564C37.1019 20.8128 36.9741 20.9388 36.8167 21.0148C36.6592 21.0908 36.481 21.1125 36.31 21.0764C36.1545 21.0147 36.0155 20.9175 35.9044 20.7924C35.7932 20.6674 35.7129 20.518 35.67 20.3564L37.18 20.6564Z" fill="#EA522F"/>
<path d="M35.34 21.6863C35.2062 21.7879 35.0621 21.875 34.91 21.9464C34.4344 22.1627 33.9042 22.229 33.39 22.1363C32.3811 22.0053 31.3797 21.8217 30.39 21.5863L33.25 21.7363L35.34 21.6863Z" fill="#EA522F"/>
<path d="M37.18 21.6863C37.3944 21.7867 37.6148 21.8735 37.84 21.9464C38.5893 22.1647 39.3751 22.2294 40.15 22.1363C42.15 21.9663 44.03 21.6863 44.66 21.5863L40.32 21.7363L37.18 21.6863Z" fill="#EA522F"/>
<path d="M31.91 58.0763C38.0956 58.0763 43.11 53.0619 43.11 46.8763C43.11 40.6908 38.0956 35.6763 31.91 35.6763C25.7244 35.6763 20.71 40.6908 20.71 46.8763C20.71 53.0619 25.7244 58.0763 31.91 58.0763Z" fill="#FF8C64"/>
<path d="M36.45 17.3463C36.2761 17.8731 35.9009 18.3096 35.4063 18.5607C34.9117 18.8118 34.3378 18.8569 33.81 18.6863L33.62 18.6063C34.1816 17.3744 34.2425 15.9724 33.79 14.6963C34.2634 14.4731 34.8056 14.4444 35.3 14.6163C35.8136 14.827 36.2229 15.2324 36.4384 15.744C36.6539 16.2556 36.658 16.8317 36.45 17.3463Z" fill="#EA522F"/>
<path d="M38.91 12.1264C38.3168 13.9821 37.2109 15.6322 35.72 16.8864C35.4896 17.0695 35.2335 17.2178 34.96 17.3263C34.6817 17.4418 34.389 17.5192 34.09 17.5563C32.81 17.7263 30.86 16.3063 30.69 16.1863C29.8134 15.6425 29.0851 14.8901 28.57 13.9964C28.18 13.2164 28.25 12.8064 27.66 11.5364C27.34 10.8664 27.14 10.5364 26.89 10.1364V10.0764C26.8 9.91635 26.7 9.73635 26.6 9.53635C26.4914 9.34574 26.3946 9.14871 26.31 8.94635C25.6637 7.75066 25.4787 6.35939 25.79 5.03635C26.1892 3.97154 26.8828 3.0421 27.79 2.35635C28.0866 2.12719 28.3972 1.91678 28.72 1.72635L29.08 1.52635C30.0135 1.05182 31.0333 0.770895 32.0781 0.700438C33.1229 0.629981 34.1712 0.771451 35.16 1.11635C39.16 2.88635 39.89 8.71635 38.91 12.1264Z" fill="#FF8C64"/>
<path d="M35.49 8.81635C35.2036 9.30184 34.7638 9.67826 34.24 9.88635C33.96 9.99635 33.32 10.2464 32.95 9.88635C32.862 9.80386 32.7938 9.70254 32.7505 9.58998C32.7072 9.47742 32.69 9.35653 32.7 9.23635C32.7233 9.02219 32.8226 8.82349 32.98 8.67635C33.2273 8.42453 33.5462 8.25491 33.8932 8.19051C34.2403 8.12611 34.5987 8.17004 34.92 8.31635C35.1464 8.43621 35.3416 8.60745 35.49 8.81635Z" fill="#EA522F"/>
<path d="M33.37 10.2663C33.2103 10.2812 33.0496 10.2812 32.89 10.2663C32.8547 10.2648 32.8201 10.2558 32.7886 10.24C32.757 10.2241 32.7291 10.2017 32.7068 10.1743C32.6846 10.1469 32.6683 10.1151 32.6592 10.081C32.6501 10.0468 32.6484 10.0112 32.654 9.97629C32.6597 9.94143 32.6728 9.90816 32.6923 9.8787C32.7117 9.84923 32.7372 9.82422 32.7671 9.80533C32.7969 9.78644 32.8305 9.77409 32.8654 9.76909C32.9004 9.76409 32.936 9.76656 32.97 9.77634C33.3233 9.83676 33.6857 9.81624 34.03 9.71634C34.6532 9.53376 35.1872 9.12789 35.53 8.57634C35.5482 8.54851 35.5717 8.52459 35.5992 8.50596C35.6267 8.48734 35.6577 8.47439 35.6903 8.46787C35.7229 8.46135 35.7565 8.4614 35.789 8.468C35.8216 8.47461 35.8525 8.48764 35.88 8.50634C35.9075 8.52356 35.9312 8.54617 35.9497 8.57282C35.9682 8.59947 35.9812 8.62959 35.9877 8.66137C35.9942 8.69315 35.9943 8.72593 35.9878 8.75772C35.9813 8.78951 35.9684 8.81966 35.95 8.84634C35.5398 9.50128 34.9025 9.98195 34.16 10.1963C33.9017 10.2592 33.6353 10.2828 33.37 10.2663Z" fill="#122275"/>
<path d="M27.93 12.0463C28.3877 12.1499 28.8651 12.1257 29.31 11.9763C29.54 11.8963 30.31 11.6463 30.31 11.1763C30.3046 11.0552 30.2711 10.9371 30.2121 10.8312C30.1531 10.7253 30.0702 10.6346 29.97 10.5663C29.8598 10.4887 29.7332 10.4373 29.6 10.4163C29.01 10.3063 27.84 10.5763 27.71 11.2863C27.693 11.4213 27.7038 11.5583 27.7417 11.689C27.7795 11.8197 27.8436 11.9413 27.93 12.0463Z" fill="#EA522F"/>
<path d="M28.32 12.4163C27.9811 12.4156 27.6442 12.365 27.32 12.2663C27.2563 12.2465 27.2032 12.2021 27.1722 12.143C27.1413 12.0839 27.1351 12.015 27.155 11.9513C27.1749 11.8877 27.2193 11.8345 27.2783 11.8036C27.3374 11.7727 27.4064 11.7665 27.47 11.7863C28.0896 11.9899 28.7625 11.9579 29.36 11.6963C29.6832 11.5463 29.9725 11.332 30.21 11.0663C30.2324 11.0424 30.2596 11.0234 30.2897 11.0103C30.3197 10.9973 30.3522 10.9906 30.385 10.9906C30.4178 10.9906 30.4503 10.9973 30.4804 11.0103C30.5105 11.0234 30.5376 11.0424 30.56 11.0663C30.6058 11.1131 30.6315 11.1759 30.6315 11.2413C30.6315 11.3068 30.6058 11.3696 30.56 11.4163C30.2811 11.7403 29.9336 11.9981 29.5427 12.1711C29.1518 12.344 28.7273 12.4278 28.3 12.4163H28.32Z" fill="#122275"/>
<path d="M35.69 6.70634C34.9706 6.77356 34.2621 6.92802 33.58 7.16634C32.9901 7.37782 32.4264 7.65631 31.9 7.99634C31.8642 7.88594 31.8407 7.77191 31.83 7.65634C31.818 7.40075 31.8588 7.14543 31.95 6.90634C32.52 6.71634 33 6.57634 33.36 6.48634C33.7755 6.34796 34.2122 6.28365 34.65 6.29634C35.0276 6.33554 35.3873 6.47733 35.69 6.70634Z" fill="#122275"/>
<path d="M31.63 6.99635C31.6118 7.14245 31.6118 7.29025 31.63 7.43635C31.6154 7.64718 31.6679 7.85722 31.78 8.03635C31.7966 7.87344 31.7966 7.70926 31.78 7.54635C31.7552 7.37725 31.7552 7.20545 31.78 7.03635C31.7727 6.99669 31.7727 6.95602 31.78 6.91635L31.63 6.99635Z" fill="#122275"/>
<path d="M28.99 9.41635C28.373 9.53539 27.7722 9.72671 27.2 9.98635L26.89 10.1363V10.0763C26.8 9.91635 26.7 9.73634 26.6 9.53634L26.94 9.33635C27.26 9.16635 27.69 8.92635 28.24 8.67635C28.4736 8.77532 28.6796 8.92978 28.84 9.12634C28.9009 9.21697 28.9512 9.31427 28.99 9.41635Z" fill="#122275"/>
<path d="M28.5 8.51634C28.623 8.59717 28.734 8.69478 28.83 8.80634C28.9798 8.95133 29.0871 9.13465 29.14 9.33634C29.14 9.33634 28.86 9.07634 28.79 8.98634C28.6858 8.8515 28.5648 8.73052 28.43 8.62634L28.33 8.55634L28.5 8.51634Z" fill="#122275"/>
<path d="M31.9 12.1863C31.6888 12.1761 31.4786 12.2209 31.29 12.3163C31.0937 12.3985 30.9241 12.5335 30.8 12.7063C31.0111 12.711 31.2204 12.6665 31.4114 12.5762C31.6023 12.486 31.7696 12.3525 31.9 12.1863Z" fill="#EA522F"/>
<path d="M31.33 14.6964C31.2976 14.6977 31.2654 14.6925 31.2351 14.681C31.2048 14.6696 31.1771 14.6521 31.1538 14.6297C31.1304 14.6073 31.1118 14.5804 31.0992 14.5506C31.0865 14.5208 31.08 14.4887 31.08 14.4564C31.0798 14.3907 31.1044 14.3275 31.1489 14.2792C31.1934 14.231 31.2545 14.2014 31.32 14.1964C31.9374 14.1897 32.5443 14.0354 33.09 13.7464C33.5689 13.4993 33.9938 13.1593 34.34 12.7464C34.361 12.7207 34.3869 12.6995 34.4161 12.6839C34.4453 12.6683 34.4773 12.6586 34.5103 12.6553C34.5432 12.6521 34.5765 12.6554 34.6082 12.665C34.6399 12.6746 34.6694 12.6903 34.695 12.7114C34.7206 12.7324 34.7418 12.7582 34.7574 12.7874C34.7731 12.8166 34.7828 12.8486 34.786 12.8816C34.7893 12.9146 34.786 12.9479 34.7764 12.9795C34.7668 13.0112 34.751 13.0407 34.73 13.0664C34.3408 13.5367 33.8614 13.9243 33.32 14.2064C32.7009 14.5252 32.0163 14.6963 31.32 14.7064L31.33 14.6964Z" fill="#EA522F"/>
<path d="M31.58 14.6263C31.69 14.8163 32.42 14.6263 33.05 14.3563C33.68 14.0863 34.4 13.6463 34.32 13.3563C34.32 13.3563 34.18 13.2763 33.95 13.2063C33.01 12.9463 32.86 12.9063 32.72 12.9863C32.618 13.0599 32.5071 13.1204 32.39 13.1663H32.26C32.01 13.2363 31.98 13.1663 31.89 13.2563C31.776 13.4426 31.7012 13.6502 31.67 13.8663C31.6407 13.9581 31.6173 14.0516 31.6 14.1463C31.57 14.4563 31.55 14.5663 31.58 14.6263Z" fill="#EA522F"/>
<path d="M32.96 15.3963C32.9013 15.3922 32.846 15.3674 32.8037 15.3264C32.7615 15.2855 32.735 15.2309 32.7291 15.1724C32.7231 15.1138 32.738 15.055 32.7711 15.0064C32.8042 14.9577 32.8534 14.9223 32.91 14.9063L33.29 14.7863C33.5704 14.666 33.825 14.4928 34.04 14.2763C34.0867 14.2305 34.1496 14.2049 34.215 14.2049C34.2804 14.2049 34.3433 14.2305 34.39 14.2763C34.4142 14.2997 34.4334 14.3276 34.4466 14.3586C34.4597 14.3895 34.4665 14.4227 34.4665 14.4563C34.4665 14.4899 34.4597 14.5232 34.4466 14.5541C34.4334 14.5851 34.4142 14.613 34.39 14.6363C34.1328 14.9038 33.823 15.1149 33.48 15.2563C33.3303 15.3168 33.1766 15.3669 33.02 15.4063L32.96 15.3963Z" fill="#EA522F"/>
<path d="M32.53 30.1464C32.35 30.1464 32.26 29.9864 32.29 29.8564L32.52 28.5564C32.5322 28.4915 32.5695 28.4341 32.6238 28.3966C32.6781 28.3591 32.7451 28.3447 32.81 28.3564C32.8749 28.3685 32.9323 28.4058 32.9698 28.4601C33.0072 28.5145 33.0217 28.5814 33.01 28.6464L32.78 29.9364C32.7704 29.9955 32.7399 30.0493 32.694 30.0878C32.6481 30.1263 32.5899 30.1471 32.53 30.1464Z" fill="#EA522F"/>
<path d="M32.65 28.7663C32.6075 28.7667 32.5657 28.7558 32.5288 28.7347C32.4919 28.7137 32.4612 28.6831 32.44 28.6463L31.94 27.8563C31.9201 27.8288 31.9061 27.7975 31.8988 27.7644C31.8914 27.7312 31.8909 27.6969 31.8972 27.6636C31.9035 27.6302 31.9166 27.5985 31.9356 27.5704C31.9546 27.5423 31.9791 27.5183 32.0076 27.4999C32.0362 27.4816 32.0682 27.4692 32.1017 27.4636C32.1352 27.458 32.1694 27.4593 32.2024 27.4674C32.2353 27.4755 32.2663 27.4902 32.2934 27.5107C32.3205 27.5311 32.3432 27.5569 32.36 27.5863L32.86 28.3863C32.8937 28.4422 32.9042 28.5091 32.8892 28.5726C32.8743 28.6362 32.8351 28.6913 32.78 28.7263C32.742 28.7531 32.6965 28.7671 32.65 28.7663Z" fill="#EA522F"/>
<path d="M32.77 28.8864C32.7081 28.8864 32.6481 28.8652 32.6 28.8264C32.5535 28.7779 32.5276 28.7134 32.5276 28.6464C32.5276 28.5793 32.5535 28.5148 32.6 28.4664L33.46 27.4664C33.4824 27.4424 33.5095 27.4234 33.5396 27.4103C33.5697 27.3973 33.6022 27.3906 33.635 27.3906C33.6678 27.3906 33.7002 27.3973 33.7303 27.4103C33.7604 27.4234 33.7876 27.4424 33.81 27.4664C33.8342 27.4897 33.8534 27.5176 33.8666 27.5486C33.8797 27.5795 33.8865 27.6127 33.8865 27.6464C33.8865 27.68 33.8797 27.7132 33.8666 27.7441C33.8534 27.7751 33.8342 27.803 33.81 27.8264L32.94 28.8264C32.9179 28.8483 32.8912 28.8651 32.8618 28.8755C32.8324 28.8859 32.801 28.8896 32.77 28.8864Z" fill="#EA522F"/>
<path d="M46.83 36.1464C46.13 38.5764 45.67 40.5464 45.38 42.1464C41.8544 38.9997 37.4367 37.0286 32.74 36.5064C31.9355 36.4329 31.1277 36.4028 30.32 36.4164C29.53 36.4164 28.79 36.4964 28.1 36.5764C27.0565 36.4976 26.0794 36.0349 25.3572 35.2776C24.635 34.5204 24.2192 33.5223 24.19 32.4764C24.2107 31.6081 24.4968 30.767 25.01 30.0664C25.5305 29.3016 26.2496 28.6931 27.09 28.3064L27.26 28.3864C28.3281 28.9165 29.4563 29.316 30.62 29.5764C31.2486 29.716 31.8873 29.8063 32.53 29.8464C33.986 29.9379 35.4475 29.8742 36.89 29.6564C37.4393 29.6247 37.9848 29.5444 38.52 29.4164C39.091 29.2328 39.6306 28.9631 40.12 28.6164L46.83 36.1464Z" fill="#FFC5D2"/>
<path d="M27.24 28.8863C27.1707 28.9006 27.0993 28.9006 27.03 28.8863C26.9088 28.8298 26.8147 28.7278 26.7679 28.6025C26.7211 28.4772 26.7255 28.3385 26.78 28.2163L30.28 20.4763C30.3346 20.3558 30.4347 20.2619 30.5584 20.215C30.6821 20.1682 30.8193 20.1722 30.94 20.2263C31.0033 20.2497 31.0613 20.2853 31.1106 20.3312C31.16 20.3771 31.1998 20.4324 31.2277 20.4938C31.2556 20.5551 31.2711 20.6214 31.2732 20.6888C31.2753 20.7562 31.264 20.8233 31.24 20.8863L27.74 28.6263C27.6935 28.7159 27.6206 28.7889 27.5311 28.8354C27.4416 28.882 27.34 28.8997 27.24 28.8863Z" fill="#FFC5D2"/>
<path d="M39.59 30.1163C39.5141 30.1314 39.4359 30.1314 39.36 30.1163C39.2433 30.0527 39.156 29.946 39.1168 29.819C39.0775 29.692 39.0895 29.5547 39.15 29.4363L44.24 19.7263C44.2651 19.6603 44.3039 19.6003 44.3538 19.5504C44.4038 19.5004 44.4638 19.4616 44.5298 19.4365C44.5959 19.4114 44.6665 19.4006 44.737 19.4048C44.8076 19.409 44.8764 19.4281 44.939 19.4608C45.0016 19.4935 45.0566 19.5392 45.1003 19.5947C45.144 19.6502 45.1754 19.7144 45.1925 19.7829C45.2096 19.8515 45.212 19.9229 45.1995 19.9924C45.187 20.0619 45.1599 20.128 45.12 20.1863L40.03 29.8863C39.9846 29.9611 39.9196 30.0221 39.842 30.0627C39.7645 30.1032 39.6773 30.1218 39.59 30.1163Z" fill="#FFC5D2"/>
<path d="M30.89 54.3063L31.89 56.0063C37.4982 54.7865 42.8273 52.524 47.6 49.3363C48.8605 48.4731 50.0755 47.5452 51.24 46.5563C51.6218 46.3966 51.9665 46.1596 52.2523 45.8602C52.5381 45.5608 52.7589 45.2055 52.9007 44.8167C53.0425 44.4278 53.1023 44.0138 53.0764 43.6007C53.0505 43.1877 52.9393 42.7844 52.75 42.4163C52.4756 42.1108 52.1414 41.8648 51.768 41.6936C51.3947 41.5225 50.9901 41.4298 50.5795 41.4214C50.1689 41.413 49.7609 41.4889 49.3808 41.6446C49.0008 41.8002 48.6567 42.0323 48.37 42.3263C47.2627 42.7922 46.187 43.33 45.15 43.9363C39.86 47.0563 38.57 50.3163 33.36 53.1363C32.5599 53.5736 31.7352 53.9643 30.89 54.3063Z" fill="#FF8C64"/>
<path d="M32.02 54.0663C31.9659 54.0625 31.9145 54.0412 31.8735 54.0056C31.8326 53.97 31.8044 53.9221 31.7931 53.869C31.7818 53.8159 31.7881 53.7606 31.811 53.7115C31.8339 53.6623 31.8721 53.6219 31.92 53.5963C32.37 53.3863 32.82 53.1563 33.26 52.9163C35.4739 51.6923 37.4955 50.1491 39.26 48.3363C41.0073 46.5669 42.9653 45.0186 45.09 43.7263L45.23 43.6463C45.2864 43.6209 45.3502 43.6172 45.4092 43.6361C45.4681 43.6549 45.518 43.695 45.5491 43.7485C45.5802 43.802 45.5903 43.8652 45.5776 43.9257C45.5648 43.9863 45.53 44.0399 45.48 44.0764L45.34 44.1563C43.2514 45.4295 41.327 46.9543 39.61 48.6963C37.83 50.539 35.788 52.1092 33.55 53.3563C33.1 53.5963 32.64 53.8364 32.18 54.0464L32.02 54.0663Z" fill="#EA522F"/>
<path d="M33.03 55.9763C32.9637 55.9843 32.8969 55.9656 32.8444 55.9243C32.7919 55.8831 32.758 55.8227 32.75 55.7564C32.742 55.6901 32.7607 55.6233 32.802 55.5708C32.8433 55.5183 32.9037 55.4843 32.97 55.4763C37.5935 54.3518 42.011 52.5059 46.06 50.0064C46.0881 49.9881 46.1195 49.9757 46.1525 49.9698C46.1855 49.964 46.2193 49.9648 46.2519 49.9723C46.2846 49.9797 46.3154 49.9937 46.3425 50.0133C46.3697 50.0329 46.3926 50.0577 46.41 50.0863C46.4413 50.1428 46.4504 50.2089 46.4356 50.2718C46.4208 50.3346 46.3831 50.3897 46.33 50.4264C42.2332 52.9534 37.7656 54.8227 33.09 55.9664L33.03 55.9763Z" fill="#EA522F"/>
<path d="M31.76 54.0063C29.5868 52.4569 27.1557 51.3056 24.58 50.6063C24.511 50.6368 24.4489 50.6808 24.3974 50.7357C24.3458 50.7907 24.3059 50.8556 24.28 50.9263C24.2278 51.0546 24.2278 51.1981 24.28 51.3263C23.8853 51.0166 23.547 50.6411 23.28 50.2163C22.96 49.7063 22.56 49.4663 22.39 49.5563C22.22 49.6463 22.21 50.1163 22.47 50.6563C22.4038 50.7026 22.3463 50.7602 22.3 50.8263C22.2017 50.9944 22.1434 51.1828 22.1295 51.377C22.1156 51.5712 22.1466 51.766 22.22 51.9463C22.2045 52.136 22.2045 52.3267 22.22 52.5163C22.2444 53.431 22.5675 54.3126 23.14 55.0263L21.68 54.4163C21.33 54.4163 21.21 54.4163 21.18 54.4863C21.04 54.8263 23.12 56.4863 25.58 56.8663C26.9235 56.9683 28.2746 56.8501 29.58 56.5163C30.6627 56.3284 31.7343 56.0814 32.79 55.7763C32.46 55.1863 32.11 54.5963 31.76 54.0063Z" fill="#FF8C64"/>
<path d="M26.43 57.1763C26.129 57.1763 25.8283 57.1562 25.53 57.1164C23.7945 56.8756 22.193 56.0502 20.99 54.7763C20.9535 54.7209 20.9301 54.6579 20.9215 54.5921C20.9128 54.5263 20.9191 54.4594 20.94 54.3964C21.06 54.1064 21.49 54.1463 21.7 54.1663H21.77L22.48 54.4664C22.142 53.8532 21.96 53.1664 21.95 52.4664C21.9351 52.28 21.9351 52.0927 21.95 51.9063C21.8677 51.6964 21.8366 51.47 21.8592 51.2456C21.8818 51.0213 21.9575 50.8056 22.08 50.6164L22.15 50.5263C21.95 50.0163 21.93 49.4563 22.25 49.2763C22.57 49.0963 23.14 49.5063 23.47 50.0263C23.6311 50.2729 23.8189 50.501 24.03 50.7063C24.1154 50.5278 24.2656 50.3883 24.45 50.3163C24.4989 50.3016 24.5511 50.3016 24.6 50.3163C26.5143 50.8363 28.353 51.6027 30.07 52.5963C30.68 52.9463 31.29 53.3363 31.87 53.7463C31.8974 53.7651 31.9206 53.7894 31.9382 53.8177C31.9557 53.8459 31.9672 53.8775 31.9719 53.9104C31.9766 53.9433 31.9744 53.9768 31.9655 54.0088C31.9565 54.0408 31.941 54.0706 31.92 54.0963C31.903 54.1242 31.8803 54.1482 31.8533 54.1666C31.8263 54.185 31.7957 54.1975 31.7636 54.2032C31.7314 54.2089 31.6984 54.2076 31.6667 54.1995C31.6351 54.1915 31.6055 54.1767 31.58 54.1563C31.01 53.7563 30.42 53.3763 29.82 53.0263C28.1721 52.0698 26.4075 51.3303 24.57 50.8264C24.5242 50.8563 24.4919 50.9029 24.48 50.9563C24.48 51.0163 24.48 51.1063 24.48 51.1763C24.5047 51.2251 24.5112 51.2811 24.4984 51.3342C24.4856 51.3874 24.4542 51.4342 24.41 51.4664C24.3667 51.503 24.3118 51.5231 24.255 51.5231C24.1983 51.5231 24.1433 51.503 24.1 51.4664C23.6765 51.1402 23.3113 50.7446 23.02 50.2964C22.8941 50.0667 22.7073 49.8764 22.48 49.7463C22.466 50.0061 22.5212 50.2649 22.64 50.4963C22.6671 50.5488 22.674 50.6094 22.6592 50.6666C22.6445 50.7238 22.6092 50.7736 22.56 50.8063L22.45 50.9163C22.3797 51.0559 22.343 51.2101 22.343 51.3664C22.343 51.5227 22.3797 51.6768 22.45 51.8163C22.4598 51.8524 22.4598 51.8903 22.45 51.9263C22.4397 52.1029 22.4397 52.2798 22.45 52.4563C22.4815 53.3173 22.7902 54.145 23.33 54.8163C23.3633 54.8612 23.3813 54.9155 23.3813 54.9713C23.3813 55.0272 23.3633 55.0815 23.33 55.1263C23.2961 55.1714 23.2476 55.203 23.1927 55.2158C23.1379 55.2286 23.0803 55.2217 23.03 55.1963L21.61 54.6063H21.52C22.6514 55.6632 24.0716 56.3594 25.6 56.6063C26.906 56.7111 28.2203 56.5996 29.49 56.2763H29.57C30.5239 56.1173 31.4687 55.907 32.4 55.6464C32.4322 55.6373 32.4658 55.6349 32.499 55.6391C32.5322 55.6433 32.5641 55.6541 32.593 55.6709C32.6219 55.6877 32.6471 55.7101 32.6672 55.7368C32.6873 55.7635 32.7019 55.7939 32.71 55.8264C32.7189 55.8579 32.7213 55.8909 32.717 55.9234C32.7127 55.9559 32.7017 55.9872 32.6849 56.0153C32.668 56.0434 32.6456 56.0678 32.6189 56.0869C32.5923 56.106 32.562 56.1194 32.53 56.1263C31.59 56.3863 30.62 56.6063 29.65 56.7763H29.57C28.5364 56.9973 27.486 57.1311 26.43 57.1763Z" fill="#EA522F"/>
<path d="M27.24 53.4163H27.14C26.6696 53.2287 26.2176 52.9977 25.79 52.7263C25.2237 52.383 24.703 51.9698 24.24 51.4963C24.2039 51.4482 24.1863 51.3886 24.1906 51.3286C24.1949 51.2686 24.2206 51.2121 24.2632 51.1696C24.3058 51.127 24.3622 51.1012 24.4223 51.097C24.4823 51.0927 24.5418 51.1102 24.59 51.1463C25.0127 51.5745 25.4823 51.9535 25.99 52.2763C26.3952 52.5356 26.8238 52.7565 27.27 52.9363C27.3008 52.9474 27.329 52.9645 27.3529 52.9869C27.3768 53.0092 27.3959 53.0362 27.409 53.0661C27.4222 53.0961 27.429 53.1284 27.4292 53.1611C27.4293 53.1938 27.4228 53.2262 27.41 53.2563C27.3968 53.2948 27.3744 53.3295 27.3448 53.3574C27.3152 53.3853 27.2792 53.4055 27.24 53.4163Z" fill="#EA522F"/>
<path d="M24.43 54.2763C24.3877 54.2757 24.3462 54.2644 24.3095 54.2434C24.2728 54.2224 24.242 54.1925 24.22 54.1563L22.24 50.8863C22.2229 50.8581 22.2116 50.8268 22.2066 50.7942C22.2016 50.7616 22.2031 50.7283 22.211 50.6962C22.2189 50.6642 22.233 50.634 22.2526 50.6075C22.2721 50.5809 22.2967 50.5584 22.325 50.5413C22.3532 50.5243 22.3846 50.5129 22.4172 50.508C22.4498 50.503 22.4831 50.5045 22.5151 50.5124C22.5471 50.5203 22.5773 50.5344 22.6039 50.554C22.6305 50.5735 22.6529 50.5981 22.67 50.6263L24.67 53.9363C24.7028 53.9934 24.7117 54.0612 24.6949 54.1248C24.678 54.1885 24.6367 54.2429 24.58 54.2763C24.5319 54.2958 24.4781 54.2958 24.43 54.2763Z" fill="#EA522F"/>
<path d="M25.51 54.5363H25.45L24.38 54.2763C24.3478 54.2693 24.3172 54.2558 24.2902 54.2369C24.2632 54.218 24.2401 54.1938 24.2225 54.1659C24.2048 54.138 24.1928 54.1069 24.1873 54.0744C24.1817 54.0419 24.1826 54.0085 24.19 53.9763C24.197 53.9443 24.2104 53.914 24.2295 53.8874C24.2486 53.8608 24.273 53.8383 24.3011 53.8214C24.3292 53.8046 24.3604 53.7937 24.3929 53.7893C24.4254 53.785 24.4585 53.7874 24.49 53.7963L25.57 54.0463C25.6319 54.065 25.6847 54.1061 25.718 54.1615C25.7513 54.217 25.7627 54.2829 25.75 54.3463C25.7367 54.4001 25.7059 54.448 25.6625 54.4824C25.619 54.5168 25.5654 54.5357 25.51 54.5363Z" fill="#EA522F"/>
<path d="M24.08 55.0863C24.0377 55.0857 23.9962 55.0744 23.9595 55.0534C23.9228 55.0324 23.892 55.0025 23.87 54.9663L22.03 52.0863C21.9958 52.0289 21.985 51.9605 21.9999 51.8953C22.0148 51.8301 22.0542 51.7732 22.11 51.7363C22.1659 51.7027 22.2327 51.6922 22.2963 51.7071C22.3598 51.7221 22.415 51.7613 22.45 51.8163L24.3 54.6963C24.3342 54.7538 24.345 54.8222 24.3301 54.8874C24.3152 54.9525 24.2758 55.0095 24.22 55.0463C24.1789 55.0745 24.1298 55.0885 24.08 55.0863Z" fill="#EA522F"/>
<path d="M25.24 55.4063H25.17L24.01 55.0863C23.9459 55.0676 23.8915 55.025 23.858 54.9673C23.8245 54.9096 23.8145 54.8412 23.83 54.7763C23.8486 54.7127 23.8916 54.659 23.9498 54.6271C24.0079 54.5953 24.0763 54.5878 24.14 54.6063L25.31 54.9263C25.3411 54.9344 25.3703 54.9487 25.3959 54.9683C25.4214 54.9878 25.4427 55.0123 25.4585 55.0403C25.4744 55.0683 25.4845 55.0992 25.4882 55.1312C25.4919 55.1631 25.4891 55.1955 25.48 55.2263C25.4664 55.2791 25.4352 55.3257 25.3916 55.3585C25.348 55.3912 25.2945 55.4081 25.24 55.4063Z" fill="#EA522F"/>
<path d="M25.59 56.2563C25.1034 56.1911 24.6265 56.0668 24.17 55.8863C23.7601 55.7246 23.3734 55.5094 23.02 55.2463C22.9929 55.2274 22.9699 55.2033 22.9523 55.1754C22.9346 55.1475 22.9226 55.1164 22.917 55.0838C22.9115 55.0513 22.9124 55.018 22.9198 54.9858C22.9271 54.9536 22.9408 54.9232 22.96 54.8963C22.9788 54.8689 23.0031 54.8457 23.0313 54.8282C23.0595 54.8106 23.0911 54.7991 23.124 54.7944C23.1569 54.7897 23.1904 54.7919 23.2224 54.8009C23.2545 54.8098 23.2843 54.8253 23.31 54.8463C23.6373 55.0782 23.9895 55.2728 24.36 55.4263C24.7656 55.5852 25.1885 55.696 25.62 55.7563C25.6535 55.7587 25.6861 55.768 25.7157 55.7837C25.7454 55.7994 25.7714 55.8211 25.7922 55.8475C25.8129 55.8739 25.8278 55.9043 25.8361 55.9369C25.8443 55.9694 25.8457 56.0033 25.84 56.0363C25.8326 56.0973 25.8031 56.1535 25.757 56.194C25.7108 56.2346 25.6514 56.2568 25.59 56.2563Z" fill="#EA522F"/>
<path d="M24.13 38.7164C23.8472 38.4071 23.6543 38.0264 23.5721 37.6155C23.4899 37.2045 23.5215 36.7789 23.6636 36.3847C23.8057 35.9904 24.0527 35.6425 24.3781 35.3784C24.7035 35.1143 25.0949 34.9442 25.51 34.8863L28.39 34.1163C28.7422 34.0387 29.108 34.0472 29.4562 34.1413C29.8044 34.2353 30.1247 34.412 30.39 34.6563C30.5308 34.81 30.6396 34.9902 30.71 35.1863C31.572 35.96 32.3436 36.8289 33.01 37.7763C33.14 37.9963 33.3 38.2763 33.19 38.5163C33.08 38.7563 32.52 38.8663 32.42 38.8663C32.4529 38.9705 32.4529 39.0822 32.42 39.1863C32.21 39.6963 31.23 39.8863 29.99 39.6863L26.39 39.2763C26.5 39.3563 28.19 40.6963 27.87 41.3963C27.8297 41.4777 27.7706 41.5483 27.6976 41.6023C27.6245 41.6562 27.5396 41.6919 27.45 41.7063C27.07 41.7063 26.78 41.2063 26.34 40.6363C25.9278 40.1144 25.4506 39.6473 24.92 39.2463C24.6588 39.1314 24.4214 38.9686 24.22 38.7663L24.13 38.7164Z" fill="#FF8C64"/>
<path d="M27.41 41.8864C27.01 41.8864 26.72 41.5064 26.41 41.0664L26.15 40.7164C25.7545 40.2111 25.2939 39.7605 24.78 39.3764C24.5565 39.2766 24.3505 39.1416 24.17 38.9764C24.1461 38.9539 24.127 38.9268 24.114 38.8967C24.101 38.8666 24.0942 38.8342 24.0942 38.8014C24.0942 38.7686 24.101 38.7361 24.114 38.706C24.127 38.6759 24.1461 38.6488 24.17 38.6264C24.2167 38.5805 24.2796 38.5549 24.345 38.5549C24.4104 38.5549 24.4733 38.5805 24.52 38.6264C24.6781 38.769 24.8567 38.887 25.05 38.9764C25.6111 39.3921 26.1154 39.8796 26.55 40.4264C26.65 40.5464 26.74 40.6764 26.82 40.7864C27.06 41.1164 27.29 41.4264 27.45 41.4064C27.4951 41.3982 27.5377 41.3795 27.5742 41.3516C27.6108 41.3238 27.6402 41.2877 27.66 41.2464C27.81 40.9164 27.05 40.0464 26.26 39.4264C26.217 39.3932 26.1859 39.347 26.1715 39.2947C26.157 39.2424 26.16 39.1868 26.18 39.1364C26.2032 39.0874 26.2401 39.0462 26.2863 39.0178C26.3324 38.9894 26.3858 38.975 26.44 38.9764L30.04 39.3964C31.29 39.5864 32.04 39.3964 32.22 39.0464C32.2308 38.9801 32.2308 38.9126 32.22 38.8464C32.195 38.7855 32.195 38.7172 32.22 38.6564C32.2425 38.6301 32.27 38.6087 32.3009 38.5932C32.3318 38.5778 32.3655 38.5686 32.4 38.5664C32.63 38.5664 32.89 38.4864 32.95 38.3564C33.01 38.2264 32.85 37.9564 32.79 37.8564C32.5166 37.4382 32.2089 37.0435 31.87 36.6764C31.8242 36.6296 31.7985 36.5668 31.7985 36.5014C31.7985 36.4359 31.8242 36.3731 31.87 36.3264C31.8933 36.3022 31.9213 36.2829 31.9522 36.2698C31.9831 36.2566 32.0164 36.2498 32.05 36.2498C32.0836 36.2498 32.1169 36.2566 32.1478 36.2698C32.1787 36.2829 32.2067 36.3022 32.23 36.3264C32.5954 36.7163 32.9297 37.1343 33.23 37.5764C33.3399 37.7154 33.4146 37.8789 33.4476 38.0531C33.4807 38.2272 33.4712 38.4067 33.42 38.5764C33.3394 38.707 33.2299 38.8173 33.0998 38.8988C32.9698 38.9804 32.8227 39.0308 32.67 39.0464C32.6592 39.1144 32.6425 39.1813 32.62 39.2464C32.35 39.8664 31.32 40.1164 29.91 39.8964L27.13 39.5764C27.69 40.1164 28.32 40.8864 28.06 41.4664C28.0018 41.5867 27.9147 41.6908 27.8065 41.7693C27.6984 41.8478 27.5725 41.8983 27.44 41.9164L27.41 41.8864Z" fill="#EA522F"/>
<path d="M32.37 39.0663L28.46 38.5163C28.3953 38.5064 28.3371 38.4716 28.2978 38.4192C28.2586 38.3669 28.2414 38.3012 28.25 38.2363C28.2536 38.2037 28.2639 38.1722 28.2801 38.1437C28.2964 38.1153 28.3183 38.0904 28.3445 38.0707C28.3708 38.0511 28.4008 38.037 28.4327 38.0293C28.4646 38.0217 28.4977 38.0207 28.53 38.0263L32.41 38.5663C32.4763 38.5663 32.5399 38.5927 32.5868 38.6396C32.6337 38.6865 32.66 38.75 32.66 38.8163C32.66 38.8826 32.6337 38.9462 32.5868 38.9931C32.5399 39.04 32.4763 39.0663 32.41 39.0663H32.37Z" fill="#EA522F"/>
<path d="M33.17 38.2664H33.09L28.99 36.8664C28.9586 36.8575 28.9295 36.8422 28.9046 36.8213C28.8796 36.8004 28.8594 36.7744 28.8452 36.7451C28.831 36.7158 28.8232 36.6838 28.8223 36.6513C28.8214 36.6188 28.8275 36.5864 28.84 36.5564C28.8606 36.4945 28.9046 36.4432 28.9625 36.4133C29.0204 36.3835 29.0877 36.3774 29.15 36.3964L33.24 37.7864C33.2717 37.7963 33.301 37.8128 33.326 37.8346C33.351 37.8565 33.3712 37.8833 33.3853 37.9134C33.3994 37.9435 33.407 37.9762 33.4079 38.0094C33.4087 38.0426 33.4026 38.0756 33.39 38.1064C33.3738 38.1522 33.3441 38.192 33.3048 38.2205C33.2656 38.2491 33.2185 38.2651 33.17 38.2664Z" fill="#EA522F"/>
<path d="M31.9 36.6363C31.8672 36.6453 31.8327 36.6453 31.8 36.6363L28.73 35.1863C28.6699 35.1562 28.6238 35.1039 28.6015 35.0405C28.5791 34.9771 28.5821 34.9075 28.61 34.8463C28.6399 34.7888 28.6911 34.7451 28.7527 34.7245C28.8143 34.704 28.8815 34.7082 28.94 34.7363L32.01 36.1863C32.0403 36.1992 32.0677 36.2182 32.0903 36.2421C32.113 36.266 32.1305 36.2943 32.1417 36.3252C32.153 36.3562 32.1578 36.3891 32.1558 36.422C32.1537 36.4549 32.145 36.487 32.13 36.5164C32.1063 36.5555 32.0723 36.5874 32.0318 36.6085C31.9912 36.6297 31.9456 36.6393 31.9 36.6363Z" fill="#EA522F"/>
<path d="M34.96 0.516344C36.3589 0.948889 37.5642 1.85375 38.37 3.07634C38.43 3.20634 38.48 3.31635 38.52 3.42635C38.7074 3.96533 38.8217 4.52699 38.86 5.09634C38.93 6.39634 39.86 7.01634 40.11 8.49634C40.39 10.3063 39.35 12.0763 39.01 12.0163C38.67 11.9563 39.01 10.8763 38.59 9.47634C38.1805 8.29111 37.4374 7.24936 36.45 6.47634L31.83 4.18634C31.17 5.09447 30.3895 5.9086 29.51 6.60634C28.99 7.01634 28.87 7.03634 28.22 7.54634C26.51 8.87634 26.29 9.54634 25.91 9.44634C25.21 9.27634 24.91 6.81634 25.58 4.71634C25.9981 3.34573 26.838 2.14194 27.98 1.27634C30.89 -0.893656 34.4 0.316344 34.96 0.516344Z" fill="#3F469A"/>
<path d="M38.77 7.44634C38.9288 7.61546 39.0454 7.81977 39.1101 8.04257C39.1748 8.26537 39.1859 8.50033 39.1424 8.72822C39.0989 8.95612 39.0021 9.17049 38.8599 9.3538C38.7177 9.53711 38.5341 9.68415 38.3241 9.7829C38.1142 9.88165 37.8838 9.9293 37.6519 9.92196C37.42 9.91462 37.1932 9.8525 36.9899 9.74067C36.7866 9.62883 36.6127 9.47048 36.4824 9.27854C36.352 9.0866 36.269 8.86654 36.24 8.63634C36.0009 8.26283 35.9163 7.81105 36.004 7.37633C36.0916 6.94161 36.3448 6.55796 36.71 6.30634C37.39 5.97634 38.32 6.48634 38.77 7.44634Z" fill="#FF8C64"/>
<path d="M37.84 10.1163C37.7637 10.1262 37.6863 10.1262 37.61 10.1163C37.5453 10.1064 37.4871 10.0716 37.4478 10.0192C37.4086 9.96687 37.3914 9.90121 37.4 9.83634C37.4048 9.80333 37.4162 9.77162 37.4335 9.74308C37.4508 9.71455 37.4737 9.68976 37.5007 9.67019C37.5277 9.65062 37.5584 9.63666 37.5909 9.62913C37.6234 9.6216 37.6571 9.62065 37.69 9.62634C37.8622 9.65749 38.0397 9.6366 38.2 9.56634C38.3722 9.46347 38.5139 9.31662 38.6105 9.14088C38.7072 8.96514 38.7553 8.76684 38.75 8.56634C38.75 8.42634 38.85 8.29634 39.01 8.32634C39.0424 8.32631 39.0744 8.33284 39.1042 8.34552C39.134 8.3582 39.1609 8.37678 39.1833 8.40013C39.2057 8.42349 39.2232 8.45114 39.2347 8.48142C39.2461 8.51171 39.2514 8.54399 39.25 8.57634C39.2646 8.87727 39.1934 9.17616 39.0447 9.43818C38.8959 9.7002 38.6759 9.91458 38.41 10.0563C38.2262 10.1157 38.0321 10.1362 37.84 10.1163Z" fill="#EA522F"/>
<path d="M38.99 8.50634C38.9283 8.50242 38.8698 8.47745 38.8243 8.43558C38.7788 8.39372 38.749 8.33751 38.74 8.27634C38.7268 8.06997 38.6795 7.86722 38.6 7.67634C38.5872 7.64624 38.5807 7.61384 38.5808 7.58113C38.581 7.54842 38.5878 7.51609 38.6009 7.48613C38.614 7.45616 38.6331 7.42919 38.657 7.40687C38.681 7.38455 38.7092 7.36735 38.74 7.35634C38.8011 7.33329 38.8687 7.33503 38.9285 7.36119C38.9883 7.38735 39.0355 7.43585 39.06 7.49634C39.1574 7.72891 39.2181 7.97517 39.24 8.22634C39.2442 8.25921 39.2418 8.29258 39.233 8.32451C39.2241 8.35645 39.209 8.38631 39.1886 8.41237C39.1681 8.43842 39.1427 8.46015 39.1137 8.47628C39.0848 8.49241 39.0529 8.50263 39.02 8.50634H38.99Z" fill="#EA522F"/>
<path d="M38.68 7.50635C38.6358 7.50855 38.5919 7.49852 38.5531 7.47734C38.5142 7.45616 38.482 7.42468 38.46 7.38635C38.05 6.66635 37.32 6.28635 36.79 6.53635C36.6767 6.58929 36.5774 6.66806 36.5 6.76635C36.4533 6.81215 36.3904 6.83781 36.325 6.83781C36.2595 6.83781 36.1967 6.81215 36.15 6.76635C36.1261 6.7439 36.107 6.71679 36.094 6.68669C36.081 6.6566 36.0742 6.62414 36.0742 6.59135C36.0742 6.55855 36.081 6.5261 36.094 6.496C36.107 6.4659 36.1261 6.43879 36.15 6.41635C36.2755 6.25789 36.4365 6.13115 36.62 6.04635C37.0666 5.90125 37.5514 5.92854 37.9789 6.12286C38.4064 6.31718 38.7457 6.66445 38.93 7.09635C38.9628 7.15345 38.9717 7.22119 38.9549 7.28485C38.938 7.34851 38.8968 7.40295 38.84 7.43635C38.7959 7.47676 38.7396 7.50138 38.68 7.50635Z" fill="#EA522F"/>
<path d="M37.62 9.23635C37.5553 9.23914 37.4921 9.21673 37.4436 9.17383C37.3951 9.13093 37.3651 9.07089 37.36 9.00635L37.26 7.12635C37.2572 7.05901 37.2807 6.99323 37.3254 6.94286C37.3702 6.89249 37.4328 6.86147 37.5 6.85635C37.5328 6.85501 37.5656 6.86016 37.5965 6.8715C37.6273 6.88284 37.6556 6.90015 37.6798 6.92244C37.7039 6.94473 37.7234 6.97156 37.7372 7.00141C37.751 7.03125 37.7587 7.06351 37.76 7.09635L37.86 8.97635C37.8643 9.00897 37.8615 9.04214 37.8519 9.0736C37.8423 9.10507 37.826 9.1341 37.8042 9.15875C37.7824 9.18339 37.7556 9.20307 37.7255 9.21646C37.6955 9.22985 37.6629 9.23663 37.63 9.23635H37.62Z" fill="#EA522F"/>
<path d="M37.5 8.16634C37.4496 8.16311 37.4011 8.14578 37.36 8.11634L36.82 7.76634C36.7924 7.74796 36.7687 7.72432 36.7503 7.69678C36.7318 7.66924 36.719 7.63834 36.7125 7.60584C36.706 7.57334 36.706 7.53988 36.7124 7.50737C36.7188 7.47485 36.7316 7.44392 36.75 7.41634C36.7684 7.38877 36.792 7.36508 36.8196 7.34664C36.8471 7.32819 36.878 7.31536 36.9105 7.30886C36.943 7.30236 36.9765 7.30232 37.009 7.30875C37.0415 7.31519 37.0724 7.32796 37.1 7.34634L37.64 7.70634C37.6675 7.72356 37.6912 7.74618 37.7098 7.77282C37.7283 7.79947 37.7412 7.82959 37.7477 7.86137C37.7543 7.89315 37.7543 7.92593 37.7478 7.95772C37.7413 7.98952 37.7285 8.01966 37.71 8.04634C37.688 8.08248 37.6572 8.11244 37.6205 8.13343C37.5837 8.15442 37.5423 8.16574 37.5 8.16634Z" fill="#EA522F"/>
<path d="M48.88 42.8864H47.81C47.7437 42.8864 47.6801 42.86 47.6332 42.8131C47.5863 42.7662 47.56 42.7027 47.56 42.6364C47.56 42.57 47.5863 42.5065 47.6332 42.4596C47.6801 42.4127 47.7437 42.3864 47.81 42.3864H48.89C48.9563 42.3864 49.0199 42.4127 49.0668 42.4596C49.1137 42.5065 49.14 42.57 49.14 42.6364C49.14 42.7027 49.1137 42.7662 49.0668 42.8131C49.0199 42.86 48.9563 42.8864 48.89 42.8864H48.88Z" fill="#EA522F"/>
<path d="M47.16 35.2163C47.097 35.2165 47.0363 35.193 46.9899 35.1503C46.9436 35.1077 46.915 35.0491 46.91 34.9863L46.58 31.0863C46.5743 31.0216 46.5941 30.9571 46.6352 30.9067C46.6763 30.8563 46.7354 30.8239 46.8 30.8163C46.8323 30.8122 46.8651 30.8146 46.8965 30.8236C46.9278 30.8325 46.957 30.8477 46.9823 30.8683C47.0075 30.8889 47.0283 30.9144 47.0434 30.9433C47.0585 30.9722 47.0675 31.0039 47.07 31.0363L47.41 34.9463C47.4127 34.9792 47.4089 35.0123 47.3988 35.0436C47.3887 35.075 47.3725 35.1041 47.3512 35.1292C47.3298 35.1543 47.3037 35.1749 47.2743 35.1899C47.2449 35.2048 47.2129 35.2138 47.18 35.2163H47.16Z" fill="#EA522F"/>
<path d="M45.24 49.9563C42.4238 53.0243 40.1482 56.5476 38.51 60.3763C38.22 61.1763 37.99 62.1663 37.25 63.8763C36.33 65.9863 35.69 66.7763 36.01 67.1863C36.33 67.5963 37.1 67.3563 40.01 66.3663C42.42 65.5463 43.63 65.1363 44.46 64.7763C47.6933 63.3663 50.8242 61.7323 53.83 59.8863C60.73 55.2863 67.09 44.4563 64.72 41.7163C62.35 38.9763 51.13 43.6663 45.24 49.9563Z" fill="#E3E3FD"/>
<path d="M35.96 67.4363C35.9042 67.4366 35.85 67.4183 35.8059 67.3842C35.7617 67.3501 35.7303 67.3022 35.7165 67.2482C35.7027 67.1942 35.7073 67.1371 35.7297 67.086C35.7521 67.035 35.7909 66.9928 35.84 66.9663C47.1655 60.7486 56.9603 52.0811 64.51 41.5963C64.5484 41.542 64.6069 41.5051 64.6726 41.4939C64.7382 41.4826 64.8056 41.4979 64.86 41.5363C64.9143 41.5748 64.9512 41.6333 64.9625 41.6989C64.9737 41.7646 64.9584 41.832 64.92 41.8863C57.3286 52.436 47.475 61.1553 36.08 67.4063C36.0439 67.4282 36.0021 67.4386 35.96 67.4363Z" fill="#BBBBF9"/>
<path d="M25.11 57.6364C27.8964 58.7425 30.476 60.3112 32.74 62.2764C33.18 62.7064 33.64 63.2764 34.66 64.1464C35.91 65.2164 36.58 65.5364 36.49 65.8964C36.4 66.2564 35.84 66.3564 33.65 66.6264C31.82 66.8564 30.91 66.9664 30.27 66.9964C27.7253 67.1131 25.1756 67.0496 22.64 66.8064C16.73 65.9964 9.20997 60.9764 9.88997 58.4564C10.57 55.9364 19.29 55.4364 25.11 57.6364Z" fill="#E3E3FD"/>
<path d="M36.49 66.1463C32.3156 65.9334 28.1724 65.3104 24.12 64.2863C19.1248 63.0115 14.3053 61.1273 9.76998 58.6763C9.74137 58.6616 9.71602 58.6413 9.69542 58.6166C9.67483 58.5919 9.6594 58.5633 9.65007 58.5325C9.64075 58.5017 9.63771 58.4694 9.64113 58.4374C9.64455 58.4054 9.65435 58.3745 9.66997 58.3463C9.68378 58.3169 9.70346 58.2905 9.72777 58.2689C9.75208 58.2473 9.78052 58.2308 9.81139 58.2205C9.84226 58.2103 9.87489 58.2064 9.90731 58.2091C9.93973 58.2118 9.97126 58.2211 9.99999 58.2363C18.1741 62.6508 27.2316 65.1825 36.51 65.6463C36.5745 65.6515 36.6345 65.6814 36.6774 65.7299C36.7203 65.7784 36.7428 65.8417 36.74 65.9063C36.74 65.9387 36.7335 65.9708 36.7208 66.0006C36.7081 66.0303 36.6895 66.0573 36.6662 66.0797C36.6428 66.1021 36.6152 66.1196 36.5849 66.131C36.5546 66.1425 36.5223 66.1477 36.49 66.1463Z" fill="#BBBBF9"/>
<path d="M40.78 58.6063C39.3392 60.0314 37.6693 61.2044 35.84 62.0763C35.45 62.2363 34.97 62.3663 34.15 62.7563C33.15 63.2463 32.77 63.5763 32.57 63.4263C32.37 63.2763 32.46 62.8963 32.89 61.4263C33.24 60.2363 33.42 59.6363 33.58 59.2363C34.1923 57.6256 34.9209 56.0615 35.76 54.5563C37.87 51.1063 43.03 47.8063 44.41 48.9063C45.79 50.0063 43.73 55.5963 40.78 58.6063Z" fill="#5B98E8"/>
<path d="M32.57 63.6763C32.534 63.6866 32.4959 63.6866 32.46 63.6763C32.4297 63.6635 32.4023 63.6445 32.3796 63.6206C32.357 63.5967 32.3395 63.5684 32.3282 63.5374C32.317 63.5065 32.3122 63.4735 32.3142 63.4407C32.3162 63.4078 32.325 63.3757 32.34 63.3463C33.6082 60.8087 35.1257 58.4036 36.87 56.1663C39.0103 53.3977 41.4859 50.9054 44.24 48.7463C44.2652 48.7226 44.295 48.7043 44.3276 48.6927C44.3602 48.681 44.3949 48.6763 44.4294 48.6788C44.4639 48.6812 44.4976 48.6909 44.5282 48.707C44.5588 48.7232 44.5858 48.7455 44.6073 48.7726C44.6288 48.7997 44.6445 48.831 44.6533 48.8644C44.6622 48.8979 44.6639 48.9329 44.6585 48.9671C44.6531 49.0013 44.6407 49.034 44.622 49.0631C44.6033 49.0922 44.5788 49.1172 44.55 49.1363C39.6046 53.0013 35.5836 57.9208 32.78 63.5363C32.7614 63.5769 32.732 63.6115 32.6949 63.6362C32.6578 63.6609 32.6145 63.6748 32.57 63.6763Z" fill="#BBBBF9"/>
<path d="M38.82 68.1263C36.938 67.3669 35.1996 66.2914 33.68 64.9463C33.2748 64.4985 32.8441 64.0745 32.39 63.6763C31.55 62.9363 31.1 62.6763 31.16 62.4763C31.22 62.2763 31.6 62.1663 33.09 61.9963C34.32 61.8563 34.94 61.7863 35.38 61.7663C37.1019 61.6976 38.8264 61.7544 40.54 61.9363C44.54 62.5163 49.6 65.9363 49.13 67.6563C48.66 69.3763 42.75 69.6563 38.82 68.1263Z" fill="#5B98E8"/>
<path d="M49.13 67.8863C49.0905 67.8953 49.0495 67.8953 49.01 67.8863C43.5097 64.8637 37.4052 63.1044 31.14 62.7363C31.0754 62.7312 31.0154 62.7013 30.9725 62.6528C30.9296 62.6043 30.9072 62.541 30.91 62.4763C30.9099 62.4431 30.9167 62.4101 30.93 62.3796C30.9432 62.3491 30.9628 62.3217 30.9872 62.2992C31.0117 62.2766 31.0405 62.2593 31.072 62.2485C31.1034 62.2377 31.1368 62.2336 31.17 62.2363C37.5059 62.5994 43.6802 64.3762 49.24 67.4363C49.289 67.4628 49.3279 67.5049 49.3502 67.556C49.3726 67.6071 49.3773 67.6642 49.3635 67.7182C49.3497 67.7722 49.3182 67.8201 49.2741 67.8542C49.23 67.8883 49.1757 67.9066 49.12 67.9063L49.13 67.8863Z" fill="#BBBBF9"/>
<path d="M34.77 57.6363C34.3705 59.2725 33.694 60.8283 32.77 62.2363C32.4522 62.6272 32.1552 63.0344 31.88 63.4563C31.38 64.2363 31.26 64.6263 31.05 64.6063C30.84 64.5863 30.75 64.2863 30.42 63.0863C30.15 62.0863 30.02 61.5963 29.95 61.2363C29.688 59.8362 29.5242 58.4194 29.46 56.9963C29.46 53.6463 31.64 49.0763 33.09 49.2563C34.54 49.4363 35.54 54.2363 34.77 57.6363Z" fill="#5B98E8"/>
<path d="M30.84 64.8863C30.778 64.8891 30.7173 64.8678 30.6706 64.8268C30.624 64.7857 30.5951 64.7282 30.59 64.6663C30.3802 62.3365 30.4037 59.9915 30.66 57.6663C30.9792 54.7818 31.6509 51.9473 32.66 49.2263C32.6718 49.1955 32.6896 49.1673 32.7123 49.1433C32.735 49.1193 32.7623 49.1 32.7925 49.0865C32.8226 49.0731 32.8552 49.0657 32.8882 49.0648C32.9213 49.0639 32.9541 49.0695 32.985 49.0813C33.0159 49.0932 33.0441 49.1109 33.0681 49.1337C33.0921 49.1564 33.1113 49.1836 33.1248 49.2138C33.1383 49.244 33.1457 49.2765 33.1466 49.3096C33.1474 49.3426 33.1418 49.3755 33.13 49.4063C31.3345 54.2734 30.6511 59.4808 31.13 64.6463C31.1327 64.6792 31.1289 64.7123 31.1188 64.7436C31.1087 64.775 31.0926 64.8041 31.0712 64.8292C31.0498 64.8543 31.0237 64.8749 30.9943 64.8899C30.9649 64.9048 30.9329 64.9138 30.9 64.9163L30.84 64.8863Z" fill="#BBBBF9"/>
<path d="M25.73 64.4763C27.173 63.6152 28.7523 63.0065 30.4 62.6763C30.74 62.6263 31.15 62.6163 31.89 62.4663C32.79 62.2763 33.16 62.0863 33.29 62.2463C33.42 62.4063 33.29 62.6963 32.64 63.7663C32.12 64.6463 31.86 65.0963 31.64 65.3863C30.8234 66.5555 29.9244 67.665 28.95 68.7063C26.57 71.0563 21.76 72.7063 20.88 71.5163C20 70.3263 22.76 66.3063 25.73 64.4763Z" fill="#5B98E8"/>
<path d="M21.05 71.9463C21.0029 71.9446 20.9573 71.9296 20.9184 71.9031C20.8794 71.8765 20.8488 71.8395 20.83 71.7963C20.8026 71.7366 20.7998 71.6685 20.8223 71.6067C20.8448 71.545 20.8906 71.4945 20.95 71.4663C25.6812 69.3496 29.8801 66.203 33.24 62.2563C33.2617 62.2314 33.288 62.211 33.3176 62.1962C33.3472 62.1814 33.3794 62.1726 33.4123 62.1703C33.4453 62.168 33.4784 62.1722 33.5097 62.1827C33.5411 62.1931 33.5701 62.2097 33.595 62.2313C33.62 62.253 33.6404 62.2794 33.6552 62.3089C33.6699 62.3385 33.6787 62.3707 33.681 62.4037C33.6833 62.4366 33.6791 62.4697 33.6687 62.5011C33.6582 62.5324 33.6417 62.5614 33.62 62.5863C30.2074 66.5716 25.9514 69.7483 21.16 71.8863C21.1296 71.9161 21.0915 71.9369 21.05 71.9463Z" fill="#BBBBF9"/>
<path d="M33.37 58.0163C34.7 58.9363 34.48 61.5263 32.89 63.8163C31.3 66.1063 28.94 67.2063 27.62 66.2863C26.3 65.3663 26.51 62.7663 28.1 60.4863C29.69 58.2063 32.05 57.0963 33.37 58.0163Z" fill="#FFC5D2"/>
<path d="M36.97 67.3563C36.59 68.9363 34.08 69.6863 31.36 69.0463C28.64 68.4063 26.73 66.5963 27.1 65.0463C27.47 63.4963 29.99 62.7163 32.71 63.3663C35.43 64.0163 37.34 65.7763 36.97 67.3563Z" fill="#FFC5D2"/>
<path d="M37.41 67.2263C35.9 67.8063 33.86 66.1563 32.85 63.5463C31.84 60.9363 32.26 58.3463 33.77 57.7663C35.28 57.1863 37.32 58.8263 38.33 61.4363C39.34 64.0463 38.92 66.6363 37.41 67.2263Z" fill="#FFC5D2"/>
<path d="M34.15 61.8863C34.1777 62.2204 34.1609 62.5567 34.1 62.8863C34.1014 63.672 34.3773 64.4325 34.88 65.0363C34.2887 64.8918 33.6713 64.8918 33.08 65.0363C32.43 65.1963 32.19 65.4663 31.7 65.4563C31.21 65.4463 30.7 65.2663 30.05 64.3963C30.7353 64.1875 31.335 63.7631 31.76 63.1863C32.28 62.4266 32.4778 61.4916 32.31 60.5863C33.08 60.7863 33.97 61.1963 34.15 61.8863Z" fill="#122275"/>
<path d="M10.02 45.7763C15.5539 45.7763 20.04 41.2902 20.04 35.7563C20.04 30.2225 15.5539 25.7363 10.02 25.7363C4.4861 25.7363 0 30.2225 0 35.7563C0 41.2902 4.4861 45.7763 10.02 45.7763Z" fill="#E3E3FD"/>
<path d="M10.92 36.3363C10.9333 36.4618 10.92 36.5887 10.8811 36.7087C10.8422 36.8287 10.7784 36.9392 10.694 37.0331C10.6096 37.1269 10.5065 37.2019 10.3912 37.2532C10.2759 37.3045 10.1512 37.3311 10.025 37.3311C9.89881 37.3311 9.77404 37.3045 9.65878 37.2532C9.54352 37.2019 9.44032 37.1269 9.35592 37.0331C9.27153 36.9392 9.20781 36.8287 9.16888 36.7087C9.12996 36.5887 9.11672 36.4618 9.13 36.3363C9.1534 36.1153 9.25778 35.9107 9.42303 35.762C9.58828 35.6133 9.8027 35.5311 10.025 35.5311C10.2473 35.5311 10.4617 35.6133 10.627 35.762C10.7922 35.9107 10.8966 36.1153 10.92 36.3363Z" fill="#3F469A"/>
<path d="M10.08 27.8663H9.95999C9.83849 27.8663 9.73999 27.9648 9.73999 28.0863V35.6263C9.73999 35.7478 9.83849 35.8463 9.95999 35.8463H10.08C10.2015 35.8463 10.3 35.7478 10.3 35.6263V28.0863C10.3 27.9648 10.2015 27.8663 10.08 27.8663Z" fill="#3F469A"/>
<path d="M14.402 32.0392L14.2914 31.9236C14.2151 31.8438 14.0884 31.841 14.0086 31.9174L10.1506 35.6094C10.0708 35.6857 10.068 35.8123 10.1444 35.8921L10.255 36.0077C10.3314 36.0876 10.4579 36.0903 10.5377 36.014L14.3958 32.3219C14.4756 32.2456 14.4784 32.119 14.402 32.0392Z" fill="#3F469A"/>
<path d="M1.53 35.7563H0.23999C0.193934 35.7564 0.149603 35.7388 0.116119 35.7072C0.0826361 35.6756 0.0625562 35.6323 0.0599976 35.5863C0.0599976 35.5386 0.0789449 35.4928 0.112701 35.4591C0.146458 35.4253 0.192251 35.4063 0.23999 35.4063H1.57999C1.60318 35.4063 1.62613 35.411 1.64743 35.4202C1.66874 35.4293 1.68796 35.4428 1.70389 35.4596C1.71981 35.4765 1.73212 35.4964 1.74005 35.5182C1.74798 35.54 1.75136 35.5632 1.75 35.5863C1.75121 35.6136 1.74584 35.6407 1.73438 35.6654C1.72291 35.6902 1.70568 35.7118 1.68411 35.7284C1.66254 35.7451 1.63727 35.7563 1.61044 35.7612C1.58362 35.7661 1.55604 35.7644 1.53 35.7563Z" fill="#3F469A"/>
<path d="M19.86 35.7563H18.52C18.4977 35.7563 18.4755 35.7519 18.4549 35.7434C18.4343 35.7349 18.4156 35.7223 18.3998 35.7066C18.384 35.6908 18.3715 35.672 18.3629 35.6514C18.3544 35.6308 18.35 35.6087 18.35 35.5863C18.3486 35.5632 18.352 35.54 18.3599 35.5182C18.3679 35.4964 18.3802 35.4765 18.3961 35.4596C18.412 35.4428 18.4312 35.4293 18.4525 35.4202C18.4738 35.411 18.4968 35.4063 18.52 35.4063H19.86C19.9077 35.4063 19.9535 35.4253 19.9873 35.4591C20.021 35.4928 20.04 35.5386 20.04 35.5863C20.0374 35.6323 20.0173 35.6756 19.9838 35.7072C19.9504 35.7388 19.906 35.7564 19.86 35.7563Z" fill="#3F469A"/>
<path d="M10.24 44.0763V45.4263C10.2376 45.4707 10.2189 45.5125 10.1875 45.5439C10.1562 45.5753 10.1143 45.5939 10.07 45.5963C10.0239 45.5964 9.97959 45.5788 9.94611 45.5472C9.91262 45.5156 9.89254 45.4723 9.88998 45.4263V44.0763C9.89254 44.0304 9.91262 43.9871 9.94611 43.9555C9.97959 43.9239 10.0239 43.9063 10.07 43.9063C10.1143 43.9087 10.1562 43.9274 10.1875 43.9588C10.2189 43.9902 10.2376 44.032 10.24 44.0763Z" fill="#3F469A"/>
<path d="M10.24 25.7463V27.0863C10.2401 27.1324 10.2225 27.1767 10.1909 27.2102C10.1592 27.2437 10.116 27.2638 10.07 27.2663C10.0222 27.2663 9.97648 27.2474 9.94272 27.2136C9.90896 27.1799 9.88998 27.1341 9.88998 27.0863V25.7463C9.88998 25.6986 9.90896 25.6528 9.94272 25.6191C9.97648 25.5853 10.0222 25.5663 10.07 25.5663C10.116 25.5689 10.1592 25.589 10.1909 25.6225C10.2225 25.656 10.2401 25.7003 10.24 25.7463Z" fill="#3F469A"/>
<path d="M50.65 17.5063C49.8234 17.5218 49.0122 17.2807 48.3282 16.8162C47.6442 16.3518 47.121 15.6868 46.8304 14.9127C46.5399 14.1386 46.4963 13.2936 46.7058 12.4937C46.9152 11.6939 47.3674 10.9787 48 10.4464C48.8049 9.74485 49.8556 9.39185 50.9208 9.46498C51.986 9.53812 52.9785 10.0314 53.68 10.8364C54.3815 11.6413 54.7345 12.6919 54.6614 13.7571C54.5882 14.8223 54.0949 15.8149 53.29 16.5164C52.5593 17.1558 51.621 17.5077 50.65 17.5063ZM50.65 10.5064C49.9152 10.4998 49.2035 10.7631 48.65 11.2464C48.044 11.7768 47.6735 12.5262 47.62 13.3298C47.5666 14.1334 47.8346 14.9253 48.365 15.5314C48.8954 16.1374 49.6449 16.5079 50.4485 16.5613C51.2521 16.6148 52.044 16.3468 52.65 15.8164C53.1139 15.4292 53.4501 14.911 53.6146 14.3296C53.7791 13.7482 53.7642 13.1307 53.5718 12.5579C53.3794 11.9851 53.0186 11.4837 52.5365 11.1194C52.0544 10.7552 51.4736 10.545 50.87 10.5163L50.65 10.5064Z" fill="#FFC5D2"/>
<path d="M56.91 21.1863C56.8384 21.1857 56.7676 21.1703 56.7022 21.141C56.6368 21.1118 56.5782 21.0693 56.53 21.0163L52.53 16.4563C52.4865 16.4075 52.4533 16.3504 52.4322 16.2885C52.4112 16.2265 52.4027 16.161 52.4074 16.0958C52.412 16.0306 52.4297 15.9669 52.4593 15.9086C52.489 15.8503 52.53 15.7985 52.58 15.7563C52.6815 15.6705 52.8125 15.6277 52.9452 15.637C53.0778 15.6463 53.2015 15.7071 53.29 15.8063L57.29 20.3563C57.3334 20.4052 57.3667 20.4623 57.3878 20.5242C57.4088 20.5861 57.4173 20.6516 57.4126 20.7169C57.4079 20.7821 57.3903 20.8458 57.3606 20.9041C57.331 20.9624 57.29 21.0141 57.24 21.0563C57.1963 21.0988 57.1447 21.1321 57.088 21.1544C57.0314 21.1767 56.9709 21.1876 56.91 21.1863Z" fill="#FFC5D2"/>
<path d="M53.98 20.9463C53.9094 20.9483 53.8393 20.934 53.7751 20.9045C53.711 20.875 53.6545 20.8312 53.61 20.7763C53.5665 20.7275 53.5333 20.6704 53.5122 20.6085C53.4912 20.5465 53.4827 20.481 53.4874 20.4158C53.4921 20.3506 53.5097 20.2869 53.5394 20.2286C53.569 20.1703 53.61 20.1185 53.66 20.0763L56.76 17.3763C56.8613 17.3083 56.9839 17.2797 57.1049 17.2958C57.2258 17.312 57.3367 17.3718 57.4166 17.464C57.4965 17.5562 57.5399 17.6744 57.5387 17.7964C57.5375 17.9184 57.4917 18.0357 57.41 18.1263L54.31 20.8263C54.2181 20.9049 54.1009 20.9476 53.98 20.9463Z" fill="#FFC5D2"/>
<path d="M59.5 14.8263C58.5547 14.8288 57.639 14.4965 56.9154 13.8881C56.1918 13.2798 55.707 12.4349 55.5471 11.5032C55.3871 10.5715 55.5623 9.61323 56.0416 8.79839C56.5208 7.98356 57.2732 7.36481 58.1653 7.05187C59.0573 6.73894 60.0314 6.75205 60.9147 7.08889C61.7979 7.42573 62.5334 8.06452 62.9905 8.89196C63.4477 9.7194 63.597 10.682 63.4121 11.6091C63.2271 12.5361 62.7197 13.3677 61.98 13.9563C61.2749 14.5174 60.4011 14.8239 59.5 14.8263ZM59.5 7.76634C58.928 7.75706 58.3652 7.91154 57.8781 8.21157C57.3909 8.51159 56.9997 8.94466 56.7506 9.4597C56.5015 9.97473 56.4049 10.5503 56.4721 11.1184C56.5393 11.6866 56.7676 12.2237 57.13 12.6663C57.4403 13.042 57.8375 13.3365 58.2871 13.5242C58.7368 13.7119 59.2255 13.7873 59.7108 13.7438C60.1961 13.7003 60.6636 13.5392 61.0727 13.2745C61.4818 13.0098 61.8203 12.6494 62.0588 12.2245C62.2974 11.7997 62.4289 11.323 62.4419 10.8359C62.4549 10.3488 62.3491 9.86587 62.1336 9.42885C61.918 8.99182 61.5993 8.61388 61.2049 8.32769C60.8105 8.04151 60.3523 7.8557 59.87 7.78634L59.5 7.76634Z" fill="#5B98E8"/>
<path d="M57.32 8.53635C57.2447 8.53674 57.1704 8.51981 57.1028 8.48686C57.0352 8.45391 56.9761 8.40583 56.93 8.34635L53.24 3.59635C53.1931 3.54987 53.1559 3.49457 53.1306 3.43364C53.1052 3.37271 53.0921 3.30736 53.0921 3.24135C53.0921 3.17534 53.1052 3.10999 53.1306 3.04906C53.1559 2.98813 53.1931 2.93283 53.24 2.88635C53.3462 2.80645 53.4789 2.77022 53.6109 2.7851C53.7429 2.79998 53.8643 2.86483 53.95 2.96635L57.67 7.71635C57.7517 7.81997 57.7892 7.9517 57.7742 8.08283C57.7592 8.21397 57.693 8.33385 57.59 8.41635C57.5138 8.48212 57.4198 8.52387 57.32 8.53635Z" fill="#5B98E8"/>
<path d="M53.24 6.70635C53.1726 6.7064 53.1059 6.69284 53.0439 6.66647C52.9819 6.6401 52.9259 6.60147 52.8792 6.5529C52.8325 6.50433 52.7961 6.44683 52.7722 6.38384C52.7482 6.32085 52.7373 6.25367 52.74 6.18635L52.88 3.05635C52.8812 2.98423 52.8989 2.91335 52.9318 2.84919C52.9648 2.78503 53.012 2.72931 53.07 2.68635C53.1263 2.64329 53.1909 2.6122 53.2596 2.59501C53.3284 2.57781 53.4 2.57487 53.47 2.58635L56.57 3.17635C56.7026 3.20154 56.8198 3.27839 56.8957 3.38997C56.9717 3.50155 57.0002 3.63874 56.975 3.77135C56.9498 3.90396 56.873 4.02112 56.7614 4.09708C56.6498 4.17303 56.5126 4.20154 56.38 4.17635L53.85 3.69635L53.74 6.24635C53.7299 6.37191 53.6728 6.48903 53.5801 6.57432C53.4874 6.6596 53.366 6.70675 53.24 6.70635Z" fill="#5B98E8"/>
</svg>
