<svg width="87" height="71" viewBox="0 0 87 71" fill="none" xmlns="http://www.w3.org/2000/svg">
<path d="M52.16 0H15.42C14.8788 0 14.44 0.438761 14.44 0.98V28.9C14.44 29.4412 14.8788 29.88 15.42 29.88H52.16C52.7012 29.88 53.14 29.4412 53.14 28.9V0.98C53.14 0.438761 52.7012 0 52.16 0Z" fill="#E3E3FD"/>
<path d="M50.58 1.52H17.02C16.545 1.52 16.16 1.90504 16.16 2.38V27.51C16.16 27.985 16.545 28.37 17.02 28.37H50.58C51.055 28.37 51.44 27.985 51.44 27.51V2.38C51.44 1.90504 51.055 1.52 50.58 1.52Z" fill="#5B98E8"/>
<path d="M48.32 18.32C44.7059 21.4087 40.2164 23.2898 35.48 23.7C29.6168 24.0906 23.8247 22.235 19.28 18.51C22.5533 14.3833 25.8267 10.25 29.1 6.11H38.59L48.32 18.32Z" fill="#FFC5D2"/>
<path d="M39.98 13.79C39.706 14.4258 39.2278 14.952 38.621 15.2853C38.0142 15.6186 37.3135 15.7399 36.63 15.63C36.111 15.547 35.6211 15.335 35.2053 15.0136C34.7895 14.6921 34.461 14.2714 34.25 13.79C34.25 13.72 34.12 13.33 34.25 13.2C34.38 13.07 34.37 13.2 34.42 13.11C34.47 13.02 34.42 12.86 34.42 12.67C34.42 12.48 34.53 12.56 34.62 12.4C34.71 12.24 34.67 12.03 34.77 11.94C34.87 11.85 35.12 11.94 35.33 11.99C35.9 11.99 36.11 11.07 36.74 10.72C37.1722 10.5747 37.6361 10.5509 38.081 10.6512C38.5259 10.7515 38.9346 10.9721 39.2627 11.2888C39.5908 11.6056 39.8256 12.0063 39.9415 12.4474C40.0574 12.8885 40.05 13.3529 39.92 13.79H39.98Z" fill="white"/>
<path d="M36.8 15.1C37.3 16.02 34.8 19.48 31.93 19.35C30.39 19.28 28.53 18.18 28.49 16.87C28.4725 16.4849 28.5812 16.1046 28.7996 15.7869C29.018 15.4693 29.3342 15.2316 29.7 15.11C30.53 15.01 30.98 16.33 31.92 16.22C32.42 16.22 32.54 15.77 33.08 15.37C34.32 14.44 36.48 14.46 36.8 15.1Z" fill="white"/>
<path d="M31.02 15.2C31.02 15.98 30.72 16.62 30.34 16.62C29.96 16.62 29.66 15.98 29.66 15.2C29.66 14.42 29.97 13.78 30.34 13.78C30.71 13.78 31.02 14.41 31.02 15.2Z" fill="white"/>
<path d="M30.54 13.84C30.5448 13.9766 30.5215 14.1128 30.4717 14.24C30.4218 14.3673 30.3463 14.483 30.25 14.58C29.97 14.83 29.68 14.65 29.25 14.91C28.98 15.07 29.03 15.17 28.67 15.41C28.47 15.54 28.12 15.77 27.93 15.66C27.74 15.55 27.82 15.45 27.8 15.09C27.74 14.09 27.67 13.91 27.8 13.83C27.9383 13.7829 28.0892 13.7897 28.2227 13.849C28.3561 13.9083 28.4623 14.0158 28.52 14.15C28.58 14.35 28.4 14.56 28.43 14.58C28.46 14.6 28.64 14.29 28.94 14.05C29.1429 13.8894 29.3816 13.7801 29.6357 13.7314C29.8899 13.6827 30.152 13.6959 30.4 13.77L30.54 13.84Z" fill="white"/>
<path d="M31.3 15.89C30.68 16.37 29.99 16.53 29.76 16.23C29.53 15.93 29.84 15.31 30.46 14.82C31.08 14.33 31.76 14.18 31.99 14.47C32.22 14.76 31.91 15.4 31.3 15.89Z" fill="white"/>
<path d="M32.07 14.67C31.9681 14.7621 31.8472 14.8304 31.7158 14.8702C31.5844 14.91 31.4458 14.9201 31.31 14.9C30.94 14.83 30.9 14.5 30.42 14.31C30.13 14.2 30.08 14.31 29.67 14.16C29.44 14.09 29.04 13.96 29.02 13.74C29 13.52 29.11 13.52 29.38 13.29C30.16 12.59 30.23 12.45 30.38 12.5C30.5009 12.58 30.5875 12.7024 30.6227 12.8431C30.6579 12.9838 30.6391 13.1325 30.57 13.26C30.45 13.43 30.17 13.42 30.18 13.46C30.19 13.5 30.53 13.46 30.9 13.53C31.1564 13.5901 31.3939 13.7129 31.5912 13.8874C31.7884 14.062 31.9392 14.2828 32.03 14.53C32.0467 14.5756 32.0601 14.6224 32.07 14.67Z" fill="white"/>
<path d="M34.7 14.94C34.7 15.35 34.14 15.69 33.45 15.69C32.76 15.69 32.21 15.35 32.21 14.94C32.21 14.53 32.77 14.2 33.45 14.2C34.13 14.2 34.7 14.57 34.7 14.94Z" fill="white"/>
<path d="M33.19 20.57H33.04C31.9177 20.5672 30.7985 20.4499 29.7 20.22C29.1366 20.0795 28.585 19.8956 28.05 19.67C26.95 19.19 26.29 18.9 25.92 18.27C25.43 17.44 25.71 16.51 26.11 15.27C26.3096 14.166 26.8602 13.1559 27.68 12.39C28.103 12.0575 28.6139 11.8559 29.15 11.81C29.6623 11.77 30.152 11.5824 30.56 11.27C31.0018 10.9489 31.3476 10.5132 31.56 10.01C31.6341 9.79808 31.7528 9.60452 31.908 9.44236C32.0633 9.2802 32.2515 9.15323 32.46 9.07C32.7283 8.99447 33.0107 8.9841 33.2838 9.03976C33.5569 9.09542 33.8127 9.2155 34.03 9.39C34.6289 9.74871 35.2907 9.98969 35.98 10.1C36.7332 10.1976 37.4982 10.1432 38.23 9.94C38.5039 9.82774 38.8003 9.78104 39.0954 9.80361C39.3906 9.82618 39.6764 9.9174 39.93 10.07C40.58 10.56 40.65 11.36 40.77 12.83C40.8814 14.3926 40.6066 15.9586 39.97 17.39C39.7823 17.9286 39.49 18.4247 39.11 18.85C38.35 19.65 37.38 19.85 35.79 20.22C34.9401 20.4386 34.0674 20.5561 33.19 20.57ZM32.91 9.18C32.7833 9.17969 32.6578 9.20345 32.54 9.25C32.13 9.4 31.98 9.69 31.79 10.08C31.5517 10.6124 31.1796 11.074 30.71 11.42C30.2675 11.7532 29.7414 11.9574 29.19 12.01C28.6947 12.0504 28.222 12.2346 27.83 12.54C27.0597 13.2796 26.5389 14.2408 26.34 15.29C25.97 16.52 25.7 17.4 26.14 18.14C26.46 18.7 27.06 18.97 28.14 19.44C28.6614 19.6628 29.1998 19.8434 29.75 19.98C30.8297 20.1998 31.9282 20.3137 33.03 20.32C33.94 20.3104 34.8447 20.1792 35.72 19.93C37.45 19.54 38.24 19.34 38.92 18.63C39.2783 18.2186 39.5565 17.7438 39.74 17.23C40.3528 15.8376 40.6204 14.3179 40.52 12.8C40.4 11.41 40.34 10.64 39.78 10.22C39.22 9.8 38.9 10 38.28 10.14C37.5143 10.3447 36.7156 10.3957 35.93 10.29C35.2204 10.1803 34.5401 9.92863 33.93 9.55C33.63 9.3296 33.2791 9.18857 32.91 9.14V9.18Z" fill="white"/>
<path d="M33.48 21.23H33.06C31.3294 21.1718 29.6051 20.9914 27.9 20.69C27.8683 20.6808 27.8409 20.6607 27.8226 20.6332C27.8043 20.6058 27.7963 20.5728 27.8 20.54C27.8023 20.5231 27.8081 20.5069 27.8171 20.4924C27.8262 20.4779 27.8382 20.4655 27.8524 20.4561C27.8666 20.4466 27.8826 20.4403 27.8994 20.4375C27.9163 20.4347 27.9335 20.4356 27.95 20.44C29.6417 20.7413 31.3527 20.9218 33.07 20.98C34.2166 21.0116 35.3639 20.948 36.5 20.79C37.2253 20.7146 37.9323 20.515 38.59 20.2C38.9541 20.0477 39.2917 19.8384 39.59 19.58C40.2919 18.8162 40.7453 17.8572 40.89 16.83C41.0349 16.2802 41.1484 15.7227 41.23 15.16C41.2309 15.1435 41.2354 15.1274 41.2434 15.1129C41.2513 15.0984 41.2625 15.0859 41.2759 15.0763C41.2894 15.0667 41.3048 15.0602 41.3211 15.0574C41.3374 15.0546 41.3541 15.0555 41.37 15.06C41.3867 15.0612 41.4031 15.0658 41.4179 15.0737C41.4327 15.0815 41.4457 15.0924 41.4561 15.1056C41.4665 15.1188 41.4739 15.134 41.478 15.1503C41.4822 15.1665 41.4828 15.1835 41.48 15.2C41.3942 15.7693 41.2773 16.3335 41.13 16.89C40.9713 17.9653 40.4941 18.9684 39.76 19.77C39.4364 20.0396 39.0762 20.2619 38.69 20.43C38.0088 20.7499 37.2786 20.9527 36.53 21.03C35.5188 21.1633 34.4999 21.2301 33.48 21.23Z" fill="white"/>
<path d="M26.73 19.9C26.5804 19.902 26.4316 19.8783 26.29 19.83C25.39 19.55 25.08 18.47 24.97 18.07C24.7895 17.385 24.7895 16.665 24.97 15.98C25.1468 15.1679 25.5096 14.408 26.03 13.76C26.0499 13.7348 26.079 13.7185 26.1109 13.7148C26.1427 13.711 26.1748 13.7201 26.2 13.74C26.2252 13.7599 26.2415 13.789 26.2452 13.8209C26.249 13.8527 26.2399 13.8848 26.22 13.91C25.733 14.5372 25.3915 15.2647 25.22 16.04C25.0433 16.695 25.0433 17.385 25.22 18.04C25.32 18.41 25.6 19.39 26.37 19.63C26.5477 19.6703 26.7323 19.6703 26.91 19.63C26.9372 19.6378 26.9611 19.6542 26.9781 19.6767C26.9951 19.6993 27.0043 19.7267 27.0043 19.755C27.0043 19.7833 26.9951 19.8107 26.9781 19.8333C26.9611 19.8558 26.9372 19.8722 26.91 19.88L26.73 19.9Z" fill="white"/>
<path d="M34.53 22.57C34.0263 22.5655 33.5303 22.4458 33.08 22.22C32.7252 22.07 32.3611 21.943 31.99 21.84C31.6638 21.753 31.3276 21.7093 30.99 21.71C29.1271 21.6919 27.2945 21.2363 25.64 20.38C25.1108 20.0952 24.658 19.687 24.32 19.19C23.7964 18.2268 23.6605 17.1 23.94 16.04C24.0094 15.2569 24.2893 14.5071 24.75 13.87C24.93 13.6505 25.1347 13.4525 25.36 13.28C25.6805 13.0337 25.9754 12.7556 26.24 12.45C26.4343 12.2377 26.6116 12.0103 26.77 11.77C26.8645 11.604 26.9942 11.4606 27.15 11.35C27.53 11.0689 27.9875 10.9118 28.46 10.9C28.7865 10.8782 29.1058 10.7933 29.4 10.65C29.7264 10.4299 30.0041 10.1449 30.2157 9.81291C30.4273 9.48088 30.5683 9.10886 30.63 8.72C30.6319 8.70318 30.6376 8.68701 30.6468 8.67277C30.6559 8.65853 30.6682 8.64658 30.6827 8.63788C30.6972 8.62917 30.7136 8.62393 30.7304 8.62256C30.7473 8.62119 30.7643 8.62374 30.78 8.63C30.796 8.63347 30.8111 8.6402 30.8245 8.64975C30.8378 8.6593 30.849 8.67147 30.8574 8.68553C30.8659 8.69958 30.8713 8.71522 30.8735 8.73146C30.8757 8.74771 30.8745 8.76423 30.87 8.78C30.7968 9.20602 30.6354 9.61204 30.396 9.97197C30.1566 10.3319 29.8446 10.6378 29.48 10.87C29.1699 11.0308 28.8289 11.1229 28.48 11.14C28.0514 11.1555 27.6372 11.2982 27.29 11.55C27.1574 11.6441 27.0479 11.7672 26.97 11.91C26.8026 12.1586 26.6189 12.3958 26.42 12.62C26.143 12.9333 25.8384 13.2211 25.51 13.48C25.2959 13.6366 25.1041 13.8216 24.94 14.03C24.5137 14.6174 24.2514 15.3077 24.18 16.03C23.9106 17.0371 24.0321 18.1087 24.52 19.03C24.8384 19.5003 25.2677 19.8849 25.77 20.15C26.9588 20.8483 28.2943 21.2592 29.67 21.35C30.1038 21.4128 30.5417 21.4429 30.98 21.44C31.3413 21.4381 31.7013 21.4852 32.05 21.58C32.4307 21.6877 32.8047 21.818 33.17 21.97C33.581 22.1739 34.0313 22.2865 34.49 22.3C35.0898 22.2809 35.6777 22.1271 36.21 21.85H36.29C38.18 21.05 39.08 20.76 39.56 20.6C39.8578 20.5347 40.1376 20.405 40.38 20.22C41.93 19 42.25 16.77 42.24 15.11C42.24 15.0782 42.2526 15.0476 42.2751 15.0251C42.2977 15.0026 42.3282 14.99 42.36 14.99C42.3766 14.9886 42.3933 14.9907 42.409 14.9961C42.4247 15.0015 42.4392 15.0101 42.4514 15.0214C42.4636 15.0327 42.4734 15.0464 42.48 15.0616C42.4867 15.0769 42.49 15.0934 42.49 15.11C42.49 16.83 42.16 19.11 40.49 20.42C40.2258 20.6205 39.9227 20.7635 39.6 20.84C39.12 21 38.23 21.29 36.34 22.08H36.27C35.7309 22.3639 35.138 22.5309 34.53 22.57Z" fill="white"/>
<path d="M41.24 14.44C41.2219 14.4388 41.2043 14.4339 41.1883 14.4256C41.1723 14.4172 41.1582 14.4056 41.1469 14.3915C41.1356 14.3774 41.1274 14.3611 41.1227 14.3436C41.1181 14.3261 41.1172 14.3079 41.12 14.29C41.2548 13.4722 41.2548 12.6378 41.12 11.82C41.0998 11.1448 40.8729 10.4921 40.47 9.95C40.0393 9.50003 39.4744 9.20179 38.86 9.1C38.2943 8.96002 37.7001 8.98782 37.15 9.18C36.6536 9.35933 36.118 9.4008 35.6 9.3C35.1164 9.19007 34.6604 8.98249 34.26 8.69C33.9029 8.38462 33.4498 8.21469 32.98 8.21C32.4543 8.22666 31.9442 8.3932 31.51 8.69C31.4988 8.70119 31.4856 8.71006 31.471 8.71612C31.4564 8.72218 31.4408 8.72529 31.425 8.72529C31.4092 8.72529 31.3936 8.72218 31.379 8.71612C31.3644 8.71006 31.3511 8.70119 31.34 8.69C31.3196 8.66638 31.3083 8.63621 31.3083 8.605C31.3083 8.57379 31.3196 8.54362 31.34 8.52C31.81 8.19941 32.3614 8.01907 32.93 8C33.4554 8.00299 33.9639 8.18659 34.37 8.52C34.741 8.79744 35.1673 8.99183 35.62 9.09C36.0973 9.19204 36.5939 9.15384 37.05 8.98C37.6397 8.77843 38.2749 8.75066 38.88 8.9C39.5503 9.00729 40.166 9.33446 40.63 9.83C41.0656 10.4084 41.3134 11.1064 41.34 11.83C41.4748 12.6747 41.4748 13.5353 41.34 14.38C41.3286 14.3966 41.3138 14.4106 41.2965 14.4209C41.2793 14.4313 41.26 14.4378 41.24 14.44Z" fill="white"/>
<path d="M38.31 22.14C38.2832 22.1392 38.2572 22.1302 38.2357 22.1141C38.2142 22.0979 38.1983 22.0756 38.19 22.05C38.1855 22.0342 38.1843 22.0177 38.1865 22.0015C38.1887 21.9852 38.1941 21.9696 38.2026 21.9555C38.211 21.9415 38.2222 21.9293 38.2355 21.9197C38.2488 21.9102 38.264 21.9035 38.28 21.9L39.28 21.6C39.7131 21.479 40.1374 21.3287 40.55 21.15C41.0285 20.9068 41.4509 20.5661 41.79 20.15C42.2171 19.5823 42.5017 18.9205 42.62 18.22C42.707 17.8283 42.7638 17.4304 42.79 17.03C42.79 16.73 42.79 16.54 42.79 16.18V15.75C42.79 15.21 42.79 14.92 42.79 14.75C42.79 14.58 42.79 14.5 42.79 14.37C42.7485 13.5459 42.5193 12.7421 42.12 12.02C42.1135 11.9923 42.1163 11.9633 42.1279 11.9373C42.1396 11.9113 42.1594 11.8899 42.1843 11.8763C42.2093 11.8627 42.238 11.8576 42.2662 11.8619C42.2943 11.8662 42.3202 11.8796 42.34 11.9C42.7538 12.6576 42.993 13.4981 43.04 14.36C43.04 14.49 43.04 14.6 43.04 14.75C43.04 14.9 43.04 15.24 43.04 15.75V16.18C43.0553 16.4665 43.0553 16.7535 43.04 17.04C43.0238 17.4573 42.9702 17.8723 42.88 18.28C42.7433 19.0051 42.4423 19.6893 42 20.28C41.6358 20.7278 41.183 21.0955 40.67 21.36C40.2528 21.5498 39.8215 21.7069 39.38 21.83L38.38 22.13L38.31 22.14Z" fill="white"/>
<path d="M33.42 6.57H31.85C31.11 6.57 30.35 6.57 29.61 6.49C29.5934 6.49006 29.5769 6.48666 29.5616 6.48001C29.5464 6.47337 29.5327 6.46362 29.5214 6.4514C29.5101 6.43917 29.5015 6.42474 29.4961 6.409C29.4907 6.39327 29.4886 6.37658 29.49 6.36C29.4925 6.32729 29.5073 6.29673 29.5314 6.27448C29.5555 6.25222 29.5872 6.23991 29.62 6.24C30.36 6.24 31.11 6.31 31.86 6.32C34.02 6.32 36.2 6.32 38.35 6.18C38.3665 6.17717 38.3835 6.17783 38.3997 6.18195C38.416 6.18607 38.4312 6.19355 38.4444 6.20392C38.4576 6.21428 38.4685 6.2273 38.4763 6.24213C38.4842 6.25696 38.4888 6.27326 38.49 6.29C38.4914 6.30658 38.4893 6.32327 38.4839 6.339C38.4785 6.35474 38.4699 6.36917 38.4586 6.3814C38.4473 6.39362 38.4336 6.40337 38.4183 6.41001C38.4031 6.41666 38.3866 6.42006 38.37 6.42C36.73 6.57 35.07 6.57 33.42 6.57Z" fill="white"/>
<path d="M34.2 7.3C33.1733 7.29328 32.148 7.22315 31.13 7.09C30.41 7.01 29.67 6.9 28.95 6.76C28.9342 6.75758 28.9189 6.75201 28.9053 6.74362C28.8916 6.73522 28.8798 6.72417 28.8704 6.71112C28.8611 6.69807 28.8545 6.68328 28.851 6.66763C28.8475 6.65198 28.8471 6.63578 28.85 6.62C28.8523 6.60309 28.8581 6.58686 28.8671 6.57238C28.8762 6.55791 28.8882 6.54553 28.9024 6.53606C28.9166 6.5266 28.9326 6.52027 28.9495 6.5175C28.9663 6.51473 28.9835 6.51558 29 6.52C29.71 6.65 30.44 6.76 31.16 6.84C32.773 7.07089 34.4076 7.11117 36.03 6.96C36.9865 6.85751 37.933 6.67691 38.86 6.42C38.8918 6.41204 38.9255 6.41705 38.9536 6.43393C38.9818 6.45081 39.002 6.47817 39.01 6.51C39.018 6.54183 39.013 6.57551 38.9961 6.60364C38.9792 6.63177 38.9518 6.65204 38.92 6.66C37.9801 6.92204 37.0202 7.10599 36.05 7.21C35.4354 7.27322 34.8178 7.30327 34.2 7.3Z" fill="white"/>
<path d="M33.87 7.79C32.0896 7.79094 30.3149 7.58966 28.58 7.19C28.549 7.18068 28.5226 7.16014 28.506 7.1324C28.4893 7.10466 28.4836 7.07172 28.49 7.04C28.4935 7.02398 28.5002 7.00885 28.5097 6.99553C28.5193 6.98221 28.5315 6.97098 28.5455 6.96255C28.5596 6.95412 28.5752 6.94865 28.5915 6.9465C28.6077 6.94434 28.6242 6.94553 28.64 6.95C30.3558 7.34139 32.1101 7.53929 33.87 7.54C35.5751 7.53496 37.2748 7.34722 38.94 6.98C38.9717 6.97365 39.0047 6.97935 39.0324 6.996C39.0601 7.01264 39.0807 7.03903 39.09 7.07C39.0963 7.08573 39.0988 7.10269 39.0974 7.11956C39.0961 7.13643 39.0908 7.15276 39.0821 7.16727C39.0734 7.18179 39.0615 7.1941 39.0472 7.20324C39.033 7.21239 39.0168 7.21812 39 7.22C37.3181 7.58947 35.6019 7.78053 33.88 7.79H33.87Z" fill="white"/>
<path d="M25.09 20.95H25C23.8753 19.9319 23.1252 18.5655 22.87 17.07C22.8041 16.3725 22.8344 15.6693 22.96 14.98C23.14 13.8 23.39 13.54 23.47 13.46C23.6397 13.2789 23.8649 13.1593 24.11 13.12C24.3827 13.051 24.6403 12.9324 24.87 12.77C25.2554 12.4932 25.5932 12.1554 25.87 11.77C26.0354 11.5781 26.1764 11.3665 26.29 11.14C26.3583 10.9937 26.4532 10.8615 26.57 10.75C26.8292 10.5022 27.1633 10.3475 27.52 10.31C27.9136 10.2433 28.2968 10.1256 28.66 9.96C29.11 9.75 29.94 9.38 29.99 8.84C30.0059 8.75071 30.0059 8.6593 29.99 8.57C29.963 8.50677 29.9491 8.43874 29.9491 8.37C29.9491 8.30126 29.963 8.23324 29.99 8.17C30.14 7.88 30.58 7.78 31.34 7.87C31.3567 7.87116 31.373 7.87581 31.3878 7.88366C31.4027 7.89151 31.4157 7.90238 31.4261 7.91558C31.4364 7.92877 31.4439 7.94399 31.448 7.96026C31.4521 7.97652 31.4528 7.99347 31.45 8.01C31.4487 8.02578 31.4443 8.04115 31.4371 8.05524C31.4299 8.06932 31.42 8.08183 31.4079 8.09206C31.3958 8.10228 31.3818 8.11002 31.3667 8.11481C31.3516 8.11961 31.3357 8.12137 31.32 8.12C30.48 8.02 30.26 8.18 30.21 8.29C30.16 8.4 30.21 8.4 30.21 8.51C30.2376 8.62504 30.2376 8.74497 30.21 8.86C30.15 9.54 29.26 9.95 28.73 10.18C28.3508 10.3559 27.951 10.4836 27.54 10.56C27.2311 10.5809 26.9401 10.7123 26.72 10.93C26.6214 11.0214 26.5401 11.1298 26.48 11.25C26.3628 11.4944 26.2149 11.723 26.04 11.93C25.7595 12.3123 25.4222 12.6495 25.04 12.93C24.7847 13.1055 24.5003 13.2342 24.2 13.31C24.0016 13.3402 23.8188 13.4351 23.68 13.58C23.4256 14.0021 23.2748 14.4784 23.24 14.97C23.123 15.6299 23.0894 16.3018 23.14 16.97C23.3924 18.4051 24.1175 19.7146 25.2 20.69C25.2232 20.7142 25.2362 20.7465 25.2362 20.78C25.2362 20.8135 25.2232 20.8458 25.2 20.87C25.1933 20.8937 25.1788 20.9145 25.1588 20.929C25.1389 20.9436 25.1146 20.9509 25.09 20.95Z" fill="white"/>
<path d="M24.48 12.24C24.4523 12.243 24.4246 12.2353 24.4023 12.2186C24.38 12.2019 24.3649 12.1774 24.36 12.15C24.3554 12.1349 24.3538 12.119 24.3553 12.1033C24.3568 12.0876 24.3614 12.0723 24.3689 12.0584C24.3763 12.0445 24.3864 12.0321 24.3986 12.0221C24.4108 12.0121 24.4249 12.0046 24.44 12C24.8185 11.8979 25.1635 11.6979 25.44 11.42C25.6124 11.2204 25.757 10.9984 25.87 10.76C25.9619 10.5683 26.0323 10.3671 26.08 10.16C26.1074 9.99359 26.1801 9.83792 26.29 9.71C26.4028 9.59173 26.5496 9.51137 26.71 9.48C26.84 9.43 27.02 9.37 27.31 9.24C27.6234 9.12673 27.917 8.96474 28.18 8.76C28.4465 8.46218 28.5989 8.07952 28.61 7.68C28.6099 7.66337 28.6133 7.6469 28.62 7.63165C28.6266 7.6164 28.6364 7.60269 28.6486 7.59141C28.6608 7.58013 28.6753 7.57151 28.691 7.5661C28.7067 7.56069 28.7234 7.55862 28.74 7.56C28.7719 7.56455 28.8013 7.57996 28.8231 7.60365C28.845 7.62733 28.858 7.65783 28.86 7.69C28.8478 8.15486 28.6665 8.59931 28.35 8.94C28.0694 9.16926 27.7514 9.34854 27.41 9.47C27.2085 9.56266 27.0014 9.64281 26.79 9.71C26.671 9.73171 26.5623 9.79135 26.48 9.88C26.3953 9.97576 26.3398 10.0937 26.32 10.22C26.2726 10.4428 26.1952 10.658 26.09 10.86C25.9708 11.1232 25.816 11.3688 25.63 11.59C25.3279 11.9009 24.9481 12.1253 24.53 12.24H24.48Z" fill="white"/>
<path d="M41.84 11.57C41.8106 11.5691 41.7822 11.559 41.7588 11.541C41.7355 11.5231 41.7184 11.4982 41.71 11.47C41.6302 11.0856 41.5025 10.7127 41.33 10.36C41.0068 9.52724 40.387 8.84339 39.59 8.44C38.9291 8.31594 38.2509 8.31594 37.59 8.44C36.89 8.44 36.18 8.53 35.5 8.59C35.4835 8.59284 35.4665 8.59218 35.4502 8.58806C35.434 8.58394 35.4188 8.57645 35.4056 8.56609C35.3924 8.55572 35.3815 8.5427 35.3736 8.52788C35.3658 8.51305 35.3611 8.49674 35.36 8.48C35.3596 8.44609 35.3716 8.4132 35.3937 8.38745C35.4158 8.36171 35.4464 8.34484 35.48 8.34C36.1467 8.28 36.8467 8.23 37.58 8.19C39.17 8.11 39.4 8.19 39.58 8.25C40.4279 8.66424 41.0936 9.3762 41.45 10.25C41.6309 10.6196 41.7685 11.0088 41.86 11.41C41.8659 11.4431 41.8589 11.4772 41.8402 11.5052C41.8216 11.5331 41.7928 11.5528 41.76 11.56L41.84 11.57Z" fill="white"/>
<path d="M41.9 15.26C41.8829 15.2587 41.8662 15.2541 41.851 15.2464C41.8357 15.2387 41.8221 15.228 41.8109 15.215C41.7997 15.202 41.7913 15.1869 41.786 15.1706C41.7807 15.1543 41.7787 15.1371 41.78 15.12C41.78 14.71 41.87 14.3 41.88 13.88C41.89 13.46 41.88 13.14 41.88 12.78C41.8797 12.7461 41.8916 12.7132 41.9137 12.6875C41.9358 12.6617 41.9665 12.6448 42 12.64C42.0166 12.6386 42.0333 12.6407 42.049 12.6461C42.0647 12.6515 42.0792 12.6601 42.0914 12.6714C42.1036 12.6827 42.1134 12.6964 42.12 12.7116C42.1267 12.7269 42.1301 12.7434 42.13 12.76C42.13 13.13 42.13 13.51 42.13 13.89C42.13 14.27 42.08 14.74 42.03 15.15C42.0252 15.1809 42.0094 15.209 41.9855 15.2293C41.9617 15.2495 41.9313 15.2604 41.9 15.26Z" fill="white"/>
<path d="M36.63 23C36.5998 23.0001 36.5707 22.9888 36.5485 22.9685C36.5263 22.9481 36.5125 22.9201 36.51 22.89C36.5072 22.8735 36.5078 22.8565 36.5119 22.8403C36.5161 22.824 36.5235 22.8088 36.5339 22.7956C36.5443 22.7824 36.5573 22.7715 36.5721 22.7637C36.587 22.7558 36.6033 22.7512 36.62 22.75C37.8409 22.6568 39.0393 22.3699 40.17 21.9C40.7699 21.6617 41.3377 21.3493 41.86 20.97C42.5315 20.5411 43.0551 19.9162 43.36 19.18C43.4596 18.7035 43.4999 18.2164 43.48 17.73V17.44C43.48 16.75 43.48 16.24 43.48 15.64C43.48 14.64 43.41 14.19 43.35 13.81C43.2012 13.0001 42.9137 12.222 42.5 11.51C42.4853 11.4806 42.4823 11.4467 42.4915 11.4152C42.5008 11.3836 42.5217 11.3568 42.55 11.34C42.5603 11.3274 42.5733 11.3173 42.588 11.3104C42.6027 11.3034 42.6187 11.2998 42.635 11.2998C42.6513 11.2998 42.6673 11.3034 42.682 11.3104C42.6967 11.3173 42.7097 11.3274 42.72 11.34C43.151 12.0745 43.4457 12.8807 43.59 13.72C43.6703 14.3337 43.717 14.9512 43.73 15.57C43.73 16.18 43.78 16.7 43.73 17.4V17.68C43.7538 18.1935 43.7101 18.7079 43.6 19.21C43.278 19.9918 42.7228 20.6553 42.01 21.11C41.4817 21.5262 40.8956 21.8631 40.27 22.11C39.1136 22.5901 37.8884 22.8838 36.64 22.98L36.63 23Z" fill="white"/>
<path d="M42.7 21.2C42.6769 21.2002 42.6542 21.1937 42.6347 21.1812C42.6152 21.1688 42.5996 21.151 42.59 21.13C42.5817 21.1151 42.5766 21.0986 42.5751 21.0816C42.5737 21.0646 42.5759 21.0475 42.5816 21.0314C42.5872 21.0153 42.5963 21.0006 42.6081 20.9883C42.6199 20.976 42.6342 20.9664 42.65 20.96C42.8247 20.8758 42.9891 20.7718 43.14 20.65C43.4835 20.3664 43.7514 20.0023 43.92 19.59C44.0439 19.2916 44.1312 18.9794 44.18 18.66C44.2603 18.2181 44.2938 17.7689 44.28 17.32C44.2681 16.8457 44.2112 16.3736 44.11 15.91C43.93 14.98 43.77 13.91 43.64 12.69C43.6478 12.6628 43.6642 12.6389 43.6867 12.6219C43.7093 12.6049 43.7368 12.5957 43.765 12.5957C43.7933 12.5957 43.8207 12.6049 43.8433 12.6219C43.8658 12.6389 43.8823 12.6628 43.89 12.69C44.02 13.9 44.17 14.97 44.35 15.87C44.4545 16.3569 44.5148 16.8522 44.53 17.35C44.5438 17.8122 44.5102 18.2746 44.43 18.73C44.379 19.0738 44.2849 19.4097 44.15 19.73C43.9649 20.1799 43.6732 20.578 43.3 20.89C43.1304 21.0241 42.9458 21.1382 42.75 21.23L42.7 21.2Z" fill="white"/>
<path d="M44.36 20.14C44.3349 20.1393 44.3104 20.1313 44.2897 20.1169C44.2691 20.1026 44.253 20.0826 44.2434 20.0593C44.2339 20.036 44.2314 20.0104 44.2361 19.9857C44.2408 19.961 44.2526 19.9382 44.27 19.92C44.3444 19.8432 44.4114 19.7595 44.47 19.67C44.6359 19.4117 44.7481 19.1226 44.8 18.82C44.8302 18.6819 44.8469 18.5413 44.85 18.4V18.15C44.85 17.74 44.91 17.52 44.94 17.36C44.97 17.2 44.94 17.11 44.94 16.92C44.9527 16.5559 44.936 16.1914 44.89 15.83C44.8112 15.2231 44.6566 14.6285 44.43 14.06C44.4175 14.0444 44.4087 14.0261 44.4044 14.0066C44.4001 13.9871 44.4003 13.9668 44.4051 13.9474C44.4099 13.928 44.4191 13.91 44.432 13.8947C44.4449 13.8794 44.4612 13.8673 44.4795 13.8593C44.4978 13.8514 44.5178 13.8477 44.5378 13.8487C44.5577 13.8497 44.5772 13.8553 44.5947 13.865C44.6121 13.8748 44.6271 13.8884 44.6384 13.9049C44.6498 13.9213 44.6571 13.9402 44.66 13.96C44.8979 14.5503 45.0593 15.1687 45.14 15.8C45.1859 16.1748 45.2026 16.5526 45.19 16.93C45.19 17.13 45.19 17.23 45.14 17.39C45.09 17.55 45.14 17.76 45.06 18.17V18.42C45.0561 18.5711 45.0393 18.7217 45.01 18.87C44.9511 19.205 44.8253 19.5247 44.64 19.81C44.5686 19.9134 44.4883 20.0105 44.4 20.1C44.3901 20.1163 44.3763 20.13 44.36 20.14Z" fill="white"/>
<path d="M45.34 19.76C45.23 19.76 45.2 19.65 45.23 19.58C45.3435 19.2961 45.4273 19.0012 45.48 18.7C45.524 18.4694 45.5408 18.2345 45.53 18C45.53 17.82 45.53 17.59 45.53 17.26C45.53 16.93 45.53 16.82 45.53 16.67C45.5563 16.4575 45.5563 16.2425 45.53 16.03C45.4901 15.7272 45.4094 15.4311 45.29 15.15C45.2797 15.1194 45.2812 15.0861 45.2941 15.0565C45.3071 15.0269 45.3306 15.0032 45.36 14.99C45.3748 14.9818 45.3913 14.9772 45.4081 14.9764C45.425 14.9756 45.4418 14.9787 45.4573 14.9855C45.4728 14.9923 45.4865 15.0025 45.4973 15.0154C45.5082 15.0284 45.516 15.0436 45.52 15.06C45.646 15.3576 45.7334 15.6702 45.78 15.99C45.8058 16.2193 45.8058 16.4507 45.78 16.68C45.78 16.82 45.78 17.01 45.78 17.26C45.78 17.51 45.78 17.82 45.78 17.99C45.7896 18.2444 45.7728 18.4991 45.73 18.75C45.6703 19.068 45.5799 19.3795 45.46 19.68C45.4501 19.7037 45.4335 19.7239 45.4121 19.7382C45.3908 19.7524 45.3657 19.76 45.34 19.76Z" fill="white"/>
<path d="M46.17 19.05C46.06 19.05 46.02 18.94 46.05 18.88C46.1284 18.6714 46.1919 18.4576 46.24 18.24C46.3078 17.9347 46.3414 17.6228 46.34 17.31C46.3309 16.9415 46.2772 16.5755 46.18 16.22C46.1754 16.2049 46.1738 16.189 46.1753 16.1733C46.1768 16.1576 46.1814 16.1423 46.1888 16.1284C46.1963 16.1145 46.2064 16.1021 46.2186 16.0921C46.2308 16.0821 46.2449 16.0746 46.26 16.07C46.2931 16.0608 46.3286 16.0651 46.3586 16.0819C46.3886 16.0988 46.4107 16.1269 46.42 16.16C46.5268 16.5342 46.584 16.9209 46.59 17.31C46.5934 17.646 46.5598 17.9813 46.49 18.31C46.4398 18.5423 46.3695 18.7698 46.28 18.99C46.269 19.0092 46.2528 19.0249 46.2334 19.0355C46.214 19.0461 46.1921 19.0511 46.17 19.05Z" fill="white"/>
<path d="M23.58 20.7C23.554 20.7084 23.526 20.7084 23.5 20.7C23.2922 20.5307 23.1103 20.3319 22.96 20.11C22.6798 19.6501 22.4897 19.141 22.4 18.61C22.32 18.32 22.25 18.01 22.17 17.61C22.0593 16.9056 22.0092 16.193 22.02 15.48C22.0245 15.4481 22.04 15.4187 22.0637 15.3969C22.0873 15.375 22.1178 15.362 22.15 15.36C22.1666 15.3599 22.1831 15.3633 22.1984 15.37C22.2136 15.3766 22.2273 15.3864 22.2386 15.3986C22.2499 15.4108 22.2585 15.4253 22.2639 15.441C22.2693 15.4567 22.2714 15.4734 22.27 15.49C22.2595 16.1864 22.3097 16.8823 22.42 17.57C22.49 18 22.57 18.3 22.64 18.57C22.732 19.0708 22.9114 19.5514 23.17 19.99C23.3061 20.193 23.4712 20.3749 23.66 20.53C23.6829 20.5447 23.7001 20.5668 23.7088 20.5926C23.7175 20.6184 23.7172 20.6464 23.7079 20.672C23.6986 20.6976 23.6809 20.7192 23.6576 20.7334C23.6344 20.7476 23.607 20.7534 23.58 20.75V20.7Z" fill="white"/>
<path d="M22.15 19.74C22.1283 19.7392 22.107 19.7334 22.0879 19.723C22.0688 19.7126 22.0524 19.6979 22.04 19.68C21.8973 19.4281 21.7704 19.1676 21.66 18.9C21.4824 18.4369 21.3648 17.9529 21.31 17.46C21.2551 17.0117 21.2551 16.5583 21.31 16.11C21.3192 16.0783 21.3393 16.0509 21.3668 16.0326C21.3942 16.0143 21.4272 16.0063 21.46 16.01C21.4758 16.0124 21.4911 16.018 21.5047 16.0264C21.5184 16.0348 21.5302 16.0458 21.5396 16.0589C21.5489 16.0719 21.5555 16.0867 21.559 16.1024C21.5625 16.118 21.5629 16.1342 21.56 16.15C21.5052 16.5749 21.5052 17.0051 21.56 17.43C21.6092 17.9002 21.7236 18.3613 21.9 18.8C21.9976 19.0601 22.1181 19.3111 22.26 19.55C22.2747 19.5794 22.2777 19.6133 22.2684 19.6448C22.2592 19.6764 22.2383 19.7032 22.21 19.72L22.15 19.74Z" fill="white"/>
<path d="M20.89 19.05H20.82C20.5877 18.7653 20.4482 18.4163 20.42 18.05C20.3721 17.6821 20.4275 17.3082 20.58 16.97C20.584 16.9536 20.5918 16.9384 20.6027 16.9254C20.6135 16.9125 20.6273 16.9023 20.6427 16.8955C20.6582 16.8887 20.675 16.8856 20.6919 16.8864C20.7088 16.8872 20.7252 16.8918 20.74 16.9C20.7718 16.9133 20.7971 16.9386 20.8102 16.9705C20.8233 17.0024 20.8233 17.0382 20.81 17.07C20.6755 17.3638 20.6269 17.6897 20.67 18.01C20.6924 18.1782 20.7361 18.3428 20.8 18.5C20.8278 18.4939 20.8569 18.4989 20.8811 18.5138C20.9054 18.5287 20.9229 18.5524 20.93 18.58C21.03 18.85 21.06 18.96 20.93 19.01L20.89 19.05Z" fill="white"/>
<path d="M34.27 23.35C33.7889 23.3414 33.3125 23.2535 32.86 23.09C32.6042 23.0129 32.3537 22.9193 32.11 22.81L31.91 22.72C31.2728 22.4783 30.587 22.3925 29.91 22.47H29.48C28.2738 22.4289 27.1059 22.0362 26.12 21.34C26.1004 21.3185 26.0886 21.2912 26.0863 21.2622C26.0841 21.2332 26.0917 21.2044 26.1078 21.1802C26.1239 21.156 26.1477 21.138 26.1752 21.1289C26.2028 21.1198 26.2327 21.1202 26.26 21.13C27.2047 21.7997 28.323 22.1817 29.48 22.23H29.95C30.6582 22.1525 31.3747 22.2451 32.04 22.5L32.25 22.59C32.4846 22.6967 32.7249 22.7902 32.97 22.87C33.4547 23.0404 33.9663 23.1217 34.48 23.11C34.8764 23.0892 35.2658 22.9978 35.63 22.84C35.6606 22.8297 35.6939 22.8312 35.7235 22.8441C35.7531 22.8571 35.7768 22.8805 35.79 22.91C35.7981 22.9255 35.8027 22.9426 35.8035 22.9601C35.8043 22.9776 35.8013 22.9951 35.7946 23.0113C35.788 23.0275 35.7778 23.0421 35.7649 23.0539C35.752 23.0658 35.7367 23.0747 35.72 23.08C35.3305 23.2368 34.9188 23.3313 34.5 23.36L34.27 23.35Z" fill="white"/>
<path d="M27.15 10.11C27.1192 10.1085 27.0898 10.0969 27.0663 10.077C27.0428 10.0572 27.0265 10.0301 27.02 10C27.0171 9.98346 27.0178 9.96652 27.0219 9.95025C27.026 9.93399 27.0335 9.91877 27.0439 9.90557C27.0543 9.89238 27.0673 9.88151 27.0821 9.87366C27.0969 9.86581 27.1132 9.86116 27.13 9.86C27.6404 9.78512 28.119 9.56662 28.51 9.23C28.9129 8.88563 29.2052 8.42989 29.35 7.92C29.3545 7.90488 29.3621 7.89082 29.3721 7.87861C29.3821 7.8664 29.3944 7.85629 29.4084 7.84886C29.4223 7.84143 29.4376 7.83682 29.4533 7.8353C29.469 7.83378 29.4849 7.83538 29.5 7.84C29.516 7.84348 29.5311 7.8502 29.5444 7.85975C29.5578 7.8693 29.569 7.88148 29.5774 7.89553C29.5859 7.90959 29.5913 7.92522 29.5935 7.94147C29.5956 7.95771 29.5945 7.97423 29.59 7.99C29.4296 8.5367 29.1168 9.0264 28.6882 9.40184C28.2596 9.77727 27.733 10.0229 27.17 10.11H27.15Z" fill="white"/>
<path d="M32.48 29.18C32.48 29.2512 32.4589 29.3208 32.4193 29.38C32.3798 29.4392 32.3236 29.4853 32.2578 29.5126C32.192 29.5398 32.1196 29.547 32.0498 29.5331C31.9799 29.5192 31.9158 29.4849 31.8655 29.4346C31.8151 29.3842 31.7808 29.3201 31.7669 29.2502C31.753 29.1804 31.7602 29.108 31.7874 29.0422C31.8147 28.9765 31.8608 28.9202 31.92 28.8807C31.9792 28.8411 32.0488 28.82 32.12 28.82C32.2155 28.82 32.3071 28.8579 32.3746 28.9254C32.4421 28.993 32.48 29.0845 32.48 29.18Z" fill="#3F469A"/>
<path d="M34.14 29.18C34.14 29.2512 34.1189 29.3208 34.0793 29.38C34.0398 29.4392 33.9835 29.4853 33.9177 29.5126C33.852 29.5398 33.7796 29.547 33.7098 29.5331C33.6399 29.5192 33.5758 29.4849 33.5254 29.4346C33.4751 29.3842 33.4408 29.3201 33.4269 29.2502C33.413 29.1804 33.4201 29.108 33.4474 29.0422C33.4746 28.9765 33.5208 28.9202 33.58 28.8807C33.6392 28.8411 33.7088 28.82 33.78 28.82C33.8755 28.82 33.967 28.8579 34.0345 28.9254C34.1021 28.993 34.14 29.0845 34.14 29.18Z" fill="#3F469A"/>
<path d="M35.84 29.18C35.84 29.2512 35.8189 29.3208 35.7793 29.38C35.7398 29.4392 35.6836 29.4853 35.6178 29.5126C35.552 29.5398 35.4796 29.547 35.4098 29.5331C35.3399 29.5192 35.2758 29.4849 35.2254 29.4346C35.1751 29.3842 35.1408 29.3201 35.1269 29.2502C35.113 29.1804 35.1202 29.108 35.1474 29.0422C35.1747 28.9765 35.2208 28.9202 35.28 28.8807C35.3392 28.8411 35.4088 28.82 35.48 28.82C35.5755 28.82 35.667 28.8579 35.7346 28.9254C35.8021 28.993 35.84 29.0845 35.84 29.18Z" fill="#3F469A"/>
<path d="M41.9 35.76C41.8704 35.7581 41.8425 35.7461 41.8206 35.7261C41.7988 35.7061 41.7845 35.6793 41.78 35.65C41.7057 34.9637 41.827 34.2703 42.13 33.65C42.4947 32.9887 43.0728 32.4705 43.77 32.18C44.4566 31.8641 45.0544 31.3831 45.51 30.78C45.8154 30.3356 46.0577 29.851 46.23 29.34C46.44 28.79 46.61 28.34 47.09 28.26C47.2356 28.245 47.3828 28.2604 47.5222 28.3052C47.6616 28.3499 47.7902 28.4231 47.9 28.52C48.1 28.66 48.27 28.79 48.51 28.73C48.75 28.67 48.99 28.32 49.18 27.87C49.3476 27.2826 49.7294 26.7795 50.25 26.46C50.91 26.11 51.89 26.12 52.25 26.64C52.61 27.16 52.12 27.84 52.03 27.98C52.0188 27.9912 52.0056 28.0001 51.991 28.0061C51.9764 28.0122 51.9608 28.0153 51.945 28.0153C51.9292 28.0153 51.9135 28.0122 51.899 28.0061C51.8844 28.0001 51.8711 27.9912 51.86 27.98C51.8396 27.9564 51.8283 27.9262 51.8283 27.895C51.8283 27.8638 51.8396 27.8336 51.86 27.81C51.86 27.81 52.31 27.12 52.08 26.74C51.85 26.36 50.99 26.37 50.45 26.65C49.9682 26.9411 49.6118 27.4009 49.45 27.94C49.25 28.41 49.06 28.86 48.6 28.94C48.4549 28.9602 48.3071 28.9483 48.1672 28.9051C48.0272 28.8619 47.8984 28.7885 47.79 28.69C47.7074 28.6125 47.6097 28.553 47.503 28.5151C47.3963 28.4772 47.2829 28.4619 47.17 28.47C46.85 28.52 46.72 28.82 46.51 29.39C46.3275 29.9197 46.0716 30.4213 45.75 30.88C45.2757 31.5168 44.6502 32.0255 43.93 32.36C43.2745 32.6263 42.7307 33.11 42.39 33.73C42.1067 34.3135 41.9957 34.9657 42.07 35.61C42.0703 35.6439 42.0584 35.6768 42.0363 35.7025C42.0142 35.7283 41.9835 35.7452 41.95 35.75L41.9 35.76Z" fill="#122275"/>
<path d="M59.64 35.57L54.77 37.39C54.17 36.12 53.56 34.86 52.95 33.59L54.48 31.85L59.64 35.57Z" fill="#122275"/>
<path d="M53.72 33.62C53.1098 33.6232 52.5016 33.5493 51.91 33.4C50.9658 33.1513 50.0883 32.6972 49.34 32.07C49.02 30.52 49.34 29.32 50.01 29.07C50.2613 28.9889 50.5345 29.0104 50.77 29.13L53.04 29.42C53.4944 29.5673 53.881 29.8724 54.13 30.28C54.2503 30.5476 54.3344 30.8301 54.38 31.12C54.52 31.64 54.66 32.06 54.77 32.35L53.72 33.62Z" fill="#122275"/>
<path d="M46.66 55.97L51.26 56.69L60.03 45.77C59.2208 45.0831 58.3186 44.5141 57.35 44.08C55.9135 43.4956 54.3888 43.1576 52.84 43.08C50.84 42.88 48.84 42.55 46.84 42.45C44.26 42.31 40.24 41.57 34.02 38.84L26.15 43.07C25.2113 43.9529 23.9956 44.483 22.71 44.57C22.4605 44.5939 22.2094 44.5939 21.96 44.57C21.3801 44.3953 20.8475 44.0912 20.4024 43.6806C19.9572 43.2701 19.611 42.7638 19.39 42.2C18.5406 41.8859 17.6135 41.8493 16.742 42.0955C15.8705 42.3416 15.0995 42.8579 14.54 43.57C17.9061 46.2924 21.418 48.8295 25.06 51.17C25.7915 51.5828 26.5461 51.9535 27.32 52.28C28.0877 52.5848 28.8724 52.8452 29.67 53.06C33.37 54.12 35.19 53.53 38.98 53.97C41.6189 54.2849 44.2026 54.9578 46.66 55.97Z" fill="#FF8C64"/>
<path d="M34.27 45.53C36.1699 45.53 37.71 43.9899 37.71 42.09C37.71 40.1901 36.1699 38.65 34.27 38.65C32.3702 38.65 30.83 40.1901 30.83 42.09C30.83 43.9899 32.3702 45.53 34.27 45.53Z" fill="#FF8C64"/>
<path d="M53.82 57.23C58.05 57.23 61.47 54.12 61.47 50.3C61.47 46.48 58.05 43.37 53.82 43.37C49.59 43.37 46.16 46.47 46.16 50.3C46.16 54.13 49.59 57.23 53.82 57.23Z" fill="#FF8C64"/>
<path d="M65.66 44.21V56.32C65.5736 56.3299 65.4864 56.3299 65.4 56.32C63.3499 56.4018 61.298 56.2067 59.3 55.74L53.82 44.16C57.7591 43.796 61.7241 43.8127 65.66 44.21Z" fill="#FF8C64"/>
<path d="M15.34 44.2C16.3595 43.9284 17.3614 43.5945 18.34 43.2C19.1294 42.8837 19.8546 42.4263 20.48 41.85C20.6136 41.7469 20.7243 41.6173 20.8052 41.4693C20.8861 41.3212 20.9354 41.1581 20.95 40.99C20.9497 40.8288 20.9105 40.67 20.8356 40.5272C20.7608 40.3845 20.6525 40.2619 20.52 40.17C20.4971 40.1019 20.4971 40.0281 20.52 39.96C20.58 39.83 20.76 39.83 20.82 39.65C20.8504 39.5639 20.8533 39.4705 20.8282 39.3827C20.8031 39.2949 20.7513 39.2171 20.68 39.16C20.5997 39.1283 20.5103 39.1283 20.43 39.16C20.4921 39.0708 20.5326 38.9683 20.5482 38.8606C20.5639 38.753 20.5542 38.6432 20.52 38.54C20.496 38.4879 20.4614 38.4414 20.4184 38.4035C20.3753 38.3656 20.3247 38.3371 20.27 38.32C20.1094 38.2748 19.9524 38.218 19.8 38.15C18.9215 37.7855 18.2091 37.1086 17.8 36.25C17.7355 36.0521 17.6587 35.8584 17.57 35.67C17.5243 35.5661 17.4708 35.4658 17.41 35.37C17.0831 34.8202 16.6393 34.3491 16.11 33.99C15.3684 33.4547 14.5187 33.0879 13.6206 32.9151C12.7224 32.7424 11.7973 32.768 10.91 32.99C8.68 33.65 6.23001 36.13 6.64001 38.86C7.05001 41.59 10.23 43.36 11.87 43.33C13.0859 43.2513 14.2959 43.5556 15.33 44.2H15.34Z" fill="#FF8C64"/>
<path d="M19.48 38.18C19.4972 38.0458 19.5414 37.9166 19.61 37.8C19.7 37.65 19.79 37.64 19.85 37.49C19.886 37.3761 19.886 37.2539 19.85 37.14C19.8237 37.0101 19.753 36.8934 19.65 36.81C19.4874 36.714 19.2949 36.6819 19.11 36.72C18.6422 36.7233 18.1823 36.5988 17.78 36.36L18.39 37.46L19.48 38.18Z" fill="#FF8C64"/>
<path d="M16.33 37.57C16.3094 37.5704 16.2891 37.565 16.2714 37.5543C16.2537 37.5437 16.2394 37.5284 16.23 37.51C16.1178 37.3296 16.0478 37.1261 16.0253 36.9149C16.0028 36.7036 16.0283 36.49 16.1 36.29C16.1822 36.1097 16.2998 35.9478 16.4459 35.8138C16.5919 35.6798 16.7633 35.5765 16.95 35.51C16.9648 35.5018 16.9812 35.4972 16.9981 35.4964C17.015 35.4956 17.0318 35.4987 17.0473 35.5055C17.0627 35.5123 17.0764 35.5225 17.0873 35.5354C17.0982 35.5484 17.106 35.5636 17.11 35.58C17.1164 35.595 17.1197 35.6112 17.1196 35.6276C17.1195 35.644 17.1161 35.6601 17.1095 35.6751C17.103 35.6901 17.0934 35.7036 17.0815 35.7147C17.0695 35.7259 17.0554 35.7345 17.04 35.74C16.7279 35.8508 16.4725 36.081 16.33 36.38C16.2735 36.5445 16.2541 36.7194 16.2731 36.8923C16.2921 37.0652 16.3491 37.2317 16.44 37.38C16.4512 37.3911 16.46 37.4044 16.4661 37.419C16.4722 37.4336 16.4753 37.4492 16.4753 37.465C16.4753 37.4808 16.4722 37.4964 16.4661 37.511C16.46 37.5256 16.4512 37.5388 16.44 37.55L16.33 37.57Z" fill="#122275"/>
<path d="M16.42 36.4C16.56 36.7 16.85 36.87 17.07 36.77C17.1804 36.6879 17.2561 36.5674 17.282 36.4322C17.3079 36.2971 17.2822 36.1571 17.21 36.04C17.07 35.74 16.79 35.57 16.57 35.67C16.456 35.7491 16.3768 35.8691 16.3489 36.005C16.321 36.1409 16.3464 36.2824 16.42 36.4Z" fill="#122275"/>
<path d="M19.99 39.02C19.88 39.23 19.63 39.47 18.99 39.58C19.2548 39.6537 19.5352 39.6495 19.7977 39.5679C20.0602 39.4863 20.2936 39.3308 20.47 39.12C20.47 39.12 20.7 38.69 20.47 38.42C20.41 38.33 20.27 38.21 20.16 38.24C20.05 38.27 20.14 38.7 19.99 39.02Z" fill="#EA522F"/>
<path d="M15.09 34.57C15.1549 34.5209 15.2293 34.4858 15.3085 34.4669C15.3877 34.448 15.4699 34.4456 15.55 34.46C15.6104 34.4784 15.6651 34.512 15.7088 34.5575C15.7526 34.603 15.784 34.6589 15.8 34.72L15.09 34.57Z" fill="#122275"/>
<path d="M15.03 34.57L15.37 34.66C15.59 34.72 15.65 34.66 15.65 34.74C15.65 34.82 15.01 35.26 14.41 35.88C14.0639 36.2413 13.774 36.6526 13.55 37.1C13.5352 36.9838 13.5352 36.8662 13.55 36.75C13.7676 35.8701 14.2925 35.0969 15.03 34.57Z" fill="#122275"/>
<path d="M20.12 40.27C20.0978 40.2724 20.0753 40.2679 20.0556 40.2572C20.036 40.2465 20.0201 40.23 20.01 40.21C19.9953 40.1806 19.9923 40.1467 20.0016 40.1152C20.0108 40.0836 20.0317 40.0568 20.06 40.04L20.41 39.84C20.4336 39.8196 20.4638 39.8084 20.495 39.8084C20.5262 39.8084 20.5564 39.8196 20.58 39.84C20.6004 39.8636 20.6117 39.8938 20.6117 39.925C20.6117 39.9562 20.6004 39.9864 20.58 40.01L20.23 40.21L20.12 40.27Z" fill="#EA522F"/>
<path d="M47.57 54.11C54.3134 54.11 59.78 49.5478 59.78 43.92C59.78 38.2922 54.3134 33.73 47.57 33.73C40.8266 33.73 35.36 38.2922 35.36 43.92C35.36 49.5478 40.8266 54.11 47.57 54.11Z" fill="#FF8C64"/>
<path d="M29.48 57.34L4.06001 46.93C3.62729 46.7653 3.2319 46.5156 2.89715 46.1958C2.5624 45.8759 2.29506 45.4922 2.11087 45.0674C1.92667 44.6426 1.82935 44.1853 1.82464 43.7223C1.81994 43.2593 1.90794 42.8 2.08346 42.3716C2.25898 41.9431 2.51847 41.5541 2.84665 41.2275C3.17482 40.9009 3.56505 40.6433 3.99434 40.4698C4.42362 40.2963 4.88327 40.2105 5.34623 40.2174C5.80919 40.2243 6.2661 40.3238 6.69001 40.51L32.11 50.92C32.9388 51.2841 33.5925 51.9576 33.9317 52.7969C34.2709 53.6362 34.2686 54.5748 33.9255 55.4124C33.5823 56.2501 32.9254 56.9205 32.0949 57.2806C31.2644 57.6407 30.326 57.662 29.48 57.34Z" fill="#FFC5D2"/>
<path d="M60.66 51.51H33.84C31.2498 51.51 29.15 53.6098 29.15 56.2V62.18C29.15 64.7702 31.2498 66.87 33.84 66.87H60.66C63.2502 66.87 65.35 64.7702 65.35 62.18V56.2C65.35 53.6098 63.2502 51.51 60.66 51.51Z" fill="#FFC5D2"/>
<path d="M11.26 42.72C8.77999 41.81 7.53999 41.36 6.97999 40.63C5.84999 39.14 6.25999 36.63 7.38999 34.94C8.10275 34.0875 9.01863 33.4282 10.0532 33.0227C11.0878 32.6173 12.2078 32.4788 13.31 32.62C13.453 32.6135 13.5958 32.6379 13.7287 32.6913C13.8615 32.7448 13.9813 32.8262 14.08 32.93C14.37 33.36 13.79 33.85 13.63 34.8C13.36 36.44 14.63 37.66 14 38.48C13.952 38.5384 13.8984 38.592 13.84 38.64C14.5638 39.4302 15.4703 40.0311 16.48 40.39C17.8 40.83 18.2 40.45 19.4 40.86C20.8311 41.4569 22.0234 42.5121 22.79 43.86C22.99 44.15 24.6 46.5 24.02 47.1C23.81 47.31 23.37 47.26 20.66 46.2C19.42 45.72 18.41 45.29 17.72 45C16.61 44.55 15.13 44 13.36 43.39C12.39 43.1 12.07 43.01 11.26 42.72Z" fill="#3F469A"/>
<path d="M64.99 51.99L68.24 55.36L57.98 64.68C57.3471 63.8242 56.8419 62.881 56.48 61.88C55.9975 60.4095 55.7709 58.8671 55.81 57.32C55.74 55.32 55.56 53.32 55.6 51.32C55.6 48.74 55.19 44.67 52.91 38.32L57.68 30.78C58.6232 29.8928 59.2279 28.7047 59.39 27.42C59.4262 27.175 59.4429 26.9276 59.44 26.68C59.4254 25.6757 59.1385 24.6941 58.61 23.84L60 23.31L62.14 22.48C63.38 25.07 64.62 27.65 65.85 30.24C66.7107 31.6831 67.2433 33.298 67.41 34.97C67.74 38.46 66.19 40.41 65.34 44.58C64.8611 47.0195 64.7432 49.5162 64.99 51.99Z" fill="#FF8C64"/>
<path d="M58.78 40.4C58.8348 41.0776 58.6877 41.7562 58.3572 42.3502C58.0267 42.9443 57.5276 43.427 56.9229 43.7376C56.3182 44.0482 55.635 44.1727 54.9597 44.0953C54.2843 44.0179 53.647 43.7422 53.1282 43.3029C52.6094 42.8636 52.2324 42.2805 52.0448 41.6271C51.8572 40.9737 51.8674 40.2794 52.074 39.6318C52.2807 38.9842 52.6746 38.4123 53.2061 37.9884C53.7375 37.5645 54.3826 37.3076 55.06 37.25C55.9708 37.1753 56.8741 37.465 57.5715 38.0556C58.2689 38.6461 58.7036 39.4893 58.78 40.4Z" fill="#FF8C64"/>
<path d="M69.38 60.86C69.3937 61.9896 69.1662 63.1092 68.7126 64.1439C68.2591 65.1786 67.59 66.1046 66.75 66.86H58.16C57.3212 66.103 56.6523 65.177 56.1973 64.1428C55.7422 63.1086 55.5114 61.9898 55.52 60.86C55.5209 60.0685 55.632 59.2809 55.85 58.52C56.2288 57.0342 57.0803 55.7119 58.2762 54.7523C59.4721 53.7927 60.9475 53.2479 62.48 53.2C63.4997 53.2135 64.5026 53.4613 65.4112 53.9243C66.3198 54.3872 67.1098 55.053 67.72 55.87C68.815 57.3013 69.3994 59.058 69.38 60.86Z" fill="#FF8C64"/>
<path d="M59.88 26.14C59.749 26.3137 59.6017 26.4745 59.44 26.62C59.4254 25.6157 59.1385 24.6341 58.61 23.78L60 23.25L60.1 23.32C60.78 23.84 60.68 25.1 59.88 26.14Z" fill="#122275"/>
<path d="M62.48 23.06C61.5559 23.5901 60.6008 24.0643 59.62 24.48C58.8364 24.8064 57.9986 24.9828 57.15 25C56.9847 25.0221 56.8167 25.0095 56.6565 24.963C56.4964 24.9165 56.3477 24.8371 56.22 24.73C56.1115 24.6109 56.0303 24.4695 55.9819 24.3158C55.9336 24.1622 55.9193 23.9998 55.94 23.84C55.94 23.73 55.85 23.69 55.81 23.68C55.77 23.67 55.55 23.75 55.38 23.68C55.299 23.6402 55.2318 23.5769 55.1873 23.4985C55.1427 23.42 55.1227 23.33 55.13 23.24C55.1561 23.1557 55.2087 23.082 55.28 23.03C55.1763 23.0076 55.0788 22.9629 54.9942 22.899C54.9096 22.8351 54.8399 22.7536 54.79 22.66C54.7669 22.6063 54.7549 22.5485 54.7549 22.49C54.7549 22.4315 54.7669 22.3737 54.79 22.32C54.8696 22.1781 54.9398 22.0312 55 21.88C55.3693 21.0026 55.4013 20.0196 55.09 19.12C54.9915 18.9383 54.9111 18.7474 54.85 18.55C54.8079 18.4428 54.7745 18.3325 54.75 18.22C54.6169 17.5937 54.6169 16.9463 54.75 16.32C54.9092 15.425 55.2596 14.5748 55.7773 13.8275C56.2951 13.0803 56.9679 12.4535 57.75 11.99C59.75 10.89 63.29 10.99 64.92 13.18C66.55 15.37 65.52 18.9 64.33 20.02C63.8217 20.4662 63.3865 20.9892 63.04 21.57C62.7902 22.0406 62.602 22.5414 62.48 23.06Z" fill="#FF8C64"/>
<path d="M55.28 21.66C55.1759 21.5724 55.0525 21.5107 54.92 21.48C54.76 21.48 54.69 21.48 54.54 21.48C54.4296 21.4361 54.3353 21.3593 54.27 21.26C54.2056 21.144 54.1744 21.0125 54.18 20.88C54.232 20.7005 54.3452 20.5448 54.5 20.44C54.8383 20.1112 55.0803 19.6963 55.2 19.24C55.31 19.65 55.43 20.05 55.54 20.46C55.48 20.82 55.37 21.24 55.28 21.66Z" fill="#FF8C64"/>
<path d="M57.21 19.09C57.1908 19.089 57.172 19.084 57.1548 19.0754C57.1376 19.0668 57.1223 19.0548 57.11 19.04C56.9136 18.7646 56.627 18.5665 56.3 18.48C56.0026 18.3977 55.6864 18.4153 55.4 18.53C55.3694 18.5403 55.336 18.5388 55.3065 18.5259C55.2769 18.5129 55.2532 18.4894 55.24 18.46C55.2318 18.4452 55.2272 18.4288 55.2264 18.4119C55.2256 18.395 55.2287 18.3782 55.2355 18.3627C55.2423 18.3473 55.2525 18.3335 55.2654 18.3227C55.2783 18.3118 55.2936 18.304 55.31 18.3C55.6469 18.1647 56.0182 18.1402 56.37 18.23C56.7682 18.3308 57.1207 18.5634 57.37 18.89C57.3911 18.9152 57.4027 18.9471 57.4027 18.98C57.4027 19.0129 57.3911 19.0448 57.37 19.07L57.21 19.09Z" fill="#122275"/>
<path d="M56.29 18.8C56.29 19.13 56.15 19.42 55.93 19.43C55.71 19.44 55.5 19.2 55.47 18.87C55.44 18.54 55.6 18.25 55.83 18.23C56.06 18.21 56.26 18.47 56.29 18.8Z" fill="#122275"/>
<path d="M55.48 22.63C56.04 22.79 56.61 21.87 56.7 21.95C56.79 22.03 56.28 22.87 55.81 22.95C55.62 23.0009 55.42 23.0009 55.23 22.95C55.09 22.95 54.76 22.77 54.72 22.49C54.72 22.37 54.72 22.19 54.81 22.14C54.9 22.09 55.18 22.57 55.48 22.63Z" fill="#EA522F"/>
<path d="M55.76 16.57C55.6821 16.574 55.606 16.5949 55.537 16.6312C55.4679 16.6674 55.4075 16.7182 55.36 16.78C55.3198 16.8321 55.2903 16.8915 55.2731 16.955C55.256 17.0185 55.2515 17.0848 55.26 17.15L55.76 16.57Z" fill="#122275"/>
<path d="M55.82 16.57C55.76 16.65 55.69 16.75 55.59 16.87C55.49 16.99 55.39 17.08 55.4 17.12C55.41 17.16 56.1 17.12 56.8 17.23C57.2048 17.2963 57.5923 17.4424 57.94 17.66C57.9141 17.5581 57.8736 17.4604 57.82 17.37C57.33 16.57 56.02 16.57 55.82 16.57Z" fill="#122275"/>
<path d="M55.81 23.76C55.7814 23.7604 55.7535 23.7505 55.7315 23.7322C55.7095 23.7139 55.6948 23.6882 55.69 23.66C55.6855 23.6442 55.6843 23.6277 55.6865 23.6115C55.6887 23.5952 55.6941 23.5796 55.7026 23.5655C55.711 23.5515 55.7222 23.5393 55.7355 23.5297C55.7488 23.5202 55.764 23.5135 55.78 23.51L56.17 23.41C56.1851 23.4054 56.201 23.4038 56.2167 23.4053C56.2324 23.4068 56.2477 23.4114 56.2616 23.4189C56.2756 23.4263 56.2879 23.4364 56.2979 23.4486C56.3079 23.4608 56.3154 23.4749 56.32 23.49C56.3292 23.5231 56.3249 23.5586 56.3081 23.5886C56.2912 23.6186 56.2631 23.6407 56.23 23.65L55.84 23.75L55.81 23.76Z" fill="#EA522F"/>
<path d="M55.79 22.92C55.79 22.92 55.66 23.12 55.46 23.14C55.3659 23.1713 55.2641 23.1713 55.17 23.14L55 22.95C55.1427 22.9688 55.2873 22.9688 55.43 22.95C55.66 22.94 55.78 22.89 55.79 22.92Z" fill="white"/>
<path d="M70.66 61.18C70.2937 63.3773 69.1897 65.3842 67.53 66.87H56.48C55.7289 66.2311 55.0782 65.4827 54.55 64.65C54.8167 62.47 55.08 60.2867 55.34 58.1C52.43 49.87 51.2 43.43 51.55 40.98C51.6942 40.0365 51.9598 39.1155 52.34 38.24C52.8901 37.0789 53.6611 36.0362 54.61 35.17L58.61 29.06L58.95 28.9L64.04 26.57H64.09H64.19C64.2289 26.6232 64.2624 26.6802 64.29 26.74C65.3018 28.39 66.1269 30.1475 66.75 31.98C68.01 35.66 68.01 38.35 68.29 43.46C68.45 46.04 68.7 49.92 69.19 54.78C70.4171 56.6742 70.9375 58.9402 70.66 61.18Z" fill="#3F469A"/>
<path d="M70 22.57C70 23.4125 69.7501 24.2362 69.282 24.9367C68.814 25.6373 68.1486 26.1833 67.3702 26.5057C66.5918 26.8282 65.7353 26.9125 64.9089 26.7481C64.0826 26.5838 63.3235 26.178 62.7277 25.5823C62.1319 24.9865 61.7262 24.2274 61.5618 23.4011C61.3975 22.5747 61.4818 21.7182 61.8043 20.9398C62.1267 20.1614 62.6727 19.496 63.3733 19.0279C64.0738 18.5598 64.8974 18.31 65.74 18.31C66.8698 18.31 67.9534 18.7588 68.7523 19.5577C69.5512 20.3566 70 21.4402 70 22.57Z" fill="#122275"/>
<path d="M55.31 13.83C55.1244 13.8515 54.9464 13.916 54.7901 14.0185C54.6339 14.1209 54.5037 14.2584 54.41 14.42C54.311 14.6144 54.2828 14.8371 54.33 15.05C54.52 15.84 56.4 15.6 57.8 16.27C60.62 17.61 60.85 22.27 61.71 22.15C61.87 22.15 61.92 21.94 62.1 21.6C63.1 19.81 64.61 19.8 65.57 18.44C66.1444 17.5519 66.3854 16.489 66.25 15.44C66.0637 14.4027 65.5901 13.4385 64.883 12.6571C64.1759 11.8758 63.2636 11.3085 62.25 11.02C60.9446 10.7081 59.5745 10.8112 58.3305 11.3149C57.0865 11.8186 56.0306 12.6978 55.31 13.83Z" fill="#122275"/>
<path d="M55.76 20.94C55.4088 20.9722 55.0561 20.8976 54.7481 20.726C54.4401 20.5543 54.1911 20.2936 54.0338 19.978C53.8765 19.6624 53.8182 19.3067 53.8665 18.9574C53.9149 18.6081 54.0676 18.2815 54.3048 18.0205C54.5419 17.7595 54.8523 17.5763 55.1954 17.4947C55.5385 17.4132 55.8982 17.4372 56.2274 17.5637C56.5566 17.6901 56.8399 17.913 57.0402 18.2032C57.2405 18.4934 57.3485 18.8374 57.35 19.19C57.369 19.6324 57.2127 20.0644 56.915 20.3921C56.6172 20.7198 56.2021 20.9167 55.76 20.94ZM55.76 17.7C55.4582 17.6676 55.1536 17.7276 54.8866 17.872C54.6195 18.0163 54.4026 18.2383 54.2644 18.5086C54.1262 18.7789 54.0733 19.0848 54.1126 19.3858C54.152 19.6868 54.2817 19.9688 54.4847 20.1945C54.6877 20.4202 54.9544 20.579 55.2495 20.6499C55.5447 20.7209 55.8544 20.7006 56.1378 20.5917C56.4212 20.4829 56.6649 20.2906 56.8367 20.0403C57.0085 19.7901 57.1003 19.4936 57.1 19.19C57.1191 18.8149 56.9888 18.4476 56.7376 18.1683C56.4865 17.8891 56.135 17.7207 55.76 17.7Z" fill="#122275"/>
<path d="M57.22 19.32C57.1914 19.3204 57.1635 19.3105 57.1415 19.2922C57.1195 19.2739 57.1048 19.2482 57.1 19.22C57.094 19.1869 57.1011 19.1528 57.1198 19.1248C57.1384 19.0969 57.1672 19.0772 57.2 19.07L60.55 18.51C60.5831 18.504 60.6172 18.5111 60.6451 18.5298C60.6731 18.5484 60.6928 18.5772 60.7 18.61C60.7028 18.6271 60.7022 18.6446 60.6982 18.6614C60.6942 18.6783 60.6868 18.6942 60.6766 18.7082C60.6663 18.7221 60.6534 18.7339 60.6385 18.7428C60.6236 18.7517 60.6072 18.7576 60.59 18.76L57.24 19.32H57.22Z" fill="#122275"/>
<path d="M61.16 19.88C61.2339 20.2437 61.1664 20.622 60.9714 20.9378C60.7763 21.2535 60.4683 21.4832 60.11 21.58C59.46 21.63 58.87 20.96 58.79 20.08C58.71 19.2 59.19 18.43 59.84 18.38C60.49 18.33 61.08 18.99 61.16 19.88Z" fill="#FF8C64"/>
<path d="M60.04 21.71C59.8436 21.7194 59.6488 21.6707 59.48 21.57C59.465 21.5627 59.4517 21.5523 59.441 21.5396C59.4302 21.5269 59.4222 21.512 59.4175 21.496C59.4128 21.48 59.4115 21.4632 59.4136 21.4467C59.4158 21.4302 59.4213 21.4143 59.43 21.4C59.4411 21.3888 59.4544 21.3799 59.469 21.3739C59.4836 21.3678 59.4992 21.3647 59.515 21.3647C59.5308 21.3647 59.5464 21.3678 59.561 21.3739C59.5756 21.3799 59.5888 21.3888 59.6 21.4C59.7425 21.4813 59.9067 21.5163 60.07 21.5C60.2587 21.4713 60.4352 21.3892 60.5787 21.2634C60.7223 21.1376 60.8268 20.9733 60.88 20.79C60.8865 20.7742 60.8962 20.7599 60.9083 20.7479C60.9204 20.7358 60.9347 20.7263 60.9505 20.7198C60.9663 20.7133 60.9832 20.71 61.0003 20.71C61.0173 20.71 61.0342 20.7134 61.05 20.72C61.0658 20.7266 61.0801 20.7362 61.0921 20.7483C61.1042 20.7604 61.1137 20.7747 61.1202 20.7905C61.1267 20.8063 61.13 20.8232 61.13 20.8403C61.1299 20.8573 61.1266 20.8742 61.12 20.89C61.048 21.1112 60.9167 21.3083 60.7404 21.46C60.564 21.6116 60.3494 21.712 60.12 21.75L60.04 21.71Z" fill="#EA522F"/>
<path d="M61.1 20.71C61 20.71 60.96 20.62 60.98 20.55C61.0208 20.3729 61.0409 20.1917 61.04 20.01C61.0386 19.9934 61.0407 19.9767 61.0461 19.961C61.0515 19.9453 61.0601 19.9308 61.0714 19.9186C61.0827 19.9064 61.0964 19.8966 61.1116 19.89C61.1269 19.8834 61.1433 19.8799 61.16 19.88C61.1937 19.8823 61.2254 19.8968 61.2493 19.9207C61.2732 19.9446 61.2876 19.9763 61.29 20.01C61.2925 20.2122 61.269 20.4138 61.22 20.61C61.2122 20.6367 61.1966 20.6605 61.1752 20.6783C61.1538 20.6961 61.1276 20.7071 61.1 20.71Z" fill="#EA522F"/>
<path d="M61.14 19.83C61.1101 19.8308 61.0809 19.8213 61.0572 19.8031C61.0335 19.7849 61.0169 19.7591 61.01 19.73C60.89 18.98 60.38 18.45 59.85 18.5C59.7227 18.4919 59.5955 18.516 59.48 18.57C59.4656 18.5826 59.4486 18.5918 59.4303 18.5971C59.4119 18.6024 59.3926 18.6036 59.3738 18.6006C59.3549 18.5975 59.3369 18.5904 59.3212 18.5796C59.3054 18.5689 59.2921 18.5548 59.2824 18.5383C59.2727 18.5219 59.2667 18.5035 59.2649 18.4845C59.2631 18.4655 59.2655 18.4463 59.272 18.4283C59.2784 18.4103 59.2888 18.394 59.3022 18.3804C59.3157 18.3669 59.332 18.3565 59.35 18.35C59.4837 18.2696 59.6344 18.2217 59.79 18.21C60.46 18.15 61.08 18.77 61.22 19.65C61.2232 19.6815 61.2149 19.7131 61.1965 19.7389C61.178 19.7647 61.1508 19.7829 61.12 19.79L61.14 19.83Z" fill="#EA522F"/>
<path d="M59.79 20.89C59.69 20.89 59.65 20.79 59.67 20.73L60.14 19.21C60.1444 19.1937 60.1522 19.1785 60.1629 19.1655C60.1736 19.1524 60.187 19.1418 60.2021 19.1342C60.2172 19.1267 60.2337 19.1224 60.2506 19.1217C60.2674 19.1209 60.2843 19.1238 60.3 19.13C60.3151 19.1346 60.3292 19.1421 60.3414 19.1521C60.3536 19.1621 60.3637 19.1745 60.3711 19.1884C60.3786 19.2023 60.3832 19.2176 60.3847 19.2333C60.3862 19.249 60.3846 19.2649 60.38 19.28L59.91 20.8C59.9032 20.8264 59.8876 20.8497 59.8658 20.8661C59.844 20.8824 59.8172 20.8909 59.79 20.89Z" fill="#EA522F"/>
<path d="M60.02 20C60.0048 20.0088 59.9875 20.0134 59.97 20.0134C59.9524 20.0134 59.9352 20.0088 59.92 20L59.59 19.56C59.5696 19.5364 59.5583 19.5062 59.5583 19.475C59.5583 19.4438 59.5696 19.4136 59.59 19.39C59.6142 19.3668 59.6464 19.3538 59.68 19.3538C59.7135 19.3538 59.7458 19.3668 59.77 19.39L60.09 19.82C60.1132 19.8442 60.1262 19.8765 60.1262 19.91C60.1262 19.9435 60.1132 19.9758 60.09 20C60.0674 20.0084 60.0425 20.0084 60.02 20Z" fill="#EA522F"/>
<path d="M51.465 28.7015L51.6763 28.763C51.9564 28.8445 52.1926 29.034 52.333 29.2897C52.4735 29.5455 52.5065 29.8465 52.425 30.1266L51.2763 34.0728L48.9527 33.3964L50.1014 29.4502C50.183 29.1701 50.3725 28.9339 50.6282 28.7935C50.8839 28.653 51.1849 28.62 51.465 28.7015Z" fill="#3F469A"/>
<path d="M49.48 35.9C49.2127 35.8219 48.9635 35.6919 48.7465 35.5174C48.5295 35.343 48.3489 35.1275 48.2152 34.8833C48.0815 34.6391 47.9972 34.3709 47.9671 34.0941C47.9371 33.8173 47.9618 33.5372 48.04 33.27L49.26 32.27L51.6 32.96L52.11 34.41C52.0372 34.6818 51.911 34.9363 51.7389 35.1588C51.5667 35.3814 51.352 35.5674 51.1072 35.7061C50.8624 35.8447 50.5925 35.9333 50.3131 35.9666C50.0337 35.9999 49.7505 35.9773 49.48 35.9Z" fill="#E3E3FD"/>
<path d="M52.1736 27.8591L51.5303 27.6719L51.139 29.0161L51.7823 29.2033L52.1736 27.8591Z" fill="#3F469A"/>
<path d="M53.48 30.7H51.48C51.3356 30.6392 51.2208 30.5243 51.16 30.38C51.1191 30.2358 51.1285 30.082 51.1867 29.9439C51.2448 29.8057 51.3483 29.6915 51.48 29.62L53.03 29.42L53.48 30.7Z" fill="#122275"/>
<path d="M52.15 27.85L51.66 27.71L51.9 26.98L52.46 27.13C52.36 27.37 52.26 27.57 52.15 27.85Z" fill="#122275"/>
<path d="M38.78 51.5C37.0341 52.3167 35.0504 52.4696 33.2 51.93C32.1018 51.5781 31.0969 50.9834 30.26 50.19L29.69 41.09C31.03 39.01 33.16 37.98 34.91 38.46C35.6285 38.6625 36.2652 39.0858 36.73 39.67L37.57 47.51C37.7932 48.8881 38.2002 50.23 38.78 51.5Z" fill="#E3E3FD"/>
<path d="M36.74 55.13L34.18 54.86C31.69 54.68 28.79 54.49 28.78 54.56C28.9004 54.5967 29.0245 54.6202 29.15 54.63C30.86 54.88 34.35 53.01 35.72 52.24C40.5793 51.9737 45.4051 51.2743 50.14 50.15C51.52 49.82 52.86 49.46 54.14 49.08L57.39 49.38C57.6365 50.212 57.5978 51.1025 57.28 51.91C56.9911 52.5333 56.557 53.0782 56.0142 53.4993C55.4714 53.9203 54.8355 54.2052 54.16 54.33C53.2004 54.5777 52.2247 54.7582 51.24 54.87C46.24 55.44 43.77 53.94 38.95 54.66C38.2056 54.7779 37.4679 54.9348 36.74 55.13Z" fill="#FF8C64"/>
<path d="M56.48 49.07H60.68C62.1334 45.9783 63.2628 42.7444 64.05 39.42C64.41 37.89 64.67 36.42 64.87 35.04C65.04 32.5 63.58 30.8 62.5 30.81C61.42 30.82 60.39 32.19 60.15 34.16C58.9033 39.1 57.68 44.07 56.48 49.07Z" fill="#FF8C64"/>
<path d="M60.89 51.35C60.369 52.3019 59.6931 53.1603 58.89 53.89C58.1728 54.5482 57.3603 55.0944 56.48 55.51L44.58 56.01C43.68 54.5567 42.7833 53.1067 41.89 51.66L54.12 49.08L58.48 33.28C58.7121 32.3968 59.2855 31.642 60.0741 31.1816C60.8627 30.7212 61.8018 30.5929 62.685 30.825C63.5682 31.0571 64.323 31.6305 64.7834 32.4191C65.2438 33.2076 65.3721 34.1468 65.14 35.03L60.89 51.35Z" fill="#3F469A"/>
<path d="M54.14 49.21C54.1215 49.2076 54.1037 49.2015 54.0877 49.192C54.0716 49.1826 54.0576 49.1701 54.0464 49.1552C54.0352 49.1403 54.0271 49.1233 54.0226 49.1053C54.018 49.0872 54.0172 49.0684 54.02 49.05L57.6 34.71C57.6079 34.6782 57.6282 34.6508 57.6564 34.6339C57.6845 34.6171 57.7182 34.612 57.75 34.62C57.7818 34.628 57.8092 34.6482 57.8261 34.6764C57.8429 34.7045 57.8479 34.7382 57.84 34.77L54.26 49.11C54.2552 49.1383 54.2405 49.1639 54.2185 49.1822C54.1965 49.2005 54.1686 49.2104 54.14 49.21Z" fill="#BBBBF9"/>
<path d="M54.78 55.7C54.7482 55.7 54.7176 55.6874 54.6951 55.6649C54.6726 55.6424 54.66 55.6118 54.66 55.58C54.66 55.52 54.66 55.46 54.78 55.45C56.5217 55.4474 58.2134 54.8671 59.59 53.8C61.23 52.45 61.79 50.65 62.59 47.14C63.39 43.63 64.13 39.88 64.72 36.19C64.7272 36.1572 64.7469 36.1284 64.7748 36.1098C64.8028 36.0911 64.8369 36.084 64.87 36.09C64.8859 36.0924 64.901 36.098 64.9147 36.1064C64.9284 36.1148 64.9402 36.1258 64.9496 36.1389C64.9589 36.1519 64.9655 36.1667 64.969 36.1824C64.9725 36.198 64.9728 36.2142 64.97 36.23C64.38 39.92 63.66 43.61 62.83 47.23C62 50.85 61.43 52.64 59.73 54.03C58.301 55.1422 56.5408 55.7442 54.73 55.74L54.78 55.7Z" fill="#BBBBF9"/>
<path d="M7.28998 31.51C7.11846 31.4821 6.95413 31.4206 6.80643 31.329C6.65874 31.2374 6.53058 31.1176 6.42931 30.9764C6.32804 30.8352 6.25565 30.6753 6.2163 30.5061C6.17695 30.3368 6.1714 30.1614 6.19999 29.99L9.47999 10.28C9.55253 9.94871 9.7498 9.65806 10.0309 9.46831C10.312 9.27856 10.6553 9.20428 10.9897 9.26087C11.3241 9.31745 11.6238 9.50057 11.8268 9.77224C12.0298 10.0439 12.1205 10.3833 12.08 10.72L8.80999 30.42C8.78208 30.5915 8.72056 30.7559 8.62899 30.9036C8.53742 31.0512 8.41758 31.1794 8.27636 31.2807C8.13513 31.382 7.9753 31.4543 7.80604 31.4937C7.63677 31.533 7.4614 31.5386 7.28998 31.51Z" fill="#E3E3FD"/>
<path d="M2.48 45.57C2.34474 45.57 2.21501 45.5163 2.11937 45.4206C2.02373 45.325 1.97 45.1953 1.97 45.06V20.06C1.99322 19.9445 2.0557 19.8406 2.14685 19.7659C2.238 19.6913 2.35219 19.6505 2.47 19.6505C2.58782 19.6505 2.70199 19.6913 2.79314 19.7659C2.88428 19.8406 2.94678 19.9445 2.97 20.06V45.06C2.9701 45.1919 2.91912 45.3186 2.82776 45.4137C2.7364 45.5088 2.61176 45.5648 2.48 45.57Z" fill="#E3E3FD"/>
<path d="M8.23999 20.35H1.48C1.24395 20.35 1.01758 20.2562 0.850677 20.0893C0.68377 19.9224 0.589996 19.696 0.589996 19.46C0.589996 19.224 0.68377 18.9976 0.850677 18.8307C1.01758 18.6638 1.24395 18.57 1.48 18.57H8.25C8.48604 18.57 8.71241 18.6638 8.87932 18.8307C9.04623 18.9976 9.14 19.224 9.14 19.46C9.14 19.696 9.04623 19.9224 8.87932 20.0893C8.71241 20.2562 8.48604 20.35 8.25 20.35H8.23999Z" fill="#E3E3FD"/>
<path d="M40.1 55.57L37.31 54.83C36.8149 55.0605 36.3035 55.2544 35.78 55.41C34.5511 55.7712 33.2682 55.9134 31.99 55.83C31.34 55.7961 30.6943 55.7058 30.06 55.56C29.3718 55.407 28.7015 55.1825 28.06 54.89C28.75 54.58 29.46 54.28 30.22 53.99C32.0021 53.2971 33.8256 52.716 35.68 52.25L39.58 51.78L40.1 55.57Z" fill="#122275"/>
<path d="M6.40998 41.83C4.97998 40.32 5.13999 38.41 5.94999 37.83C6.59999 37.36 7.88999 37.59 8.94999 38.5C13.2 40.08 16.54 40.67 18.69 41.61C20.0584 42.2041 21.3937 42.8718 22.69 43.61C26.46 45.79 30.76 49.28 30.28 50.21C30.06 50.62 28.69 50.91 20.56 47.9L6.40998 41.83Z" fill="#FF8C64"/>
<path d="M22.93 56.57C22.5396 56.8918 22.0457 57.061 21.54 57.0463C21.0343 57.0316 20.551 56.8339 20.18 56.49L3.53999 40.13C3.36815 39.9652 3.23306 39.766 3.14358 39.5454C3.05409 39.3248 3.01223 39.0878 3.02073 38.8499C3.02923 38.6119 3.08788 38.3785 3.19288 38.1648C3.29788 37.9512 3.44683 37.7621 3.62998 37.61C4.02159 37.2896 4.51616 37.1221 5.02189 37.1386C5.52762 37.1552 6.01016 37.3547 6.37998 37.7L23.02 54.01C23.2001 54.1742 23.3424 54.3755 23.4369 54.6001C23.5315 54.8248 23.576 55.0673 23.5674 55.3108C23.5589 55.5544 23.4974 55.7932 23.3874 56.0106C23.2773 56.228 23.1212 56.4189 22.93 56.57Z" fill="#E3E3FD"/>
<path d="M21.8 66.42H0V41.57L4.26999 38.75L21.8 54.93L44.56 54.86C45.8551 56.5981 46.5446 58.7128 46.5229 60.8802C46.5012 63.0476 45.7696 65.1482 44.44 66.86L21.8 66.42Z" fill="#E3E3FD"/>
<path d="M20.29 57.35C20.2643 57.36 20.2357 57.36 20.21 57.35L4.11 41.85C4.09881 41.8389 4.08993 41.8256 4.08388 41.811C4.07782 41.7964 4.07471 41.7808 4.07471 41.765C4.07471 41.7492 4.07782 41.7336 4.08388 41.719C4.08993 41.7044 4.09881 41.6911 4.11 41.68C4.13421 41.6568 4.16645 41.6438 4.2 41.6438C4.23354 41.6438 4.26579 41.6568 4.28999 41.68L20.39 57.17C20.4012 57.1811 20.4101 57.1944 20.4161 57.209C20.4222 57.2236 20.4253 57.2392 20.4253 57.255C20.4253 57.2708 20.4222 57.2864 20.4161 57.301C20.4101 57.3156 20.4012 57.3288 20.39 57.34C20.3757 57.3503 20.3589 57.3567 20.3413 57.3585C20.3238 57.3602 20.3061 57.3573 20.29 57.35Z" fill="#BBBBF9"/>
<path d="M43.91 58.16H21.71C21.6773 58.1575 21.6467 58.1427 21.6245 58.1186C21.6022 58.0944 21.5899 58.0628 21.59 58.03C21.59 58.0142 21.5931 57.9986 21.5991 57.9841C21.6052 57.9695 21.614 57.9563 21.6251 57.9451C21.6363 57.934 21.6495 57.9252 21.6641 57.9191C21.6786 57.9131 21.6942 57.91 21.71 57.91H43.91C43.9418 57.91 43.9723 57.9226 43.9948 57.9451C44.0173 57.9676 44.03 57.9982 44.03 58.03C44.0314 58.0466 44.0293 58.0633 44.0239 58.079C44.0185 58.0947 44.0099 58.1092 43.9986 58.1214C43.9873 58.1336 43.9736 58.1434 43.9583 58.15C43.9431 58.1567 43.9266 58.1601 43.91 58.16Z" fill="#BBBBF9"/>
<path d="M52.73 49.51C52.7028 49.5022 52.6789 49.4858 52.6619 49.4633C52.6449 49.4407 52.6357 49.4133 52.6357 49.385C52.6357 49.3568 52.6449 49.3293 52.6619 49.3067C52.6789 49.2842 52.7028 49.2678 52.73 49.26L54.14 48.96C54.1577 48.9526 54.1769 48.9492 54.1961 48.9501C54.2153 48.9511 54.2341 48.9562 54.2511 48.9653C54.2681 48.9743 54.2828 48.987 54.2943 49.0024C54.3058 49.0179 54.3137 49.0356 54.3175 49.0545C54.3212 49.0734 54.3208 49.0928 54.3161 49.1115C54.3115 49.1301 54.3027 49.1475 54.2905 49.1624C54.2783 49.1773 54.263 49.1893 54.2456 49.1975C54.2282 49.2057 54.2092 49.21 54.19 49.21L52.78 49.5L52.73 49.51Z" fill="#BBBBF9"/>
<path d="M75.73 64.44C72.7784 66.1494 69.5601 67.3495 66.21 67.99C65.2038 68.0713 64.2024 68.2048 63.21 68.39C61.36 68.75 60.62 69.13 60.35 68.8C60.08 68.47 60.4 67.89 61.7 65.74C62.78 63.95 63.32 63.05 63.76 62.46C65.4402 60.1032 67.2884 57.8707 69.29 55.78C74.17 51.07 83.95 47.88 85.73 50.25C87.51 52.62 81.79 60.78 75.73 64.44Z" fill="#5B98E8"/>
<path d="M60.33 69.05C60.2998 69.0512 60.2697 69.0455 60.242 69.0334C60.2142 69.0213 60.1896 69.003 60.17 68.98C60.1461 68.9576 60.127 68.9304 60.114 68.9003C60.101 68.8702 60.0942 68.8378 60.0942 68.805C60.0942 68.7722 60.101 68.7398 60.114 68.7097C60.127 68.6796 60.1461 68.6524 60.17 68.63C67.1721 60.6116 75.8729 54.2542 85.64 50.02C85.7012 49.9959 85.7694 49.9959 85.8306 50.02C85.8919 50.0441 85.9417 50.0906 85.97 50.15C85.9832 50.1802 85.9904 50.2127 85.991 50.2457C85.9916 50.2786 85.9857 50.3114 85.9736 50.342C85.9616 50.3727 85.9435 50.4007 85.9206 50.4244C85.8977 50.448 85.8703 50.467 85.84 50.48C76.1142 54.6715 67.4493 60.9857 60.48 68.96C60.4425 69.0071 60.3892 69.039 60.33 69.05Z" fill="#BBBBF9"/>
<path d="M50.25 59.69C52.7768 61.076 55.052 62.8779 56.98 65.02C57.482 65.7139 58.0193 66.3814 58.59 67.02C59.66 68.2 60.26 68.57 60.14 68.91C60.02 69.25 59.46 69.27 57.33 69.27C55.56 69.27 54.68 69.27 54.06 69.21C51.6206 69.0244 49.1976 68.6634 46.81 68.13C41.26 66.65 34.68 60.97 35.62 58.64C36.56 56.31 44.96 56.9 50.25 59.69Z" fill="#5B98E8"/>
<path d="M61.12 69.18C57.1401 68.4879 53.2404 67.3957 49.48 65.92C44.8769 64.1266 40.511 61.7758 36.48 58.92C36.4342 58.8733 36.4085 58.8104 36.4085 58.745C36.4085 58.6796 36.4342 58.6167 36.48 58.57C36.498 58.5433 36.5212 58.5205 36.5482 58.5029C36.5753 58.4854 36.6055 58.4734 36.6373 58.4678C36.669 58.4622 36.7015 58.4631 36.7329 58.4703C36.7643 58.4776 36.7939 58.4911 36.82 58.51C44.0953 63.6964 52.4393 67.1885 61.24 68.73C61.3036 68.7444 61.3595 68.7822 61.3966 68.836C61.4336 68.8897 61.4491 68.9554 61.44 69.02C61.4173 69.0826 61.3714 69.134 61.3119 69.1638C61.2524 69.1936 61.1837 69.1994 61.12 69.18Z" fill="#BBBBF9"/>
<path d="M62.92 68.47C63.0291 68.438 63.1301 68.3831 63.2163 68.3089C63.3026 68.2348 63.372 68.1431 63.42 68.04C63.4827 67.8396 63.4807 67.6245 63.4143 67.4252C63.3479 67.226 63.2204 67.0527 63.05 66.93C63.1528 66.8799 63.2343 66.7948 63.28 66.69C63.3198 66.5548 63.3213 66.4112 63.2842 66.2752C63.2471 66.1392 63.1729 66.0162 63.07 65.92C63.1734 65.652 63.1983 65.36 63.1416 65.0784C63.0849 64.7968 62.949 64.5371 62.75 64.33C62.792 64.1289 62.7632 63.9195 62.6685 63.7372C62.5737 63.5549 62.4188 63.4111 62.23 63.33C62.0737 63.2583 61.8999 63.234 61.73 63.26C61.73 62.67 61.63 62.26 61.3 62.07C61.1191 62.0265 60.9297 62.0344 60.753 62.0927C60.5764 62.151 60.4195 62.2574 60.3 62.4C60.1611 62.2437 59.9837 62.1264 59.7855 62.0597C59.5873 61.9931 59.3751 61.9794 59.17 62.02C59.0866 61.9483 58.992 61.8909 58.89 61.85C58.37 61.62 57.83 61.72 57.67 62.07C57.6643 62.1332 57.6643 62.1968 57.67 62.26C57.2888 62.2479 56.9122 62.345 56.5844 62.5399C56.2566 62.7348 55.9914 63.0194 55.82 63.36C55.7604 63.4901 55.72 63.6282 55.7 63.77C55.15 63.89 54.76 64.31 54.84 64.77C54.7655 64.79 54.696 64.8253 54.6357 64.8735C54.5755 64.9216 54.5259 64.9817 54.49 65.05C54.4 65.26 54.49 65.53 54.73 65.82C54.6957 65.8673 54.6656 65.9175 54.64 65.97C54.5119 66.2646 54.5051 66.5979 54.6212 66.8974C54.7372 67.197 54.9668 67.4387 55.26 67.57L55.45 67.63C55.1 68.55 55.24 69.45 55.79 69.7C55.9236 69.7505 56.0671 69.7696 56.2093 69.7558C56.3515 69.7419 56.4886 69.6954 56.61 69.62C56.6851 69.6746 56.7655 69.7215 56.85 69.76C56.9954 69.8226 57.1516 69.8566 57.31 69.86C57.4771 70.2652 57.7967 70.5884 58.2 70.76C58.55 70.9345 58.9541 70.9663 59.3272 70.8488C59.7002 70.7313 60.0131 70.4736 60.2 70.13C60.1956 70.0834 60.1956 70.0366 60.2 69.99C60.3652 70.1696 60.5662 70.3127 60.79 70.41C61.0611 70.5795 61.3873 70.6378 61.7003 70.5726C62.0134 70.5073 62.2891 70.3237 62.47 70.06C62.5253 69.9344 62.546 69.7963 62.53 69.66C62.6572 69.5455 62.7594 69.4059 62.83 69.25C62.9474 69.0077 62.9791 68.7327 62.92 68.47Z" fill="#FFC5D2"/>
<path d="M58.79 65.28C58.7715 65.3269 58.7436 65.3696 58.7081 65.4053C58.6725 65.4411 58.63 65.4692 58.5832 65.4879C58.5363 65.5066 58.4862 65.5156 58.4358 65.5142C58.3854 65.5129 58.3357 65.5012 58.29 65.48C58.2427 65.4605 58.1999 65.4316 58.1641 65.3951C58.1282 65.3586 58.1001 65.3152 58.0814 65.2676C58.0628 65.2199 58.0539 65.169 58.0554 65.1179C58.0568 65.0668 58.0686 65.0165 58.09 64.97C58.1105 64.9236 58.1401 64.8818 58.177 64.847C58.2139 64.8122 58.2574 64.7852 58.3049 64.7675C58.3525 64.7497 58.4031 64.7417 58.4537 64.7439C58.5044 64.746 58.5541 64.7583 58.6 64.78C58.6912 64.8215 58.7623 64.8973 58.7979 64.9909C58.8335 65.0845 58.8306 65.1884 58.79 65.28Z" fill="#122275"/>
<path d="M57.13 66.68C57.0533 66.6465 56.9841 66.598 56.9264 66.5374C56.8687 66.4768 56.8236 66.4053 56.7938 66.3271C56.764 66.2489 56.7501 66.1656 56.7529 66.0819C56.7557 65.9983 56.7751 65.916 56.81 65.84C56.8371 65.7538 56.8821 65.6743 56.9421 65.6067C57.0021 65.5392 57.0757 65.4851 57.1582 65.448C57.2406 65.411 57.3299 65.3918 57.4203 65.3917C57.5106 65.3917 57.6 65.4107 57.6824 65.4477C57.7649 65.4847 57.8386 65.5387 57.8986 65.6062C57.9587 65.6737 58.0038 65.7531 58.031 65.8393C58.0582 65.9255 58.0668 66.0164 58.0563 66.1062C58.0458 66.1959 58.0164 66.2824 57.97 66.36C57.9365 66.4367 57.888 66.5059 57.8274 66.5636C57.7668 66.6213 57.6953 66.6664 57.6171 66.6962C57.5389 66.726 57.4556 66.7399 57.3719 66.7371C57.2883 66.7343 57.2061 66.7149 57.13 66.68Z" fill="#122275"/>
<path d="M60.22 67.91C60.1469 68.0977 60.0188 68.259 59.8524 68.3727C59.6861 68.4863 59.4894 68.5471 59.2879 68.5471C59.0864 68.547 58.8897 68.4862 58.7234 68.3724C58.5572 68.2586 58.4292 68.0973 58.3562 67.9095C58.2831 67.7218 58.2685 67.5164 58.3142 67.3202C58.36 67.124 58.4639 66.9461 58.6124 66.81C58.7609 66.6739 58.947 66.5857 59.1464 66.5572C59.3459 66.5286 59.5493 66.561 59.73 66.65C59.8454 66.6999 59.9498 66.7723 60.037 66.8628C60.1243 66.9534 60.1927 67.0604 60.2383 67.1776C60.2838 67.2948 60.3057 67.4199 60.3025 67.5456C60.2994 67.6714 60.2714 67.7952 60.22 67.91Z" fill="#122275"/>
<path d="M60.19 65.62C60.1697 65.666 60.1404 65.7075 60.104 65.7421C60.0676 65.7768 60.0248 65.804 59.9779 65.8221C59.931 65.8402 59.881 65.8489 59.8307 65.8477C59.7805 65.8465 59.731 65.8354 59.685 65.815C59.639 65.7946 59.5975 65.7654 59.5629 65.729C59.5282 65.6926 59.501 65.6498 59.4829 65.6029C59.4648 65.556 59.4561 65.506 59.4573 65.4557C59.4585 65.4055 59.4696 65.356 59.49 65.31C59.5311 65.2172 59.6074 65.1445 59.7021 65.1079C59.7968 65.0713 59.9022 65.0739 59.995 65.115C60.0878 65.1561 60.1605 65.2324 60.1971 65.3271C60.2337 65.4218 60.2311 65.5272 60.19 65.62Z" fill="#122275"/>
<path d="M61.91 65.88C61.8181 66.0827 61.6504 66.2413 61.4428 66.3217C61.2353 66.4022 61.0045 66.3979 60.8 66.31C60.5972 66.2183 60.4391 66.05 60.3604 65.8419C60.2816 65.6338 60.2887 65.4029 60.38 65.2C60.4223 65.0982 60.4848 65.006 60.5635 64.9289C60.6423 64.8517 60.7359 64.7913 60.8386 64.7512C60.9412 64.711 61.051 64.692 61.1612 64.6952C61.2714 64.6985 61.3798 64.7239 61.48 64.77C61.5812 64.8145 61.6727 64.8785 61.7492 64.9584C61.8256 65.0383 61.8856 65.1326 61.9255 65.2357C61.9655 65.3388 61.9847 65.4488 61.982 65.5594C61.9793 65.67 61.9548 65.7789 61.91 65.88Z" fill="#122275"/>
<path d="M58.95 65.99C58.9192 66.0601 58.8621 66.1152 58.7909 66.1433C58.7197 66.1714 58.6403 66.1702 58.57 66.14C58.5017 66.1074 58.4488 66.0495 58.4227 65.9785C58.3965 65.9075 58.3991 65.8291 58.43 65.76C58.4442 65.7257 58.4651 65.6945 58.4914 65.6683C58.5178 65.6421 58.5491 65.6214 58.5836 65.6075C58.618 65.5935 58.6549 65.5865 58.692 65.587C58.7292 65.5874 58.7659 65.5952 58.8 65.61C58.8701 65.6407 58.9251 65.6979 58.9532 65.7691C58.9813 65.8403 58.9802 65.9197 58.95 65.99Z" fill="#122275"/>
<path d="M60.36 66.72C60.3447 66.7572 60.3222 66.7909 60.2936 66.8192C60.2651 66.8475 60.2312 66.8698 60.1939 66.8847C60.1566 66.8996 60.1166 66.9069 60.0765 66.9061C60.0363 66.9053 59.9967 66.8964 59.96 66.88C59.9237 66.8638 59.891 66.8406 59.8637 66.8116C59.8365 66.7827 59.8153 66.7486 59.8013 66.7114C59.7874 66.6742 59.7809 66.6345 59.7824 66.5948C59.7839 66.5551 59.7933 66.5161 59.81 66.48C59.8252 66.4441 59.8474 66.4115 59.8754 66.3844C59.9035 66.3573 59.9367 66.3361 59.9731 66.322C60.0095 66.308 60.0484 66.3015 60.0874 66.3029C60.1263 66.3043 60.1647 66.3135 60.2 66.33C60.2726 66.3609 60.3301 66.4192 60.36 66.4922C60.39 66.5652 60.39 66.647 60.36 66.72Z" fill="#122275"/>
<path d="M59.93 64.57C59.9182 64.6605 59.8851 64.747 59.8336 64.8223C59.782 64.8977 59.7134 64.9598 59.6333 65.0036C59.5532 65.0474 59.4639 65.0717 59.3727 65.0745C59.2814 65.0773 59.1908 65.0585 59.1082 65.0197C59.0256 64.9809 58.9533 64.9231 58.8972 64.851C58.8411 64.779 58.8029 64.6947 58.7855 64.6051C58.7681 64.5155 58.7722 64.423 58.7973 64.3353C58.8224 64.2475 58.8679 64.1669 58.93 64.1C58.9418 64.0095 58.9749 63.923 59.0264 63.8477C59.078 63.7723 59.1466 63.7102 59.2267 63.6664C59.3068 63.6226 59.3961 63.5983 59.4873 63.5955C59.5786 63.5927 59.6692 63.6115 59.7518 63.6503C59.8344 63.6891 59.9067 63.7469 59.9628 63.819C60.0189 63.891 60.0572 63.9753 60.0745 64.0649C60.0919 64.1545 60.0879 64.247 60.0627 64.3347C60.0376 64.4225 59.9921 64.5031 59.93 64.57Z" fill="#122275"/>
</svg>
