<svg width="30" height="23" viewBox="0 0 30 23" fill="none" xmlns="http://www.w3.org/2000/svg">
<path d="M14.719 22.9368C10.3985 22.8453 6.17598 21.5498 2.52382 18.6392C1.74834 18.0203 1.09372 17.2503 0.382332 16.5518C-0.0644603 16.1123 -0.103829 15.6728 0.181824 15.0869C2.07703 11.1719 3.93561 7.23872 5.80609 3.31098C6.2245 2.43113 6.63925 1.54944 7.06315 0.671419C7.40374 -0.0353915 7.63171 -0.111378 8.355 0.172444C11.1548 1.27111 14.0516 1.6172 17.0363 1.28485C18.6733 1.10174 20.2719 0.773042 21.7917 0.107432C22.331 -0.128781 22.6093 0.0158815 22.906 0.627474C23.733 2.34079 24.5546 4.05593 25.3706 5.7729C26.8538 8.88579 28.3196 11.9987 29.8276 15.1015C30.1022 15.66 30.05 16.0574 29.6618 16.517C27.8765 18.6347 25.6654 20.1572 23.1394 21.2467C20.5511 22.3582 17.8402 22.9002 14.719 22.9368ZM8.17464 1.68036L1.53502 15.6206C8.4255 23.6418 22.1772 23.1602 28.4643 15.6032L21.8228 1.68036C17.2359 3.2066 12.7341 3.2185 8.17464 1.68036Z" fill="#E91E63"/>
<path d="M20.306 15.725C20.3435 16.192 20.4598 16.669 20.4021 17.124C20.2291 18.4973 19.3684 19.3287 18.1132 19.7791C16.9047 20.214 15.6723 20.1188 14.451 19.8258C11.9213 19.2188 10.0215 17.6843 8.52458 15.6307C7.46254 14.1723 7.30872 12.5682 8.0723 10.8763C7.3133 10.0166 7.00567 9.00394 7.08349 7.85492C7.23456 5.63195 8.9494 4.15332 11.1733 4.34009C12.0156 4.41059 12.8158 4.60378 13.5345 5.06155C14.5023 5.67956 15.0324 6.56307 15.1038 7.71667C15.1212 7.99866 15.1312 8.28157 15.1404 8.472C15.6897 8.73202 16.2153 8.89591 16.6355 9.20445C17.1098 9.55419 17.1519 10.1392 17.075 10.7316C18.3467 11.4256 19.6596 11.7122 21.0741 11.4842C21.2349 11.4427 21.3978 11.41 21.5621 11.3862C22.5637 11.3359 23.2284 12.2496 22.7276 13.1056C22.2506 13.9205 21.629 14.6557 21.0219 15.3863C20.8672 15.5786 20.533 15.6243 20.306 15.725ZM12.0129 12.9271C12.5951 12.9765 13.0914 13.0003 13.5812 13.0663C14.039 13.1285 14.3503 12.9656 14.6176 12.6085C14.9674 12.1397 15.5139 10.8351 15.5817 10.2088C14.8877 10.0165 14.8657 10.0257 14.6222 10.6236C14.4611 11.0191 14.3173 11.4219 14.1424 11.8138C13.9593 12.223 13.7057 12.3805 13.3056 12.321C12.8121 12.2487 12.3205 12.1608 11.8343 12.0463C11.3921 11.9456 11.1687 11.6151 11.2273 11.2223C11.2859 10.8296 11.5935 10.6171 12.0714 10.6501C12.3727 10.6712 12.6721 10.7261 12.9751 10.7664C13.4448 9.85083 13.7359 8.94077 13.6883 7.93457C13.6499 7.12156 13.2782 6.54109 12.5604 6.16938C11.9838 5.88109 11.3442 5.74166 10.6999 5.76378C9.83841 5.77568 9.17554 6.14008 8.80749 6.92654C8.39274 7.81555 8.35795 8.71737 8.89904 9.58166C8.98308 9.69703 9.08844 9.79523 9.20942 9.87097C10.0179 10.4441 10.0417 10.5348 9.48409 11.3917C9.04096 12.072 8.90179 12.8227 9.13617 13.5744C9.31694 14.1384 9.59183 14.6677 9.94919 15.14C10.6868 16.1076 11.5991 16.9284 12.6391 17.5598C13.8383 18.3103 15.2368 18.6797 16.6502 18.6191C17.4568 18.5889 18.1974 18.3445 18.7092 17.6578C18.8419 17.4877 18.9313 17.288 18.9698 17.0757C19.0082 16.8634 18.9945 16.645 18.9299 16.4392C18.8145 16.0556 18.6918 15.6921 18.191 15.5886C17.834 15.5154 17.6417 15.1309 17.6975 14.8232C17.7247 14.6582 17.8088 14.508 17.9353 14.3986C18.0617 14.2892 18.2225 14.2276 18.3897 14.2244C18.8402 14.1979 19.2934 14.219 19.7438 14.1933C19.9214 14.1832 20.1512 14.153 20.2574 14.0395C20.5404 13.7337 20.7692 13.3776 21.0869 12.95C19.4206 13.1184 17.9576 12.7852 16.5678 12.1187C16.3297 12.5389 16.1805 12.9646 15.8976 13.2622C15.4398 13.7429 15.4718 14.2226 15.6961 14.761C15.7419 14.8699 15.7877 14.9798 15.8252 15.0933C15.9699 15.5392 15.8445 15.9118 15.503 16.0629C15.1193 16.2313 14.7092 16.0739 14.5077 15.6399C14.3494 15.2993 14.2395 14.9358 14.0957 14.5513L11.914 14.316C11.9478 13.8436 11.9808 13.4453 12.0129 12.9271Z" fill="#E91E63"/>
</svg>
