<svg width="24" height="24" viewBox="0 0 24 24" fill="none" xmlns="http://www.w3.org/2000/svg">
<path fill-rule="evenodd" clip-rule="evenodd" d="M18.214 14.4805C18.3605 14.334 18.5979 14.334 18.7443 14.4805C18.8908 14.6269 18.8908 14.8644 18.7443 15.0108L18.4792 15.276C18.1256 17.0438 17.6837 18.1928 17.1533 18.7231C16.3579 19.5186 15.2339 19.4554 14.5017 18.7231C13.7695 17.9909 13.7062 16.867 14.5017 16.0715C15.032 15.5412 16.1811 15.0992 17.9488 14.7457L18.214 14.4805ZM5.19473 14.3307C5.29829 14.1513 5.52763 14.0899 5.70699 14.1934L6.03175 14.3809C7.83079 14.2649 9.05507 14.3944 9.70459 14.7694C10.6789 15.3319 10.9087 16.4339 10.3909 17.3307C9.87312 18.2275 8.80387 18.5795 7.82959 18.017C7.18007 17.642 6.45579 16.6465 5.65675 15.0304L5.33199 14.8429C5.15263 14.7394 5.09118 14.51 5.19473 14.3307ZM12.7928 6.70752C12.9999 6.70752 13.1678 6.87542 13.1678 7.08252V7.45752C14.1678 8.95752 14.6678 10.0825 14.6678 10.8325C14.6678 11.9575 13.8283 12.7075 12.7928 12.7075C11.7573 12.7075 10.9178 11.9575 10.9178 10.8325C10.9178 10.0825 11.4178 8.95752 12.4178 7.45752V7.08252C12.4178 6.87542 12.5857 6.70752 12.7928 6.70752ZM17.8466 5.72132C18.8468 5.4533 19.8518 5.96047 20.143 7.04714C20.3371 7.77158 20.1453 8.98766 19.5676 10.6954L19.6646 11.0576C19.7182 11.2576 19.5995 11.4633 19.3995 11.5169C19.1994 11.5705 18.9938 11.4518 18.9402 11.2517L18.8431 10.8895C17.489 9.69941 16.7148 8.74216 16.5207 8.01771C16.2296 6.93105 16.8463 5.98933 17.8466 5.72132ZM7.49429 3.79754L7.56927 3.80975C7.76932 3.86335 7.88803 4.06898 7.83443 4.26903L7.73737 4.63125C8.31507 6.33896 8.50686 7.55503 8.31275 8.27948C8.02158 9.36614 7.0166 9.87332 6.01635 9.6053C5.0161 9.33729 4.39936 8.39557 4.69053 7.3089C4.88464 6.58446 5.65878 5.6272 7.01293 4.43713L7.10999 4.07491C7.16359 3.87486 7.36922 3.75614 7.56927 3.80975L7.49429 3.79754Z" stroke="#E91E63" stroke-linecap="round"/>
</svg>
